<svg height="512" viewBox="0 0 512 512" width="512" xmlns="http://www.w3.org/2000/svg"><g id="flat"><g fill="#e82f3e"><path d="m188.396 297.846-44.396 62.154 24 64 37.333-56z"/><path d="m323.604 297.846 44.396 62.154-24 64-37.333-56z"/><path d="m268.223 36.223-12.223-12.223-12.223 12.223a214.33 214.33 0 0 0 -51.777 83.777h128a214.33 214.33 0 0 0 -51.777-83.777z"/></g><path d="m320 120h-128a205.86 205.86 0 0 0 -17.406 134.05l25.406 121.95h112l25.406-121.95a205.86 205.86 0 0 0 -17.406-134.05z" fill="#cbcbcb"/><path d="m296.805 400a67.958 67.958 0 0 0 -8.805-24h-64a68.065 68.065 0 0 0 4.639 76.821l27.361 35.179 27.361-35.179a68.064 68.064 0 0 0 13.444-52.821z" fill="#ea9d2d"/><path d="m288.509 395.506a54.174 54.174 0 0 0 -7.015-19.12h-50.988a54.224 54.224 0 0 0 3.7 61.2l21.794 28.028 21.8-28.026a54.236 54.236 0 0 0 10.709-42.082z" fill="#fbb540"/><circle cx="256" cy="184" fill="#2fbbdf" r="32"/><circle cx="256" cy="184" fill="#75c2d4" r="22.627"/><circle cx="256" cy="280" fill="#2fbbdf" r="32"/><path d="m256 312-16 48 16 64 16-64z" fill="#e82f3e"/><path d="m240 96a8 8 0 0 1 -7.419-10.988 103.846 103.846 0 0 1 14.244-24.832 8 8 0 1 1 12.649 9.8 87.824 87.824 0 0 0 -12.049 21.006 8 8 0 0 1 -7.425 5.014z" fill="#ff3444"/><circle cx="256" cy="280" fill="#75c2d4" r="22.627"/></g></svg>