<svg id="Capa_1" enable-background="new 0 0 512 512" height="512" viewBox="0 0 512 512" width="512" xmlns="http://www.w3.org/2000/svg" xmlns:xlink="http://www.w3.org/1999/xlink"><linearGradient id="SVGID_1_" gradientUnits="userSpaceOnUse" x1="-25.301" x2="529.203" y1="195.191" y2="337.498"><stop offset=".0485" stop-color="#ffdbed"/><stop offset=".9993" stop-color="#d2deff"/></linearGradient><g><path d="m382.606 171.517c-.192-.001-.385-.002-.577-.002-32.034-.05-62.385-13.844-83.44-37.986-31.366-35.964-77.6-58.622-129.121-58.393-93.512.414-170.663 78.98-169.454 172.484 1.203 92.986 76.955 167.995 170.227 167.995 26.343 0 51.286-5.987 73.547-16.672 19.194-9.213 42.065-6.784 58.968 6.161 21.863 16.745 49.19 26.713 78.846 26.763 71.382.119 129.981-58.02 130.396-129.401.418-72.049-57.442-130.526-129.392-130.949z" fill="url(#SVGID_1_)"/><g fill="#2626bc"><path d="m488.256 295.826-30.139-8.582c-2.952-12.032-7.702-23.364-13.956-33.675l15.249-27.39c1.293-2.329.888-5.241-.997-7.126l-20.599-20.599c-1.885-1.885-4.797-2.29-7.126-.997l-27.39 15.249c-10.311-6.254-21.643-11.004-33.675-13.956l-8.582-30.139c-.732-2.57-3.076-4.338-5.747-4.338h-29.127c-2.671 0-5.015 1.768-5.747 4.338l-8.582 30.139c-12.032 2.952-23.364 7.702-33.675 13.956l-27.39-15.249c-2.329-1.293-5.241-.888-7.126.997l-20.599 20.599c-1.885 1.885-2.29 4.797-.997 7.126l15.249 27.39c-6.254 10.311-11.004 21.643-13.956 33.675l-30.139 8.582c-2.57.732-4.338 3.076-4.338 5.747v29.127c0 2.671 1.768 5.015 4.338 5.747l30.139 8.582c2.952 12.032 7.702 23.364 13.956 33.675l-15.249 27.39c-1.293 2.329-.888 5.241.997 7.126l20.599 20.599c1.885 1.885 4.797 2.29 7.126.997l27.39-15.249c10.311 6.254 21.642 11.004 33.675 13.956l8.582 30.139c.732 2.57 3.076 4.338 5.747 4.338h29.127c2.671 0 5.015-1.768 5.747-4.338l8.582-30.139c12.032-2.952 23.364-7.702 33.675-13.956l27.39 15.249c2.329 1.293 5.241.888 7.126-.997l20.599-20.599c1.885-1.885 2.29-4.797.997-7.126l-15.249-27.39c6.254-10.311 11.004-21.643 13.956-33.675l30.139-8.582c2.57-.732 4.338-3.076 4.338-5.747v-29.127c0-2.671-1.768-5.015-4.338-5.747zm-147.526 95.066c-41.283 0-74.756-33.472-74.756-74.756s33.472-74.756 74.756-74.756 74.756 33.472 74.756 74.756-33.472 74.756-74.756 74.756z" opacity=".1"/><path d="m181.07 249.76-16.274-4.634c-1.594-6.497-4.159-12.616-7.536-18.184l8.234-14.79c.698-1.257.479-2.83-.538-3.848l-11.123-11.123c-1.018-1.018-2.59-1.236-3.848-.538l-14.79 8.234c-5.568-3.377-11.687-5.942-18.184-7.536l-4.634-16.274c-.395-1.388-1.661-2.342-3.104-2.342h-15.728c-1.442 0-2.708.955-3.104 2.342l-4.634 16.274c-6.497 1.594-12.616 4.159-18.184 7.536l-14.79-8.234c-1.257-.698-2.83-.479-3.848.538l-11.123 11.123c-1.018 1.018-1.236 2.59-.538 3.848l8.234 14.79c-3.377 5.568-5.942 11.687-7.536 18.184l-16.274 4.634c-1.388.395-2.342 1.661-2.342 3.104v15.728c0 1.442.955 2.708 2.342 3.103l16.274 4.634c1.594 6.497 4.159 12.616 7.536 18.184l-8.234 14.79c-.698 1.257-.479 2.83.538 3.848l11.123 11.123c1.018 1.018 2.59 1.236 3.848.538l14.79-8.234c5.568 3.377 11.687 5.942 18.184 7.536l4.634 16.274c.395 1.388 1.661 2.342 3.104 2.342h15.728c1.442 0 2.708-.955 3.104-2.342l4.634-16.274c6.497-1.594 12.616-4.159 18.184-7.536l14.79 8.234c1.257.698 2.83.479 3.848-.538l11.123-11.123c1.018-1.018 1.236-2.59.538-3.848l-8.234-14.79c3.377-5.568 5.942-11.686 7.536-18.184l16.274-4.634c1.388-.395 2.342-1.661 2.342-3.103v-15.728c0-1.443-.954-2.708-2.342-3.104zm-79.661 36.761c-14.244 0-25.793-11.549-25.793-25.793s11.549-25.793 25.793-25.793 25.793 11.549 25.793 25.793c0 14.243-11.549 25.793-25.793 25.793z" opacity=".1"/><path d="m290.498 94.498-17.526-4.991c-1.716-6.997-4.479-13.586-8.115-19.582l8.867-15.927c.752-1.354.516-3.048-.58-4.144l-11.978-11.978c-1.096-1.096-2.79-1.331-4.144-.58l-15.927 8.867c-5.996-3.636-12.585-6.399-19.582-8.115l-4.991-17.526c-.426-1.494-1.789-2.522-3.342-2.522h-16.937c-1.553 0-2.916 1.028-3.342 2.522l-4.991 17.526c-6.997 1.716-13.586 4.479-19.582 8.115l-15.927-8.867c-1.354-.752-3.048-.516-4.144.58l-11.977 11.979c-1.096 1.096-1.331 2.79-.58 4.144l8.867 15.927c-3.636 5.996-6.399 12.585-8.115 19.582l-17.526 4.991c-1.494.426-2.522 1.789-2.522 3.342v16.937c0 1.553 1.028 2.916 2.522 3.342l17.526 4.991c1.716 6.997 4.479 13.586 8.115 19.582l-8.867 15.927c-.752 1.354-.516 3.048.58 4.144l11.978 11.978c1.096 1.096 2.79 1.331 4.144.58l15.927-8.867c5.996 3.637 12.585 6.399 19.582 8.115l4.991 17.526c.426 1.494 1.789 2.522 3.342 2.522h16.937c1.553 0 2.916-1.028 3.342-2.522l4.991-17.526c6.997-1.716 13.586-4.479 19.582-8.115l15.927 8.867c1.354.752 3.048.516 4.144-.58l11.978-11.978c1.096-1.096 1.331-2.79.58-4.144l-8.867-15.927c3.636-5.996 6.399-12.585 8.115-19.582l17.526-4.991c1.494-.426 2.522-1.789 2.522-3.342v-16.938c-.001-1.553-1.029-2.916-2.523-3.342zm-85.786 46.162c-18.97 0-34.351-15.381-34.351-34.351s15.381-34.351 34.351-34.351 34.351 15.381 34.351 34.351-15.381 34.351-34.351 34.351z" opacity=".1"/></g><path d="m488.256 316.827-30.139-8.582c-2.952-12.032-7.702-23.364-13.956-33.675l15.249-27.39c1.293-2.329.888-5.241-.997-7.126l-20.599-20.599c-1.885-1.885-4.797-2.29-7.126-.997l-27.39 15.249c-10.311-6.254-21.643-11.004-33.675-13.956l-8.582-30.139c-.732-2.57-3.076-4.338-5.747-4.338h-29.127c-2.671 0-5.015 1.768-5.747 4.338l-8.582 30.139c-12.032 2.952-23.364 7.702-33.675 13.956l-27.39-15.249c-2.329-1.293-5.241-.888-7.126.997l-20.599 20.599c-1.885 1.885-2.29 4.797-.997 7.126l15.249 27.39c-6.254 10.311-11.004 21.642-13.956 33.675l-30.139 8.582c-2.57.732-4.338 3.076-4.338 5.747v29.127c0 2.671 1.768 5.015 4.338 5.747l30.139 8.582c2.952 12.032 7.702 23.364 13.956 33.675l-15.249 27.39c-1.293 2.329-.888 5.241.997 7.126l20.599 20.599c1.885 1.885 4.797 2.29 7.126.997l27.39-15.249c10.311 6.254 21.642 11.004 33.675 13.956l8.582 30.139c.732 2.57 3.076 4.338 5.747 4.338h29.127c2.671 0 5.015-1.768 5.747-4.338l8.582-30.139c12.032-2.952 23.364-7.702 33.675-13.956l27.39 15.249c2.329 1.293 5.241.888 7.126-.997l20.599-20.599c1.885-1.885 2.29-4.797.997-7.126l-15.249-27.39c6.254-10.311 11.004-21.643 13.956-33.675l30.139-8.582c2.57-.732 4.338-3.076 4.338-5.747v-29.127c0-2.672-1.768-5.016-4.338-5.747zm-147.526 95.065c-41.283 0-74.756-33.472-74.756-74.756s33.472-74.756 74.756-74.756 74.756 33.472 74.756 74.756-33.472 74.756-74.756 74.756z" fill="#9fb0fe"/><path d="m181.07 270.76-16.274-4.634c-1.594-6.497-4.159-12.616-7.536-18.184l8.234-14.79c.698-1.257.479-2.83-.538-3.848l-11.123-11.123c-1.018-1.018-2.59-1.236-3.848-.538l-14.79 8.234c-5.568-3.377-11.687-5.942-18.184-7.536l-4.634-16.274c-.395-1.388-1.661-2.342-3.104-2.342h-15.728c-1.442 0-2.708.955-3.104 2.342l-4.634 16.274c-6.497 1.594-12.616 4.159-18.184 7.536l-14.79-8.234c-1.257-.698-2.83-.479-3.848.538l-11.123 11.123c-1.018 1.018-1.236 2.59-.538 3.848l8.234 14.79c-3.377 5.568-5.942 11.687-7.536 18.184l-16.274 4.634c-1.388.395-2.342 1.661-2.342 3.103v15.728c0 1.442.955 2.708 2.342 3.103l16.274 4.634c1.594 6.497 4.159 12.616 7.536 18.184l-8.234 14.79c-.698 1.257-.479 2.83.538 3.848l11.123 11.123c1.018 1.018 2.59 1.236 3.848.538l14.79-8.234c5.568 3.377 11.687 5.942 18.184 7.536l4.634 16.274c.395 1.388 1.661 2.342 3.104 2.342h15.728c1.442 0 2.708-.955 3.104-2.342l4.634-16.274c6.497-1.594 12.616-4.159 18.184-7.536l14.79 8.234c1.257.698 2.83.479 3.848-.538l11.123-11.123c1.018-1.018 1.236-2.59.538-3.848l-8.234-14.79c3.377-5.568 5.942-11.686 7.536-18.184l16.274-4.634c1.388-.395 2.342-1.661 2.342-3.103v-15.728c0-1.441-.954-2.708-2.342-3.103zm-79.661 36.761c-14.244 0-25.793-11.549-25.793-25.793s11.549-25.793 25.793-25.793 25.793 11.549 25.793 25.793c0 14.243-11.549 25.793-25.793 25.793z" fill="#ff7eb8"/><path d="m290.498 115.498-17.526-4.991c-1.716-6.997-4.479-13.586-8.115-19.582l8.867-15.927c.752-1.354.516-3.048-.58-4.144l-11.978-11.978c-1.096-1.096-2.79-1.331-4.144-.58l-15.927 8.867c-5.996-3.636-12.585-6.399-19.582-8.115l-4.991-17.526c-.426-1.494-1.789-2.522-3.342-2.522h-16.937c-1.553 0-2.916 1.028-3.342 2.522l-4.991 17.526c-6.997 1.716-13.586 4.479-19.582 8.115l-15.927-8.867c-1.354-.752-3.048-.516-4.144.58l-11.977 11.979c-1.096 1.096-1.331 2.79-.58 4.144l8.867 15.927c-3.636 5.996-6.399 12.585-8.115 19.582l-17.526 4.991c-1.494.426-2.522 1.789-2.522 3.342v16.937c0 1.553 1.028 2.916 2.522 3.342l17.526 4.991c1.716 6.997 4.479 13.586 8.115 19.582l-8.867 15.927c-.752 1.354-.516 3.048.58 4.144l11.978 11.978c1.096 1.096 2.79 1.331 4.144.58l15.927-8.867c5.996 3.637 12.585 6.399 19.582 8.115l4.991 17.526c.426 1.494 1.789 2.522 3.342 2.522h16.937c1.553 0 2.916-1.028 3.342-2.522l4.991-17.526c6.997-1.716 13.586-4.479 19.582-8.115l15.927 8.867c1.354.752 3.048.516 4.144-.58l11.978-11.978c1.096-1.096 1.331-2.79.58-4.144l-8.867-15.927c3.636-5.996 6.399-12.585 8.115-19.582l17.526-4.991c1.494-.426 2.522-1.789 2.522-3.342v-16.937c-.001-1.554-1.029-2.917-2.523-3.343zm-85.786 46.162c-18.97 0-34.351-15.381-34.351-34.351s15.381-34.351 34.351-34.351 34.351 15.381 34.351 34.351-15.381 34.351-34.351 34.351z" fill="#97ffd2"/><g fill="#2626bc"><path d="m355.294 494h-29.126c-4.879 0-9.22-3.277-10.556-7.968l-7.797-27.383c-10.405-2.811-20.379-6.944-29.724-12.318l-24.885 13.854c-4.266 2.369-9.648 1.615-13.094-1.83l-20.599-20.599c-3.444-3.445-4.198-8.827-1.833-13.088l13.857-24.89c-5.374-9.345-9.508-19.319-12.318-29.724l-27.382-7.798c-4.692-1.336-7.969-5.677-7.969-10.556v-29.127c0-4.878 3.276-9.219 7.967-10.556l27.384-7.797c2.811-10.405 6.944-20.379 12.318-29.724l-13.854-24.884c-2.368-4.267-1.614-9.649 1.83-13.094l20.599-20.599c3.445-3.446 8.827-4.198 13.089-1.833l24.89 13.856c9.345-5.374 19.319-9.507 29.724-12.318l7.797-27.382c1.336-4.692 5.677-7.969 10.557-7.969h29.126c4.878 0 9.219 3.276 10.556 7.968l7.797 27.383c10.406 2.811 20.38 6.945 29.724 12.318l24.884-13.854c4.267-2.369 9.65-1.615 13.094 1.83l20.599 20.599c3.445 3.445 4.198 8.828 1.833 13.089l-13.856 24.889c5.374 9.344 9.507 19.318 12.318 29.724l27.382 7.797h.001c4.69 1.337 7.967 5.678 7.967 10.556v29.128c0 4.879-3.276 9.22-7.968 10.556l-27.383 7.798c-2.811 10.405-6.945 20.379-12.318 29.724l13.854 24.884c2.369 4.266 1.615 9.648-1.83 13.094l-20.599 20.599c-3.445 3.445-8.827 4.199-13.089 1.833l-24.889-13.857c-9.345 5.374-19.319 9.507-29.724 12.318l-7.797 27.382c-1.338 4.692-5.679 7.969-10.557 7.969zm-77.131-58.433c.899 0 1.797.242 2.593.725 10.027 6.082 20.886 10.582 32.273 13.375 1.745.428 3.125 1.759 3.617 3.487l8.583 30.139c.12.423.498.707.938.707h29.126c.441 0 .818-.285.939-.708l8.582-30.138c.492-1.728 1.873-3.059 3.618-3.487 11.388-2.793 22.246-7.293 32.273-13.375 1.537-.932 3.456-.967 5.025-.093l27.39 15.249c.374.208.852.142 1.158-.164l20.6-20.599c.306-.305.372-.784.161-1.163l-15.246-27.385c-.874-1.57-.838-3.488.093-5.025 6.082-10.028 10.582-20.886 13.375-32.273.428-1.745 1.759-3.125 3.487-3.617l30.139-8.583c.422-.12.707-.497.707-.938v-29.127c0-.441-.285-.818-.708-.939l-30.138-8.582c-1.728-.492-3.059-1.873-3.487-3.618-2.794-11.388-7.294-22.247-13.375-32.273-.932-1.536-.968-3.455-.094-5.025l15.249-27.39c.208-.375.142-.853-.164-1.158l-20.599-20.599c-.306-.306-.783-.372-1.163-.161l-27.385 15.246c-1.569.874-3.488.839-5.025-.094-10.027-6.081-20.885-10.581-32.273-13.375-1.745-.428-3.125-1.759-3.617-3.487l-8.582-30.139c-.121-.422-.498-.707-.939-.707h-29.126c-.441 0-.818.284-.938.708l-8.583 30.138c-.492 1.728-1.873 3.059-3.617 3.487-11.388 2.793-22.246 7.293-32.273 13.375-1.537.933-3.456.968-5.025.094l-27.39-15.249c-.375-.208-.853-.142-1.158.164l-20.599 20.599c-.306.305-.372.784-.161 1.164l15.246 27.384c.874 1.57.838 3.488-.093 5.025-6.082 10.027-10.582 20.885-13.375 32.273-.428 1.745-1.759 3.125-3.487 3.618l-30.139 8.582c-.422.121-.707.498-.707.939v29.126c0 .441.284.818.708.938l30.139 8.583c1.728.492 3.059 1.873 3.487 3.617 2.793 11.387 7.293 22.246 13.375 32.273.932 1.537.967 3.455.093 5.025l-15.249 27.39c-.208.374-.142.853.164 1.158l20.599 20.599c.305.306.784.373 1.163.161l27.385-15.246c.755-.421 1.593-.631 2.43-.631zm62.567-18.675c-43.977 0-79.755-35.778-79.755-79.755 0-15.73 4.587-30.958 13.266-44.036 1.527-2.301 4.63-2.928 6.931-1.401s2.928 4.63 1.401 6.931c-7.587 11.434-11.598 24.75-11.598 38.506 0 38.463 31.292 69.755 69.755 69.755s69.756-31.292 69.756-69.755-31.292-69.756-69.756-69.756c-14.517 0-28.446 4.436-40.282 12.827-2.253 1.598-5.374 1.065-6.971-1.187-1.597-2.253-1.066-5.374 1.187-6.971 13.536-9.597 29.465-14.67 46.066-14.67 43.978 0 79.756 35.778 79.756 79.756s-35.778 79.756-79.756 79.756z"/><path d="m109.273 368.73h-15.728c-3.658 0-6.911-2.457-7.913-5.973l-3.858-13.548c-4.937-1.434-9.691-3.404-14.196-5.883l-12.313 6.854c-3.2 1.775-7.234 1.21-9.816-1.372l-11.123-11.123c-2.583-2.582-3.148-6.616-1.374-9.811l6.857-12.317c-2.479-4.504-4.45-9.259-5.883-14.196l-13.548-3.858c-3.517-1.001-5.973-4.255-5.973-7.913v-15.728c0-3.658 2.457-6.911 5.973-7.913l13.548-3.858c1.434-4.938 3.404-9.693 5.883-14.196l-6.854-12.313c-1.776-3.199-1.211-7.233 1.372-9.816l11.123-11.123c2.584-2.582 6.619-3.146 9.812-1.374l12.317 6.857c4.504-2.479 9.259-4.45 14.196-5.883l3.858-13.548c1.001-3.517 4.255-5.974 7.913-5.974h15.728c3.658 0 6.912 2.457 7.913 5.974l3.858 13.547c4.937 1.434 9.692 3.404 14.196 5.883l12.313-6.854c3.199-1.775 7.232-1.211 9.815 1.37l11.124 11.124c2.582 2.582 3.147 6.616 1.375 9.81l-6.858 12.318c2.479 4.504 4.45 9.259 5.883 14.196l13.548 3.858c3.517 1.001 5.973 4.255 5.973 7.913v15.728c0 3.658-2.457 6.911-5.973 7.913l-13.548 3.858c-1.434 4.937-3.404 9.691-5.883 14.196l6.854 12.313c1.776 3.2 1.21 7.234-1.373 9.816l-11.122 11.122c-2.582 2.583-6.616 3.148-9.81 1.375l-12.318-6.858c-4.505 2.479-9.26 4.45-14.196 5.883l-3.858 13.548c-1.003 3.52-4.257 5.976-7.914 5.976zm-14.389-10h13.051l4.268-14.986c.492-1.728 1.873-3.059 3.617-3.487 5.921-1.453 11.567-3.792 16.782-6.955 1.537-.932 3.456-.967 5.025-.093l13.618 7.581 9.228-9.229-7.581-13.617c-.874-1.57-.838-3.488.093-5.025 3.163-5.215 5.502-10.861 6.955-16.782.428-1.745 1.759-3.125 3.487-3.617l14.986-4.268v-13.051l-14.986-4.268c-1.728-.492-3.059-1.873-3.487-3.617-1.453-5.921-3.792-11.568-6.955-16.782-.932-1.537-.967-3.455-.093-5.025l7.581-13.618-9.228-9.229-13.618 7.582c-1.569.875-3.488.838-5.025-.093-5.214-3.163-10.86-5.502-16.782-6.955-1.745-.428-3.125-1.759-3.617-3.487l-4.268-14.986h-13.051l-4.268 14.986c-.492 1.728-1.873 3.059-3.617 3.487-5.922 1.453-11.568 3.792-16.782 6.955-1.537.932-3.455.967-5.025.093l-13.618-7.582-9.228 9.229 7.581 13.618c.874 1.57.838 3.489-.094 5.025-3.162 5.213-5.501 10.859-6.955 16.782-.428 1.745-1.759 3.125-3.487 3.617l-14.986 4.268v13.051l14.986 4.268c1.728.492 3.059 1.873 3.487 3.617 1.453 5.922 3.792 11.568 6.955 16.782.932 1.536.967 3.455.093 5.025l-7.581 13.617 9.228 9.229 13.618-7.581c1.57-.874 3.488-.838 5.025.093 5.215 3.163 10.861 5.502 16.782 6.955 1.745.428 3.125 1.759 3.617 3.487zm84.817-83.161h.01zm-.006-.001c.002 0 .003.001.005.001z"/><path d="m101.409 312.521c-16.979 0-30.793-13.813-30.793-30.793s13.813-30.793 30.793-30.793 30.793 13.813 30.793 30.793c0 16.979-13.813 30.793-30.793 30.793zm0-51.587c-11.465 0-20.793 9.328-20.793 20.793s9.328 20.793 20.793 20.793 20.793-9.328 20.793-20.793-9.328-20.793-20.793-20.793z"/><path d="m213.18 220.617h-16.937c-3.767 0-7.119-2.53-8.15-6.153l-4.213-14.795c-5.431-1.56-10.658-3.726-15.6-6.465l-13.445 7.485c-3.296 1.829-7.452 1.247-10.111-1.413l-11.979-11.979c-2.66-2.66-3.242-6.815-1.416-10.105l7.488-13.451c-2.739-4.942-4.905-10.169-6.465-15.6l-14.795-4.213c-3.623-1.032-6.153-4.384-6.153-8.151v-16.937c0-3.767 2.53-7.119 6.153-8.15l14.795-4.213c1.56-5.431 3.726-10.658 6.465-15.6l-7.485-13.445c-1.829-3.296-1.247-7.452 1.413-10.111l11.979-11.979c2.66-2.66 6.816-3.242 10.105-1.416l13.451 7.488c4.942-2.739 10.169-4.905 15.6-6.465l4.213-14.795c1.032-3.623 4.383-6.153 8.15-6.153h16.937c3.767 0 7.119 2.53 8.151 6.153l4.213 14.795c5.431 1.56 10.658 3.726 15.6 6.465l13.445-7.485c3.296-1.829 7.452-1.247 10.111 1.413l11.979 11.979c2.66 2.66 3.242 6.815 1.416 10.105l-7.488 13.451c2.739 4.942 4.905 10.169 6.465 15.6l14.795 4.213c3.623 1.032 6.153 4.383 6.153 8.15v16.937c0 3.767-2.53 7.119-6.153 8.151l-14.795 4.213c-1.56 5.431-3.726 10.658-6.465 15.6l7.485 13.445c1.829 3.296 1.247 7.452-1.413 10.111l-11.979 11.978c-2.659 2.66-6.815 3.241-10.105 1.416l-13.451-7.488c-4.942 2.739-10.169 4.905-15.6 6.465l-4.213 14.795c-1.031 3.623-4.383 6.154-8.151 6.154zm-15.785-10h14.635l4.675-16.417c.492-1.728 1.873-3.059 3.618-3.487 6.416-1.574 12.532-4.109 18.18-7.534 1.537-.933 3.456-.968 5.025-.094l14.918 8.306 10.348-10.348-8.306-14.918c-.874-1.57-.838-3.489.094-5.025 3.425-5.647 5.96-11.764 7.534-18.18.428-1.745 1.759-3.125 3.487-3.618l16.417-4.675v-14.635l-16.417-4.675c-1.728-.492-3.059-1.873-3.487-3.618-1.574-6.416-4.109-12.532-7.534-18.18-.932-1.537-.968-3.455-.094-5.025l8.306-14.918-10.348-10.348-14.918 8.306c-1.57.874-3.489.838-5.025-.094-5.647-3.425-11.764-5.96-18.18-7.534-1.745-.428-3.125-1.759-3.618-3.487l-4.675-16.418h-14.635l-4.675 16.417c-.492 1.728-1.873 3.059-3.618 3.487-6.416 1.574-12.532 4.109-18.18 7.534-1.537.933-3.456.967-5.025.094l-14.918-8.306-10.348 10.348 8.306 14.918c.874 1.57.838 3.489-.094 5.025-3.425 5.647-5.96 11.764-7.534 18.18-.428 1.745-1.759 3.125-3.487 3.618l-16.417 4.675v14.635l16.417 4.675c1.728.492 3.059 1.873 3.487 3.618 1.574 6.416 4.109 12.532 7.534 18.18.932 1.537.968 3.455.094 5.025l-8.306 14.918 10.348 10.348 14.918-8.306c1.57-.874 3.489-.839 5.025.094 5.647 3.425 11.764 5.96 18.18 7.534 1.745.428 3.125 1.759 3.618 3.487zm7.317-43.957c-5.272 0-10.395-1.029-15.227-3.059-2.546-1.069-3.743-4-2.674-6.546 1.07-2.546 4.001-3.742 6.546-2.674 3.6 1.512 7.42 2.278 11.355 2.278 16.184 0 29.351-13.167 29.351-29.351s-13.167-29.351-29.351-29.351-29.351 13.167-29.351 29.351c0 3.461.596 6.848 1.771 10.066.948 2.594-.387 5.464-2.981 6.412-2.594.95-5.464-.387-6.412-2.981-1.579-4.321-2.379-8.862-2.379-13.497 0-21.698 17.653-39.351 39.351-39.351s39.351 17.653 39.351 39.351c0 21.697-17.652 39.352-39.35 39.352z"/></g><path d="m317.387 354.145c-1.277 0-2.555-.487-3.53-1.462l-12.016-12.016c-1.95-1.949-1.95-5.11 0-7.06l12.016-12.016c1.948-1.949 5.111-1.949 7.059 0 1.95 1.95 1.95 5.11 0 7.06l-8.485 8.486 8.485 8.486c1.95 1.95 1.95 5.11 0 7.06-.974.974-2.252 1.462-3.529 1.462z" fill="#2d58e0"/><path d="m364.074 354.145c-1.277 0-2.555-.487-3.53-1.462-1.95-1.95-1.95-5.11 0-7.06l8.485-8.486-8.485-8.486c-1.95-1.95-1.95-5.11 0-7.06 1.948-1.949 5.111-1.949 7.059 0l12.016 12.016c1.95 1.95 1.95 5.11 0 7.06l-12.016 12.016c-.974.974-2.252 1.462-3.529 1.462z" fill="#2d58e0"/><path d="m333.941 354.145c-.832 0-1.674-.208-2.449-.646-2.401-1.356-3.249-4.401-1.892-6.802l13.57-24.032c1.355-2.4 4.401-3.248 6.801-1.892 2.401 1.356 3.249 4.401 1.892 6.802l-13.57 24.032c-.919 1.625-2.61 2.538-4.352 2.538z" fill="#2d58e0"/><path d="m152.971 412.059c-1.28 0-2.559-.488-3.536-1.464l-11-11c-1.953-1.953-1.953-5.119 0-7.071l11-11c.938-.938 2.209-1.464 3.536-1.464s2.598.527 3.536 1.464l11 11c.938.938 1.464 2.209 1.464 3.536s-.527 2.598-1.464 3.536l-11 11c-.977.975-2.257 1.463-3.536 1.463zm-3.93-16 3.929 3.929 3.929-3.929-3.929-3.929z" fill="#6583fe"/><path d="m352.509 148.314c-2.761 0-5-2.239-5-5 0-3.309-2.692-6-6-6-2.761 0-5-2.239-5-5s2.239-5 5-5c3.309 0 6-2.692 6-6 0-2.761 2.239-5 5-5s5 2.239 5 5c0 3.309 2.691 6 6 6 2.761 0 5 2.239 5 5s-2.239 5-5 5c-3.309 0-6 2.691-6 6 0 2.761-2.239 5-5 5z" fill="#97ffd2"/><path d="m183.412 461.646c-2.761 0-5-2.239-5-5 0-3.309-2.692-6-6-6-2.761 0-5-2.239-5-5s2.239-5 5-5c3.309 0 6-2.691 6-6 0-2.761 2.239-5 5-5s5 2.239 5 5c0 3.309 2.691 6 6 6 2.761 0 5 2.239 5 5s-2.239 5-5 5c-3.309 0-6 2.692-6 6 0 2.761-2.238 5-5 5z" fill="#ff7eb8"/><path d="m75.616 172.956c-2.761 0-5-2.239-5-5 0-3.309-2.692-6-6-6-2.761 0-5-2.239-5-5s2.239-5 5-5c3.309 0 6-2.692 6-6 0-2.761 2.239-5 5-5s5 2.239 5 5c0 3.309 2.692 6 6 6 2.761 0 5 2.239 5 5s-2.239 5-5 5c-3.309 0-6 2.692-6 6 0 2.761-2.239 5-5 5z" fill="#ff7eb8"/></g></svg>