<svg id="Capa_1" enable-background="new 0 0 512 512" height="512" viewBox="0 0 512 512" width="512" xmlns="http://www.w3.org/2000/svg" xmlns:xlink="http://www.w3.org/1999/xlink"><linearGradient id="SVGID_1_" gradientUnits="userSpaceOnUse" x1="457.223" x2="-66.251" y1="398.78" y2="83.796"><stop offset=".0023" stop-color="#ffc599"/><stop offset=".992" stop-color="#ffe8dc" stop-opacity="0"/></linearGradient><path d="m419.843 204.806c1.055-7.758 1.571-15.687 1.509-23.748-.692-90.025-74.256-163.486-164.281-164.057-91.815-.581-166.428 73.673-166.428 165.354 0 7.615.516 15.109 1.513 22.45 4.043 29.747-9.887 59.143-35.212 75.263-35.611 22.668-56.944 51.54-56.944 82.98 0 72.876 114.615 131.954 256 131.954s256-59.078 256-131.954c0-31.44-21.334-60.312-56.946-82.98-25.325-16.12-39.254-45.516-35.211-75.262z" fill="url(#SVGID_1_)"/><path d="m431.934 164.235c10.546-12.117 16.945-27.938 16.945-45.263 0-38.108-30.892-69-69-69-20.976 0-39.751 9.372-52.406 24.143-24.297-9.713-50.809-15.064-78.573-15.064-116.974 0-211.8 94.826-211.8 211.8s94.826 211.799 211.8 211.799 211.8-94.826 211.8-211.799c-.001-38.876-10.485-75.3-28.766-106.616z" fill="#00c" opacity=".1"/><circle cx="248.9" cy="250.228" fill="#6c6cff" r="211.799"/><path d="m436.79 152.388c-12.44 18.1-33.29 29.97-56.91 29.97-38.11 0-69-30.89-69-69 0-22.53 10.8-42.55 27.52-55.14 42.24 19.72 76.89 52.97 98.39 94.17z" fill="#4d4dff"/><circle cx="248.9" cy="250.228" fill="#fff" r="178.198"/><path d="m410.57 175.168c-9.24 4.6-19.67 7.19-30.69 7.19-38.11 0-69-30.89-69-69 0-9.95 2.11-19.4 5.89-27.95 41.41 17.07 74.98 49.29 93.8 89.76z" fill="#ebebff"/><circle cx="379.88" cy="98.349" fill="#ffab66" r="69"/><circle cx="379.88" cy="98.349" fill="#fff" r="52.063"/><path d="m365.334 118.45h-18.107c-2.122 0-4.012-1.34-4.716-3.341s-.068-4.229 1.586-5.559c5.042-4.05 12.845-11.452 14.405-15.229.6-1.451.505-3.051-.247-4.176-.585-.875-1.455-1.318-2.587-1.318-1.897 0-3.441 1.544-3.441 3.442 0 2.762-2.238 5-5 5s-5-2.238-5-5c0-7.412 6.03-13.442 13.441-13.442 4.479 0 8.452 2.1 10.899 5.76 2.624 3.923 3.063 8.99 1.177 13.555-1.354 3.274-4.398 6.997-7.594 10.308h5.184c2.762 0 5 2.238 5 5s-2.238 5-5 5z" fill="#ff2c2c"/><path d="m394.247 101.852h-14.024c-2.762 0-5-2.238-5-5v-12.936c0-2.762 2.238-5 5-5s5 2.238 5 5v7.936h9.024c2.762 0 5 2.238 5 5s-2.238 5-5 5z" fill="#ff2c2c"/><path d="m395.845 118.362c-2.762 0-5-2.238-5-5v-29.446c0-2.762 2.238-5 5-5s5 2.238 5 5v29.446c0 2.762-2.239 5-5 5z" fill="#ff2c2c"/><path d="m412.533 88.916c-2.762 0-5-2.238-5-5v-6.667c0-2.762 2.238-5 5-5s5 2.238 5 5v6.667c0 2.762-2.238 5-5 5z" fill="#ff2c2c"/><g fill="#00c"><path d="m103.213 101.503c1.234 0 2.472-.455 3.439-1.371 38.569-36.565 89.087-56.703 142.247-56.703 24.261 0 47.961 4.15 70.518 12.335-8.514 12.053-13.538 26.739-13.538 42.586 0 40.804 33.196 74 74 74s74-33.196 74-74-33.196-74-74-74c-21.168 0-40.273 8.948-53.774 23.243-24.632-9.392-50.598-14.164-77.207-14.164-55.731 0-108.692 21.111-149.128 59.445-2.004 1.9-2.088 5.064-.188 7.069.984 1.037 2.307 1.56 3.631 1.56zm276.667-67.153c35.29 0 64 28.71 64 64s-28.71 64-64 64-64-28.71-64-64 28.71-64 64-64z"/><path d="m451.223 172.177c-.994-2.577-3.89-3.858-6.465-2.863-2.576.994-3.858 3.889-2.863 6.465 9.16 23.73 13.805 48.779 13.805 74.45 0 114.029-92.771 206.799-206.8 206.799s-206.799-92.77-206.799-206.799c0-45.735 14.639-89.084 42.333-125.36 1.675-2.195 1.254-5.333-.94-7.009-2.196-1.676-5.333-1.255-7.009.94-29.036 38.035-44.384 83.482-44.384 131.429 0 57.909 22.551 112.353 63.499 153.3 40.947 40.948 95.391 63.499 153.3 63.499s112.353-22.551 153.301-63.499c40.948-40.947 63.499-95.391 63.499-153.3-.001-26.908-4.871-53.168-14.477-78.052z"/><path d="m228.334 304.262h5.331c6.508 0 11.803-5.295 11.803-11.803v-16.457c0-6.508-5.295-11.802-11.803-11.802h-5.331c-6.508 0-11.803 5.294-11.803 11.802v16.457c0 6.508 5.295 11.803 11.803 11.803zm-1.803-28.26c0-.993.809-1.802 1.803-1.802h5.331c.994 0 1.803.809 1.803 1.802v16.457c0 .994-.809 1.803-1.803 1.803h-5.331c-.994 0-1.803-.809-1.803-1.803z"/><path d="m264.135 304.262h5.331c6.508 0 11.803-5.295 11.803-11.803v-16.457c0-6.508-5.295-11.802-11.803-11.802h-5.331c-6.508 0-11.803 5.294-11.803 11.802v16.457c0 6.508 5.295 11.803 11.803 11.803zm-1.803-28.26c0-.993.809-1.802 1.803-1.802h5.331c.994 0 1.803.809 1.803 1.802v16.457c0 .994-.809 1.803-1.803 1.803h-5.331c-.994 0-1.803-.809-1.803-1.803z"/><path d="m143.019 264.2h-5.331c-6.508 0-11.803 5.294-11.803 11.802v16.457c0 6.508 5.295 11.803 11.803 11.803h5.331c6.508 0 11.803-5.295 11.803-11.803v-16.457c-.001-6.508-5.296-11.802-11.803-11.802zm1.802 28.259c0 .994-.809 1.803-1.803 1.803h-5.331c-.994 0-1.803-.809-1.803-1.803v-16.457c0-.993.809-1.802 1.803-1.802h5.331c.994 0 1.803.809 1.803 1.802z"/><path d="m173.488 304.262h5.331c6.508 0 11.803-5.295 11.803-11.803v-16.457c0-6.508-5.295-11.802-11.803-11.802h-5.331c-6.508 0-11.803 5.294-11.803 11.802v16.457c.001 6.508 5.295 11.803 11.803 11.803zm-1.802-28.26c0-.993.809-1.802 1.803-1.802h5.331c.994 0 1.803.809 1.803 1.802v16.457c0 .994-.809 1.803-1.803 1.803h-5.331c-.994 0-1.803-.809-1.803-1.803z"/><path d="m318.979 264.2c-6.508 0-11.803 5.294-11.803 11.802v16.457c0 6.508 5.295 11.803 11.803 11.803h5.332c6.508 0 11.803-5.295 11.803-11.803v-16.457c0-6.508-5.295-11.802-11.803-11.802zm7.135 11.802v16.457c0 .994-.809 1.803-1.803 1.803h-5.332c-.994 0-1.803-.809-1.803-1.803v-16.457c0-.993.809-1.802 1.803-1.802h5.332c.995 0 1.803.809 1.803 1.802z"/><path d="m354.78 304.262h5.332c6.508 0 11.803-5.295 11.803-11.803v-16.457c0-6.508-5.295-11.802-11.803-11.802h-5.332c-6.508 0-11.802 5.294-11.802 11.802v16.457c.001 6.508 5.294 11.803 11.802 11.803zm-1.801-28.26c0-.993.809-1.802 1.802-1.802h5.332c.994 0 1.803.809 1.803 1.802v16.457c0 .994-.809 1.803-1.803 1.803h-5.332c-.993 0-1.802-.809-1.802-1.803z"/><path d="m203.577 286.923c-2.762 0-5 2.238-5 5v.115c0 2.762 2.238 5 5 5s5-2.238 5-5v-.115c0-2.762-2.238-5-5-5z"/><path d="m208.577 276.423c0-2.762-2.238-5-5-5s-5 2.238-5 5v.115c0 2.762 2.238 5 5 5s5-2.238 5-5z"/><path d="m294.223 286.923c-2.762 0-5 2.238-5 5v.115c0 2.762 2.238 5 5 5s5-2.238 5-5v-.115c0-2.762-2.239-5-5-5z"/><path d="m299.223 276.423c0-2.762-2.238-5-5-5s-5 2.238-5 5v.115c0 2.762 2.238 5 5 5s5-2.238 5-5z"/><path d="m182.421 232.235v-36.04c0-6.617-5.383-12-12-12h-17.521c-6.617 0-12 5.383-12 12v36.04c0 6.617 5.383 12 12 12h17.521c6.617 0 12-5.382 12-12zm-31.522 0v-36.04c0-1.103.897-2 2-2h17.521c1.103 0 2 .897 2 2v36.04c0 1.103-.897 2-2 2h-17.521c-1.102 0-2-.897-2-2z"/><path d="m233.014 232.235v-36.04c0-6.617-5.383-12-12-12h-17.521c-6.617 0-12 5.383-12 12v36.04c0 6.617 5.383 12 12 12h17.521c6.617 0 12-5.382 12-12zm-31.522 0v-36.04c0-1.103.897-2 2-2h17.521c1.103 0 2 .897 2 2v36.04c0 1.103-.897 2-2 2h-17.521c-1.102 0-2-.897-2-2z"/><path d="m306.307 232.235v-36.04c0-6.617-5.383-12-12-12h-17.521c-6.617 0-12 5.383-12 12v36.04c0 6.617 5.383 12 12 12h17.521c6.617 0 12-5.382 12-12zm-10 0c0 1.103-.897 2-2 2h-17.521c-1.103 0-2-.897-2-2v-36.04c0-1.103.897-2 2-2h17.521c1.103 0 2 .897 2 2z"/><path d="m356.899 232.235v-36.04c0-6.617-5.383-12-12-12h-17.521c-6.617 0-12 5.383-12 12v36.04c0 6.617 5.383 12 12 12h17.521c6.618 0 12-5.382 12-12zm-31.52 0v-36.04c0-1.103.897-2 2-2h17.521c1.103 0 2 .897 2 2v36.04c0 1.103-.897 2-2 2h-17.521c-1.103 0-2-.897-2-2z"/><path d="m253.899 227.211v-.191c0-2.762-2.238-5-5-5s-5 2.238-5 5v.191c0 2.762 2.238 5 5 5s5-2.238 5-5z"/><path d="m248.899 206.41c2.762 0 5-2.238 5-5v-.191c0-2.762-2.238-5-5-5s-5 2.238-5 5v.191c0 2.762 2.239 5 5 5z"/></g><path d="m261.279 396.319-8.265-11.966c-1.988-2.878-6.24-2.878-8.228 0l-8.265 11.966c-2.502 3.623.091 8.565 4.494 8.565h15.771c4.402 0 6.995-4.943 4.493-8.565z" fill="#ff2c2c"/><path d="m236.52 104.138 8.265 11.966c1.988 2.878 6.24 2.878 8.228 0l8.265-11.966c2.502-3.623-.091-8.565-4.494-8.565h-15.771c-4.402 0-6.995 4.942-4.493 8.565z" fill="#ff2c2c"/><path d="m303.65 360.117c0 2.761-2.238 5-5 5h-99.5c-2.762 0-5-2.239-5-5s2.238-5 5-5h99.5c2.761 0 5 2.239 5 5" fill="#d9d9ff"/><path d="m229.79 344.891h-12.5c-2.762 0-5-2.239-5-5s2.238-5 5-5h12.5c2.762 0 5 2.239 5 5s-2.239 5-5 5z" fill="#d9d9ff"/><path d="m261.15 151.303h-24.5c-2.762 0-5-2.239-5-5s2.238-5 5-5h24.5c2.762 0 5 2.239 5 5s-2.239 5-5 5z" fill="#ffab66"/><path d="m280.51 344.891h-33.5c-2.762 0-5-2.239-5-5s2.238-5 5-5h33.5c2.762 0 5 2.239 5 5s-2.238 5-5 5z" fill="#d9d9ff"/><path d="m94.857 68.219c-1.279 0-2.56-.488-3.535-1.465l-6.465-6.464-6.465 6.464c-1.951 1.953-5.119 1.953-7.07 0-1.953-1.952-1.953-5.118 0-7.07l10-10c1.951-1.953 5.119-1.953 7.07 0l10 10c1.953 1.952 1.953 5.118 0 7.07-.975.976-2.255 1.465-3.535 1.465z" fill="#ff9d33"/><path d="m458.88 414.884c-1.279 0-2.56-.488-3.535-1.465l-6.465-6.464-6.465 6.464c-1.951 1.953-5.119 1.953-7.07 0-1.953-1.952-1.953-5.118 0-7.07l10-10c1.951-1.953 5.119-1.953 7.07 0l10 10c1.953 1.952 1.953 5.118 0 7.07-.976.977-2.256 1.465-3.535 1.465z" fill="#6c6cff"/><path d="m48.903 120.047c-1.279 0-2.56-.488-3.535-1.465-1.953-1.952-1.953-5.118 0-7.07l10-10c1.951-1.953 5.119-1.953 7.07 0 1.953 1.952 1.953 5.118 0 7.07l-10 10c-.975.977-2.255 1.465-3.535 1.465z" fill="#6c6cff"/><path d="m89.857 482.65c-1.279 0-2.56-.488-3.535-1.465-1.953-1.952-1.953-5.118 0-7.07l10-10c1.951-1.953 5.119-1.953 7.07 0 1.953 1.952 1.953 5.118 0 7.07l-10 10c-.975.977-2.255 1.465-3.535 1.465z" fill="#ff6c6c"/><path d="m464.899 149.428c-1.279 0-2.56-.488-3.535-1.465-1.953-1.952-1.953-5.118 0-7.07l10-10c1.951-1.953 5.119-1.953 7.07 0 1.953 1.952 1.953 5.118 0 7.07l-10 10c-.975.976-2.255 1.465-3.535 1.465z" fill="#ff6c6c"/></svg>