<svg id="Capa_1" enable-background="new 0 0 512 512" height="512" viewBox="0 0 512 512" width="512" xmlns="http://www.w3.org/2000/svg" xmlns:xlink="http://www.w3.org/1999/xlink"><linearGradient id="SVGID_1_" gradientUnits="userSpaceOnUse" x1="68.572" x2="395.005" y1="430.558" y2="41.53"><stop offset="0" stop-color="#d2deff" stop-opacity="0"/><stop offset=".6852" stop-color="#d2deff"/></linearGradient><path d="m16.074 302.88c18.727 64.003 72.707 194.564 163.922 182.845 91.486-11.755 55.758-129.725 139.508-145.894 36.867-7.118 61.857 56.689 98.806 54.704 47.588-2.557 71.81-49.663 85.108-89.264 28.197-83.968-14.029-226.352-112.858-251.011-86.244-21.519-96.332 83.855-171.322 53.248-42.149-17.203-37.938-68.576-89.272-78.942-155.299-31.36-138.811 189.15-113.892 274.314z" fill="url(#SVGID_1_)"/><path d="m450.425 104.768h-388.859c-7.139 0-12.926 5.787-12.926 12.926v270.364c0 7.139 5.787 12.926 12.926 12.926h152.283l-4.928 23.947c-1.992 9.681-8.692 17.377-17.412 20.928-4.321 1.76-7.254 5.827-7.254 10.493v.2c0 6.194 5.022 11.216 11.216 11.216h121.05c6.194 0 11.216-5.022 11.216-11.216v-.2c0-4.666-2.933-8.733-7.254-10.493-8.719-3.551-15.419-11.247-17.412-20.928l-4.928-23.947h152.283c7.139 0 12.926-5.787 12.926-12.926v-270.364c-.001-7.139-5.788-12.926-12.927-12.926z" fill="#6583fe" opacity=".2"/><path d="m195.471 447.768h121.05c6.194 0 11.216-5.022 11.216-11.216v-.2c0-4.666-2.933-8.733-7.254-10.493-8.719-3.551-15.419-11.247-17.412-20.928l-6.611-32.121h-80.929l-6.611 32.121c-1.992 9.681-8.692 17.377-17.412 20.928-4.321 1.76-7.254 5.827-7.254 10.493v.2c.001 6.195 5.023 11.216 11.217 11.216z" fill="#b7c5ff"/><path d="m301.856 398.988h-91.72l5.4-26.18h80.92z" fill="#9fb0fe"/><path d="m450.425 380.984h-388.859c-7.139 0-12.926-5.787-12.926-12.926v-270.364c0-7.139 5.787-12.926 12.926-12.926h388.859c7.139 0 12.926 5.787 12.926 12.926v270.364c0 7.139-5.787 12.926-12.926 12.926z" fill="#8399fe"/><path d="m205.998 123.268h257.36v204.93h-257.36z" fill="#fff"/><path d="m463.359 182.33v145.87h-135.87l67.94-72.93z" fill="#97ffd2"/><path d="m463.359 328.2h-135.87l67.94-72.93z" fill="#02ffb3"/><path d="m463.358 217.868v14.14l-73.61 73.62c-1.96 1.95-5.12 1.95-7.08 0-1.95-1.96-1.95-5.12 0-7.08z" fill="#ffa8cf"/><path d="m92.996 84.768h-31.43c-7.139 0-12.926 5.787-12.926 12.926v270.364c0 7.139 5.787 12.926 12.926 12.926h31.429v-296.216z" fill="#6583fe"/><path d="m463.351 123.268v-25.574c0-7.139-5.787-12.926-12.926-12.926h-388.859c-7.139 0-12.926 5.787-12.926 12.926v25.574z" fill="#2d58e0"/><path d="m48.641 328.197v39.862c0 7.139 5.787 12.926 12.926 12.926h388.859c7.139 0 12.926-5.787 12.926-12.926v-39.862z" fill="#d2deff"/><path d="m463.351 299.198c2.762 0 5-2.239 5-5v-196.504c0-9.884-8.041-17.926-17.926-17.926h-388.859c-9.884 0-17.926 8.042-17.926 17.926v270.364c0 9.884 8.042 17.926 17.926 17.926h146.149l-3.692 17.938c-1.609 7.819-6.993 14.289-14.4 17.306-.012.005-.024.011-.036.016-.021.009-.041.019-.061.028-6.242 2.587-10.271 8.493-10.271 15.08v.2c0 8.942 7.274 16.216 16.216 16.216h121.049c8.941 0 16.216-7.274 16.216-16.216v-.2c0-6.585-4.026-12.489-10.265-15.076-.024-.01-.047-.022-.071-.032-.011-.005-.021-.01-.032-.015-7.407-3.018-12.791-9.487-14.4-17.306l-3.691-17.938h146.148c9.885 0 17.926-8.042 17.926-17.926v-39.86c0-2.761-2.238-5-5-5l-380.709-.001c-2.761 0-5 2.239-5 5s2.239 5 5 5l375.709.001v34.86c0 4.37-3.556 7.926-7.926 7.926h-388.859c-4.37 0-7.926-3.556-7.926-7.926v-270.365c0-4.37 3.556-7.926 7.926-7.926h388.858c4.37 0 7.926 3.556 7.926 7.926v196.503c.001 2.762 2.239 5.001 5.001 5.001zm-140.615 137.354c0 3.428-2.788 6.216-6.216 6.216h-121.049c-3.428 0-6.216-2.789-6.216-6.216v-.2c0-2.271 1.309-4.346 3.388-5.493h126.706c2.078 1.146 3.388 3.221 3.388 5.493v.2zm-24.563-30.613c1.15 5.587 3.66 10.686 7.208 14.92h-98.77c3.548-4.234 6.058-9.333 7.208-14.921l4.106-19.954h76.142z" fill="#2626bc"/><path d="m174.977 198.268h-53.285c-2.761 0-5-2.239-5-5v-36.573c0-2.761 2.239-5 5-5h53.285c2.761 0 5 2.239 5 5v36.573c0 2.762-2.239 5-5 5z" fill="#9fb0fe"/><path d="m179.977 168.768h-63.285v-12.073c0-2.761 2.239-5 5-5h53.285c2.761 0 5 2.239 5 5z" fill="#4369fd"/><path d="m174.977 289.842h-53.285c-2.761 0-5-2.239-5-5v-81.573c0-2.761 2.239-5 5-5h53.285c2.761 0 5 2.239 5 5v81.573c0 2.761-2.239 5-5 5z" fill="#9fb0fe"/><path d="m179.977 215.342h-63.285v-12.073c0-2.761 2.239-5 5-5h53.285c2.761 0 5 2.239 5 5z" fill="#4369fd"/><path d="m137.716 442.859c-2.761 0-5-2.239-5-5 0-3.309-2.692-6-6-6-2.761 0-5-2.239-5-5s2.239-5 5-5c3.309 0 6-2.691 6-6 0-2.761 2.239-5 5-5s5 2.239 5 5c0 3.309 2.691 6 6 6 2.761 0 5 2.239 5 5s-2.239 5-5 5c-3.308 0-6 2.691-6 6 0 2.762-2.238 5-5 5z" fill="#01eca5"/><path d="m377.075 460.055c-2.762 0-5-2.239-5-5 0-3.309-2.691-6-6-6-2.762 0-5-2.239-5-5s2.238-5 5-5c3.309 0 6-2.691 6-6 0-2.761 2.238-5 5-5s5 2.239 5 5c0 3.309 2.691 6 6 6 2.762 0 5 2.239 5 5s-2.238 5-5 5c-3.309 0-6 2.691-6 6 0 2.761-2.238 5-5 5z" fill="#ff7eb8"/><path d="m138.663 59.231c-1.28 0-2.559-.488-3.536-1.464-1.953-1.953-1.953-5.119 0-7.071l10-10c1.953-1.952 5.118-1.952 7.071 0 1.953 1.953 1.953 5.119 0 7.071l-10 10c-.976.976-2.256 1.464-3.535 1.464z" fill="#6583fe"/><path d="m412.282 433.055c-1.279 0-2.56-.488-3.535-1.464-1.953-1.953-1.953-5.119 0-7.071l10-10c1.951-1.952 5.119-1.952 7.07 0 1.953 1.953 1.953 5.119 0 7.071l-10 10c-.975.976-2.255 1.464-3.535 1.464z" fill="#6583fe"/><path d="m168.886 283.075 5.233 15.699c.804 2.411 3.864 3.133 5.661 1.336l10.466-10.466c1.797-1.797 1.075-4.857-1.336-5.661l-15.699-5.233c-2.673-.89-5.216 1.653-4.325 4.325z" fill="#2d58e0"/><path d="m262.326 151.76-31.991 43.845 95.973 104.102 95.974-104.102-31.991-43.845z" fill="#02ffb3"/><path d="m230.335 195.605 95.973 104.102 95.974-104.102z" fill="#01eca5"/><path d="m326.308 195.605v104.102l95.974-104.102z" fill="#02ffb3"/><path d="m262.326 151.76-31.991 43.845h63.982z" fill="#97ffd2"/><path d="m326.308 151.76-31.991 43.845h63.982z" fill="#dcfdee"/><path d="m326.308 299.707-31.991-104.102h63.982z" fill="#97ffd2"/><path d="m390.291 151.76-31.992 43.845h63.983z" fill="#01eca5"/><path d="m240.063 287.231c-2.761 0-5-2.239-5-5v-.115c0-2.761 2.239-5 5-5s5 2.239 5 5v.115c0 2.762-2.239 5-5 5z" fill="#02ffb3"/><path d="m254.662 287.231c-2.761 0-5-2.239-5-5v-.115c0-2.761 2.239-5 5-5s5 2.239 5 5v.115c0 2.762-2.238 5-5 5z" fill="#02ffb3"/><path d="m306.922 270.263h-66.52c-2.762 0-5-2.239-5-5s2.238-5 5-5h66.52c2.762 0 5 2.239 5 5s-2.238 5-5 5z" fill="#ffa8cf"/><path d="m282.031 64.231c-1.279 0-2.56-.488-3.535-1.464-1.953-1.953-1.953-5.119 0-7.071l10-10c1.951-1.952 5.119-1.952 7.07 0 1.953 1.953 1.953 5.119 0 7.071l-10 10c-.975.976-2.255 1.464-3.535 1.464z" fill="#01eca5"/></svg>