<svg id="Capa_1" enable-background="new 0 0 512 512" height="512" viewBox="0 0 512 512" width="512" xmlns="http://www.w3.org/2000/svg" xmlns:xlink="http://www.w3.org/1999/xlink"><linearGradient id="SVGID_1_" gradientTransform="matrix(0 -1 1 0 532 -2148)" gradientUnits="userSpaceOnUse" x1="-2144.383" x2="-2628.841" y1="380.261" y2="-974.137"><stop offset=".0023" stop-color="#e2ccff"/><stop offset=".2618" stop-color="#e5d1ff" stop-opacity=".74"/><stop offset=".5825" stop-color="#eee0ff" stop-opacity=".419"/><stop offset=".9344" stop-color="#fcf9ff" stop-opacity=".066"/><stop offset="1" stop-color="#fff" stop-opacity="0"/></linearGradient><g><g><path d="m180.252.001c-100.63.534-151.151 173.599-170.006 262.559-18.855 88.961.847 271.458 147.096 247.249 23.64-3.913 29.158-4.715 48.645-14.497 34.685-17.411 75.734-29.661 112.83-33.359 15.211-1.516 34.445-6.538 44.624-8.368 81.626-14.679 164.928-93.76 139.709-176.622-18.939-62.228-74.428-87.278-129.998-83.834-30.518 1.891-62.997-16.011-69.51-35.788-21.214-64.417-45.612-157.752-123.39-157.34z" fill="url(#SVGID_1_)"/></g><g><g fill="#590bb2" opacity=".1"><path d="m455.314 291.487h-10.396v-46.549c0-2.761-2.238-5-5-5s-5 2.239-5 5v46.549h-357.837v-34.478l.814.814c.976.976 2.256 1.464 3.535 1.464s2.56-.488 3.535-1.464c1.953-1.953 1.953-5.119 0-7.071l-9.35-9.35c-1.951-1.952-5.119-1.952-7.07 0l-9.35 9.35c-1.953 1.953-1.953 5.119 0 7.071 1.951 1.952 5.119 1.952 7.07 0l.814-.814v34.478h-10.394c-4.981 0-9.019 4.038-9.019 9.019v166.546c0 4.981 4.038 9.019 9.019 9.019h398.629c4.981 0 9.019-4.038 9.019-9.019v-166.546c0-4.981-4.038-9.019-9.019-9.019z"/><path d="m72.081 225.938c2.762 0 5-2.239 5-5v-57.187h23.919v53.22c0 5.52 4.48 10 10 10h203.5l8.41 24.74c2.66 7.82 13.72 7.82 16.38 0l8.42-24.74h53.29c5.52 0 10-4.48 10-10v-53.22h23.919v45.116l-.814-.814c-1.951-1.952-5.119-1.952-7.07 0-1.953 1.953-1.953 5.119 0 7.071l9.35 9.35c.938.938 2.209 1.464 3.535 1.464s2.598-.527 3.535-1.464l9.35-9.35c1.953-1.953 1.953-5.119 0-7.071-1.951-1.952-5.119-1.952-7.07 0l-.814.814v-50.116c0-2.761-2.238-5-5-5h-28.921v-56.78c0-5.52-4.48-10-10-10h-290c-5.52 0-10 4.48-10 10v56.78h-28.919c-2.762 0-5 2.239-5 5v62.187c0 2.761 2.238 5 5 5z"/></g><path d="m434.424 36.307h-3v-3c0-2.761-2.238-5-5-5s-5 2.239-5 5v3h-3c-2.762 0-5 2.239-5 5s2.238 5 5 5h3v3c0 2.761 2.238 5 5 5s5-2.239 5-5v-3h3c2.762 0 5-2.239 5-5s-2.238-5-5-5z" fill="#c182f9"/><path d="m43.667 192.896h-3v-3c0-2.761-2.238-5-5-5s-5 2.239-5 5v3h-3c-2.762 0-5 2.239-5 5s2.238 5 5 5h3v3c0 2.761 2.238 5 5 5s5-2.239 5-5v-3h3c2.762 0 5-2.239 5-5s-2.238-5-5-5z" fill="#c182f9"/><path d="m455.919 85.307c-1.279 0-2.56-.488-3.535-1.464l-4.465-4.464-4.465 4.464c-1.951 1.952-5.119 1.952-7.07 0-1.953-1.953-1.953-5.119 0-7.071l8-8c1.951-1.952 5.119-1.952 7.07 0l8 8c1.953 1.953 1.953 5.119 0 7.071-.975.975-2.256 1.464-3.535 1.464z" fill="#ffa052"/><g><path d="m115.721 490.667c-1.279 0-2.56-.488-3.535-1.464l-4.465-4.464-4.465 4.464c-1.951 1.952-5.119 1.952-7.07 0-1.953-1.953-1.953-5.119 0-7.071l8-8c1.951-1.952 5.119-1.952 7.07 0l8 8c1.953 1.953 1.953 5.119 0 7.071-.976.975-2.256 1.464-3.535 1.464z" fill="#fdd250"/><path d="m412.279 486.667c-1.279 0-2.56-.488-3.535-1.464l-4.465-4.464-4.465 4.464c-1.951 1.952-5.119 1.952-7.07 0-1.953-1.953-1.953-5.119 0-7.071l8-8c1.951-1.952 5.119-1.952 7.07 0l8 8c1.953 1.953 1.953 5.119 0 7.071-.975.975-2.255 1.464-3.535 1.464z" fill="#c182f9"/></g><g><g><path d="m455.315 449.071h-398.63c-4.981 0-9.019-4.038-9.019-9.019v-166.546c0-4.981 4.038-9.019 9.019-9.019h398.629c4.981 0 9.019 4.038 9.019 9.019v166.546c0 4.981-4.037 9.019-9.018 9.019z" fill="#efebff"/><g fill="#c182f9"><path d="m464.333 306.875v-33.369c0-4.981-4.038-9.019-9.019-9.019h-398.628c-4.981 0-9.019 4.038-9.019 9.019v33.369z"/><g><path d="m94.794 351.63h-18.435c-2.564 0-4.642-2.078-4.642-4.642v-18.435c0-2.564 2.078-4.642 4.642-4.642h18.435c2.564 0 4.642 2.078 4.642 4.642v18.435c0 2.564-2.078 4.642-4.642 4.642z"/><path d="m128.879 351.63h-18.435c-2.564 0-4.642-2.078-4.642-4.642v-18.435c0-2.564 2.078-4.642 4.642-4.642h18.435c2.564 0 4.642 2.078 4.642 4.642v18.435c0 2.564-2.078 4.642-4.642 4.642z"/><path d="m162.963 351.63h-18.435c-2.564 0-4.642-2.078-4.642-4.642v-18.435c0-2.564 2.078-4.642 4.642-4.642h18.435c2.564 0 4.642 2.078 4.642 4.642v18.435c.001 2.564-2.078 4.642-4.642 4.642z"/><path d="m197.048 351.63h-18.435c-2.564 0-4.642-2.078-4.642-4.642v-18.435c0-2.564 2.078-4.642 4.642-4.642h18.435c2.564 0 4.642 2.078 4.642 4.642v18.435c0 2.564-2.078 4.642-4.642 4.642z"/><path d="m231.133 351.63h-18.435c-2.564 0-4.642-2.078-4.642-4.642v-18.435c0-2.564 2.078-4.642 4.642-4.642h18.435c2.564 0 4.642 2.078 4.642 4.642v18.435c0 2.564-2.078 4.642-4.642 4.642z"/><path d="m265.218 351.63h-18.435c-2.564 0-4.642-2.078-4.642-4.642v-18.435c0-2.564 2.078-4.642 4.642-4.642h18.435c2.564 0 4.642 2.078 4.642 4.642v18.435c0 2.564-2.079 4.642-4.642 4.642z"/><path d="m299.302 351.63h-18.435c-2.564 0-4.642-2.078-4.642-4.642v-18.435c0-2.564 2.078-4.642 4.642-4.642h18.435c2.564 0 4.642 2.078 4.642 4.642v18.435c.001 2.564-2.078 4.642-4.642 4.642z"/><path d="m333.387 351.63h-18.435c-2.564 0-4.642-2.078-4.642-4.642v-18.435c0-2.564 2.078-4.642 4.642-4.642h18.435c2.564 0 4.642 2.078 4.642 4.642v18.435c0 2.564-2.078 4.642-4.642 4.642z"/><path d="m367.472 351.63h-18.435c-2.564 0-4.642-2.078-4.642-4.642v-18.435c0-2.564 2.078-4.642 4.642-4.642h18.435c2.564 0 4.642 2.078 4.642 4.642v18.435c0 2.564-2.079 4.642-4.642 4.642z"/><path d="m401.556 351.63h-18.435c-2.564 0-4.642-2.078-4.642-4.642v-18.435c0-2.564 2.078-4.642 4.642-4.642h18.435c2.564 0 4.642 2.078 4.642 4.642v18.435c.001 2.564-2.078 4.642-4.642 4.642z"/><path d="m435.641 351.63h-18.435c-2.564 0-4.642-2.078-4.642-4.642v-18.435c0-2.564 2.078-4.642 4.642-4.642h18.435c2.564 0 4.642 2.078 4.642 4.642v18.435c0 2.564-2.078 4.642-4.642 4.642z"/></g><g><path d="m131.2 388.557h-54.841c-2.564 0-4.642-2.078-4.642-4.642v-18.435c0-2.564 2.078-4.642 4.642-4.642h54.841c2.564 0 4.642 2.078 4.642 4.642v18.435c0 2.564-2.078 4.642-4.642 4.642z"/><path d="m162.963 388.557h-18.435c-2.564 0-4.642-2.078-4.642-4.642v-18.435c0-2.564 2.078-4.642 4.642-4.642h18.435c2.564 0 4.642 2.078 4.642 4.642v18.435c.001 2.564-2.078 4.642-4.642 4.642z"/><path d="m197.048 388.557h-18.435c-2.564 0-4.642-2.078-4.642-4.642v-18.435c0-2.564 2.078-4.642 4.642-4.642h18.435c2.564 0 4.642 2.078 4.642 4.642v18.435c0 2.564-2.078 4.642-4.642 4.642z"/><path d="m231.133 388.557h-18.435c-2.564 0-4.642-2.078-4.642-4.642v-18.435c0-2.564 2.078-4.642 4.642-4.642h18.435c2.564 0 4.642 2.078 4.642 4.642v18.435c0 2.564-2.078 4.642-4.642 4.642z"/><path d="m265.218 388.557h-18.435c-2.564 0-4.642-2.078-4.642-4.642v-18.435c0-2.564 2.078-4.642 4.642-4.642h18.435c2.564 0 4.642 2.078 4.642 4.642v18.435c0 2.564-2.079 4.642-4.642 4.642z"/><path d="m299.302 388.557h-18.435c-2.564 0-4.642-2.078-4.642-4.642v-18.435c0-2.564 2.078-4.642 4.642-4.642h18.435c2.564 0 4.642 2.078 4.642 4.642v18.435c.001 2.564-2.078 4.642-4.642 4.642z"/><path d="m333.387 388.557h-18.435c-2.564 0-4.642-2.078-4.642-4.642v-18.435c0-2.564 2.078-4.642 4.642-4.642h18.435c2.564 0 4.642 2.078 4.642 4.642v18.435c0 2.564-2.078 4.642-4.642 4.642z"/><path d="m367.472 388.557h-18.435c-2.564 0-4.642-2.078-4.642-4.642v-18.435c0-2.564 2.078-4.642 4.642-4.642h18.435c2.564 0 4.642 2.078 4.642 4.642v18.435c0 2.564-2.079 4.642-4.642 4.642z"/><path d="m401.556 388.557h-18.435c-2.564 0-4.642-2.078-4.642-4.642v-18.435c0-2.564 2.078-4.642 4.642-4.642h18.435c2.564 0 4.642 2.078 4.642 4.642v18.435c.001 2.564-2.078 4.642-4.642 4.642z"/><path d="m435.641 388.557h-18.435c-2.564 0-4.642-2.078-4.642-4.642v-18.435c0-2.564 2.078-4.642 4.642-4.642h18.435c2.564 0 4.642 2.078 4.642 4.642v18.435c0 2.564-2.078 4.642-4.642 4.642z"/></g><g><path d="m94.794 425.484h-18.435c-2.564 0-4.642-2.078-4.642-4.642v-18.435c0-2.564 2.078-4.642 4.642-4.642h18.435c2.564 0 4.642 2.078 4.642 4.642v18.435c0 2.563-2.078 4.642-4.642 4.642z"/><path d="m128.879 425.484h-18.435c-2.564 0-4.642-2.078-4.642-4.642v-18.435c0-2.564 2.078-4.642 4.642-4.642h18.435c2.564 0 4.642 2.078 4.642 4.642v18.435c0 2.563-2.078 4.642-4.642 4.642z"/><path d="m162.963 425.484h-18.435c-2.564 0-4.642-2.078-4.642-4.642v-18.435c0-2.564 2.078-4.642 4.642-4.642h18.435c2.564 0 4.642 2.078 4.642 4.642v18.435c.001 2.563-2.078 4.642-4.642 4.642z"/><path d="m333.387 425.484h-154.774c-2.564 0-4.642-2.078-4.642-4.642v-18.435c0-2.564 2.078-4.642 4.642-4.642h154.774c2.564 0 4.642 2.078 4.642 4.642v18.435c0 2.563-2.078 4.642-4.642 4.642z"/><path d="m367.472 425.484h-18.435c-2.564 0-4.642-2.078-4.642-4.642v-18.435c0-2.564 2.078-4.642 4.642-4.642h18.435c2.564 0 4.642 2.078 4.642 4.642v18.435c0 2.563-2.079 4.642-4.642 4.642z"/><path d="m401.556 425.484h-18.435c-2.564 0-4.642-2.078-4.642-4.642v-18.435c0-2.564 2.078-4.642 4.642-4.642h18.435c2.564 0 4.642 2.078 4.642 4.642v18.435c.001 2.563-2.078 4.642-4.642 4.642z"/><path d="m435.641 425.484h-18.435c-2.564 0-4.642-2.078-4.642-4.642v-18.435c0-2.564 2.078-4.642 4.642-4.642h18.435c2.564 0 4.642 2.078 4.642 4.642v18.435c0 2.563-2.078 4.642-4.642 4.642z"/></g></g></g><g fill="#9526dd"><circle cx="77.019" cy="285.681" r="5.266"/><circle cx="94.134" cy="285.681" r="5.266"/></g></g><g><path d="m217 59.971h184c5.52 0 10 4.48 10 10v120c0 5.52-4.48 10-10 10h-53.29l-8.42 24.74c-2.66 7.82-13.72 7.82-16.38 0l-8.41-24.74h-203.5c-5.52 0-10-4.48-10-10v-120c0-5.52 4.48-10 10-10h19.667" fill="#fff"/><path d="m216.25 84.491c0 23.34-18.92 42.26-42.25 42.26-23.34 0-42.26-18.92-42.26-42.26 0-9.14 2.91-17.61 7.85-24.52h68.81c4.94 6.91 7.85 15.38 7.85 24.52z" fill="#efebff"/><g><g><g><g fill="#fdd250"><path d="m227 165.756h-90.045c-2.611 0-4.943 1.909-5.191 4.508-.285 2.982 2.053 5.492 4.976 5.492h90.26c2.761 0 5-2.239 5-5 0-2.761-2.239-5-5-5z"/><path d="m375.045 165.756h-122.545c-2.761 0-5 2.239-5 5 0 2.761 2.239 5 5 5h122.76c2.924 0 5.261-2.51 4.976-5.492-.248-2.599-2.58-4.508-5.191-4.508z"/></g><g><path d="m136.74 146.254h238.52c2.762 0 5 2.239 5 5s-2.238 5-5 5h-238.52c-2.762 0-5-2.239-5-5s2.239-5 5-5z" fill="#ffa052"/></g><g><path d="m323.824 126.751h51.436c2.762 0 5 2.239 5 5s-2.238 5-5 5h-51.436c-2.762 0-5-2.239-5-5s2.238-5 5-5z" fill="#ffa052"/></g><g><path d="m136.74 126.751h163.26c2.762 0 5 2.239 5 5s-2.238 5-5 5h-163.26c-2.762 0-5-2.239-5-5s2.239-5 5-5z" fill="#ffa052"/></g></g></g><g fill="#c182f9"><circle cx="357.271" cy="104.22" r="5"/><circle cx="373.521" cy="104.22" r="5"/></g></g><g><circle cx="173.997" cy="66.964" fill="#ffa052" r="42.256"/><path d="m190.61 61.157c0-9.161-7.453-16.613-16.613-16.613s-16.613 7.453-16.613 16.613c0 4.518 1.818 8.615 4.755 11.613-2.936 2.998-4.755 7.095-4.755 11.613 0 2.761 2.238 5 5 5s5-2.239 5-5c0-3.646 2.967-6.613 6.613-6.613s6.613 2.967 6.613 6.613c0 2.761 2.238 5 5 5s5-2.239 5-5c0-4.518-1.818-8.615-4.755-11.613 2.937-2.998 4.755-7.095 4.755-11.613zm-16.613-6.613c3.646 0 6.613 2.967 6.613 6.613s-2.967 6.613-6.613 6.613-6.613-2.967-6.613-6.613 2.966-6.613 6.613-6.613z" fill="#fff"/></g></g><g fill="#590bb2"><path d="m455.314 259.487h-10.396v-41.549c0-2.761-2.238-5-5-5s-5 2.239-5 5v41.549h-88.618c-2.762 0-5 2.239-5 5s2.238 5 5 5h109.014c2.216 0 4.019 1.803 4.019 4.019v166.546c0 2.216-1.803 4.019-4.019 4.019h-398.628c-2.216 0-4.019-1.803-4.019-4.019v-166.546c0-2.216 1.803-4.019 4.019-4.019h259.014c2.762 0 5-2.239 5-5s-2.238-5-5-5h-238.619v-29.478l.814.814c.976.976 2.256 1.464 3.535 1.464s2.56-.488 3.535-1.464c1.953-1.953 1.953-5.119 0-7.071l-9.348-9.348c-.233-.233-.49-.441-.764-.625-.122-.082-.255-.138-.383-.208-.158-.087-.31-.182-.478-.251-.161-.067-.33-.105-.496-.154-.146-.043-.286-.1-.438-.13-.307-.061-.618-.091-.929-.094-.017 0-.032-.005-.049-.005s-.032.005-.049.005c-.311.003-.623.033-.929.094-.151.03-.292.086-.438.13-.166.049-.334.087-.496.154-.168.07-.32.165-.478.251-.128.07-.26.126-.383.208-.275.184-.531.392-.764.625l-9.348 9.348c-1.953 1.953-1.953 5.119 0 7.071 1.951 1.952 5.119 1.952 7.07 0l.814-.814v29.478h-10.393c-7.729 0-14.019 6.289-14.019 14.019v166.546c0 7.73 6.289 14.019 14.019 14.019h398.629c7.729 0 14.019-6.289 14.019-14.019v-166.546c-.001-7.73-6.29-14.019-14.02-14.019z"/><path d="m72.081 198.938c2.762 0 5-2.239 5-5v-57.187h18.919v53.218c0 8.271 6.729 15 15 15h199.917l7.262 21.351c1.912 5.624 6.985 9.257 12.925 9.257s11.013-3.633 12.925-9.257l7.261-21.351h49.71c8.271 0 15-6.729 15-15v-53.218h18.919v45.116l-.814-.814c-1.951-1.952-5.119-1.952-7.07 0-1.953 1.953-1.953 5.119 0 7.071l9.348 9.348c.23.231.484.438.756.62.074.05.159.082.236.128.202.12.404.241.623.332.105.044.218.065.326.101.2.068.397.142.608.185.323.065.654.1.989.1s.666-.034.989-.1c.21-.042.407-.117.607-.184.108-.037.222-.058.327-.102.218-.091.419-.211.62-.331.078-.046.163-.079.239-.13.272-.182.525-.39.756-.62l9.348-9.348c1.953-1.953 1.953-5.119 0-7.071-1.951-1.952-5.119-1.952-7.07 0l-.814.814v-50.116c0-2.761-2.238-5-5-5h-23.923v-56.781c0-8.271-6.729-15-15-15h-181.294c-5.322-20.267-23.796-35.262-45.71-35.262-21.913 0-40.387 14.995-45.709 35.262h-17.287c-8.271 0-15 6.729-15 15v17.397c0 2.761 2.238 5 5 5s5-2.239 5-5v-17.397c0-2.757 2.243-5 5-5h15.791c-.028.662-.051 1.325-.051 1.994 0 26.057 21.199 47.256 47.256 47.256 26.058 0 47.257-21.199 47.257-47.256 0-.669-.023-1.332-.051-1.994h179.798c2.757 0 5 2.243 5 5v120c0 2.757-2.243 5-5 5h-53.292c-2.141 0-4.045 1.363-4.733 3.39l-8.413 24.741c-.782 2.298-2.845 2.477-3.458 2.477s-2.676-.179-3.458-2.477l-8.414-24.741c-.689-2.027-2.593-3.39-4.733-3.39h-203.499c-2.757 0-5-2.243-5-5v-72.002c0-2.761-2.238-5-5-5s-5 2.239-5 5v8.784h-23.919c-2.762 0-5 2.239-5 5v62.187c0 2.761 2.238 5 5 5zm101.915-94.718c-20.543 0-37.256-16.713-37.256-37.256s16.713-37.256 37.256-37.256c20.544 0 37.257 16.713 37.257 37.256s-16.713 37.256-37.257 37.256z"/></g></g></g></svg>