<svg id="Capa_1" enable-background="new 0 0 512 512" height="512" viewBox="0 0 512 512" width="512" xmlns="http://www.w3.org/2000/svg" xmlns:xlink="http://www.w3.org/1999/xlink"><linearGradient id="SVGID_1_" gradientUnits="userSpaceOnUse" x1="437.085" x2="-4" y1="74.915" y2="516"><stop offset=".0023" stop-color="#e2ccff"/><stop offset="1" stop-color="#fff" stop-opacity="0"/></linearGradient><g><path d="m411.152 155.152c-29.991 0-54.303-24.312-54.303-54.303 0-55.698-45.152-100.849-100.849-100.849-55.697 0-100.848 45.151-100.848 100.848 0 29.991-24.312 54.303-54.303 54.303-55.698.001-100.849 45.152-100.849 100.849 0 55.697 45.151 100.848 100.848 100.848 29.991 0 54.303 24.312 54.303 54.303.001 55.698 45.152 100.849 100.849 100.849 55.697 0 100.848-45.151 100.848-100.848 0-29.991 24.312-54.303 54.303-54.303 55.698-.001 100.849-45.152 100.849-100.849 0-55.697-45.151-100.848-100.848-100.848z" fill="url(#SVGID_1_)"/><g><path d="m393.35 80.1v405.8c0 5.19-4.21 9.4-9.4 9.4h-255.9c-5.19 0-9.4-4.21-9.4-9.4v-405.8c0-5.19 4.21-9.4 9.4-9.4h255.9c5.19 0 9.4 4.21 9.4 9.4z" fill="#590bb2" opacity=".1"/><path d="m435.146 119.871h-3v-3c0-2.762-2.238-5-5-5s-5 2.238-5 5v3h-3c-2.762 0-5 2.238-5 5s2.238 5 5 5h3v3c0 2.762 2.238 5 5 5s5-2.238 5-5v-3h3c2.762 0 5-2.238 5-5s-2.239-5-5-5z" fill="#fdd250"/><path d="m88 59.386h-3v-3c0-2.762-2.239-5-5-5s-5 2.238-5 5v3h-3c-2.761 0-5 2.238-5 5s2.239 5 5 5h3v3c0 2.762 2.239 5 5 5s5-2.238 5-5v-3h3c2.761 0 5-2.238 5-5s-2.239-5-5-5z" fill="#c182f9"/><path d="m59.077 346.428c-1.28 0-2.559-.488-3.536-1.465l-4.464-4.464-4.464 4.464c-1.953 1.953-5.118 1.953-7.071 0-1.953-1.952-1.953-5.118 0-7.07l8-8c1.953-1.953 5.118-1.953 7.071 0l8 8c1.953 1.952 1.953 5.118 0 7.07-.977.976-2.256 1.465-3.536 1.465z" fill="#ffa052"/><path d="m443.13 418.359c-1.279 0-2.56-.488-3.535-1.465l-4.465-4.464-4.465 4.464c-1.951 1.953-5.119 1.953-7.07 0-1.953-1.952-1.953-5.118 0-7.07l8-8c1.951-1.953 5.119-1.953 7.07 0l8 8c1.953 1.952 1.953 5.118 0 7.07-.976.977-2.256 1.465-3.535 1.465z" fill="#ffa052"/><path d="m88 311.192c-1.28 0-2.559-.488-3.536-1.465l-4.464-4.463-4.464 4.464c-1.953 1.953-5.118 1.953-7.071 0-1.953-1.952-1.953-5.118 0-7.07l8-8c1.953-1.953 5.118-1.953 7.071 0l8 8c1.953 1.952 1.953 5.118 0 7.07-.977.976-2.256 1.464-3.536 1.464z" fill="#fdd250"/><path d="m393.35 53.1v405.8c0 5.19-4.21 9.4-9.4 9.4h-255.9c-5.19 0-9.4-4.21-9.4-9.4v-405.8c0-5.19 4.21-9.4 9.4-9.4h255.9c5.19 0 9.4 4.21 9.4 9.4z" fill="#fff"/><path d="m393.35 53.1v228.995h-274.7v-228.995c0-5.19 4.21-9.4 9.4-9.4h255.9c5.19 0 9.4 4.21 9.4 9.4z" fill="#ffa052"/><path d="m393.351 92.532v-39.423c0-5.197-4.213-9.41-9.41-9.41h-255.882c-5.197 0-9.41 4.213-9.41 9.41v39.423z" fill="#e2ccff"/><g><g><g><path d="m200.519 92.532 36.833-48.833h-109.297c-5.194 0-9.405 4.211-9.405 9.405v39.427h81.869z" fill="#c182f9"/><path d="m269.7 473.301h-141.645c-7.943 0-14.405-6.462-14.405-14.405v-405.792c0-7.943 6.462-14.405 14.405-14.405h38.979c2.761 0 5 2.238 5 5s-2.239 5-5 5h-38.979c-2.429 0-4.405 1.977-4.405 4.405v405.791c0 2.429 1.976 4.405 4.405 4.405h141.645c2.762 0 5 2.238 5 5s-2.238 5.001-5 5.001z" fill="#590bb2"/><path d="m383.945 473.301h-83.645c-2.762 0-5-2.238-5-5s2.238-5 5-5h83.646c2.429 0 4.405-1.977 4.405-4.405v-405.792c0-2.429-1.977-4.405-4.405-4.405h-186.312c-2.761 0-5-2.238-5-5s2.239-5 5-5h186.312c7.943 0 14.405 6.462 14.405 14.405v405.791c0 7.944-6.462 14.406-14.406 14.406z" fill="#590bb2"/><g><path d="m362.656 74.564h-113.255c-2.597 0-4.703-2.106-4.703-4.703s2.105-4.703 4.703-4.703h113.255c2.597 0 4.703 2.106 4.703 4.703-.001 2.597-2.106 4.703-4.703 4.703z" fill="#fff"/></g></g></g></g><g><g><g><g><path d="m333.26 247.784h-154.52c-2.762 0-5 2.239-5 5s2.238 5 5 5h154.52c2.762 0 5-2.239 5-5s-2.239-5-5-5z" fill="#fff"/></g><g><path d="m215.176 228.281h-36.436c-2.762 0-5 2.239-5 5s2.238 5 5 5h36.436c2.762 0 5-2.239 5-5s-2.238-5-5-5z" fill="#fff"/></g><g><path d="m239.215 228.281h75.668c2.761 0 5 2.239 5 5 0 2.761-2.239 5-5 5h-75.883c-2.924 0-5.261-2.51-4.976-5.492.248-2.599 2.58-4.508 5.191-4.508z" fill="#fff"/></g></g></g><g fill="#fff"><circle cx="196.729" cy="208.75" r="5"/><circle cx="180.479" cy="208.75" r="5"/></g></g><g><g><path d="m213.191 139.455h-14.741v-4.514c0-2.762-2.239-5-5-5s-5 2.238-5 5v4.514h-14.741c-2.761 0-5 2.238-5 5s2.239 5 5 5h24.565c-.814 3.025-2.38 7.051-5.38 11.104l-3.201-2.422c-2.202-1.664-5.338-1.231-7.004.97-1.666 2.202-1.232 5.338.97 7.005l2.097 1.587c-2.947 2.209-6.538 4.223-10.923 5.839-2.591.954-3.918 3.829-2.963 6.42.745 2.021 2.657 3.272 4.692 3.272.574 0 1.158-.1 1.728-.31 6.531-2.406 11.677-5.533 15.737-8.962l10.913 8.258c.903.683 1.962 1.013 3.013 1.013 1.513 0 3.008-.684 3.991-1.982 1.666-2.202 1.232-5.338-.97-7.005l-10.062-7.614c4.761-6.423 6.778-12.903 7.624-17.172h4.654c2.761 0 5-2.238 5-5s-2.237-5.001-4.999-5.001z" fill="#fff"/><g><g fill="#ffe783"><path d="m301.448 182.979c-.66 0-1.331-.131-1.976-.408-2.536-1.092-3.707-4.033-2.615-6.57l18.42-42.787c.79-1.834 2.596-3.022 4.593-3.022s3.803 1.188 4.593 3.022l18.421 42.787c1.092 2.537-.079 5.479-2.615 6.57-2.535 1.091-5.479-.079-6.57-2.615l-13.828-32.12-13.827 32.12c-.815 1.892-2.659 3.023-4.596 3.023z"/><path d="m328.222 169.333h-20.897c-2.762 0-5-2.238-5-5s2.238-5 5-5h20.897c2.762 0 5 2.238 5 5s-2.239 5-5 5z"/></g></g></g></g><g><g><g><g><path d="m333.26 415.035h-154.52c-2.762 0-5 2.239-5 5s2.238 5 5 5h154.52c2.762 0 5-2.239 5-5s-2.239-5-5-5z" fill="#ffa052"/></g><g><path d="m215.176 395.533h-36.436c-2.762 0-5 2.239-5 5s2.238 5 5 5h36.436c2.762 0 5-2.239 5-5s-2.238-5-5-5z" fill="#ffa052"/></g><g><path d="m239.215 395.533h75.668c2.761 0 5 2.239 5 5 0 2.761-2.239 5-5 5h-75.883c-2.924 0-5.261-2.51-4.976-5.492.248-2.6 2.58-4.508 5.191-4.508z" fill="#ffa052"/></g></g></g><g fill="#ffa052"><circle cx="196.729" cy="376.001" r="5"/><circle cx="180.479" cy="376.001" r="5"/></g></g><g><g><path d="m338.291 306.706h-14.741v-4.514c0-2.762-2.238-5-5-5s-5 2.238-5 5v4.514h-14.741c-2.762 0-5 2.238-5 5s2.238 5 5 5h24.565c-.814 3.025-2.38 7.051-5.38 11.104l-3.2-2.422c-2.203-1.665-5.338-1.23-7.005.97-1.666 2.202-1.231 5.338.97 7.005l2.098 1.588c-2.947 2.209-6.538 4.224-10.922 5.839-2.592.954-3.918 3.829-2.963 6.42.744 2.021 2.657 3.272 4.692 3.272.573 0 1.157-.1 1.728-.31 6.53-2.406 11.677-5.533 15.736-8.963l10.913 8.259c.903.683 1.963 1.013 3.014 1.013 1.513 0 3.008-.684 3.991-1.982 1.666-2.202 1.231-5.338-.97-7.005l-10.062-7.615c4.761-6.423 6.778-12.903 7.624-17.172h4.654c2.762 0 5-2.238 5-5s-2.239-5.001-5.001-5.001z" fill="#ffa052"/><g><g fill="#ffe783"><path d="m173.707 350.23c-.66 0-1.33-.131-1.975-.408-2.537-1.092-3.708-4.033-2.615-6.57l18.42-42.787c.79-1.834 2.595-3.022 4.592-3.022s3.803 1.188 4.592 3.022l18.42 42.787c1.092 2.537-.079 5.479-2.615 6.57-2.534 1.092-5.477-.079-6.569-2.615l-13.828-32.12-13.828 32.12c-.814 1.892-2.657 3.023-4.594 3.023z"/><path d="m204.675 336.585h-20.897c-2.761 0-5-2.238-5-5s2.239-5 5-5h20.897c2.761 0 5 2.238 5 5s-2.238 5-5 5z"/></g></g></g></g><g fill="#b557ff"><path d="m252 169.585c-1.28 0-2.559-.488-3.536-1.465-1.953-1.952-1.953-5.118 0-7.07l4.464-4.465-4.464-4.465c-1.953-1.952-1.953-5.118 0-7.07 1.953-1.953 5.118-1.953 7.071 0l8 8c1.953 1.952 1.953 5.118 0 7.07l-8 8c-.976.977-2.255 1.465-3.535 1.465z"/><path d="m252 336.836c-1.28 0-2.559-.488-3.536-1.465-1.953-1.952-1.953-5.118 0-7.07l4.464-4.465-4.464-4.465c-1.953-1.952-1.953-5.118 0-7.07 1.953-1.953 5.118-1.953 7.071 0l8 8c1.953 1.952 1.953 5.118 0 7.07l-8 8c-.976.977-2.255 1.465-3.535 1.465z"/></g></g></g></svg>