<svg id="Capa_1" enable-background="new 0 0 512 512" height="512" viewBox="0 0 512 512" width="512" xmlns="http://www.w3.org/2000/svg" xmlns:xlink="http://www.w3.org/1999/xlink"><linearGradient id="SVGID_1_" gradientUnits="userSpaceOnUse" x1="137.201" x2="425.884" y1="414.424" y2="70.385"><stop offset="0" stop-color="#d2deff" stop-opacity="0"/><stop offset=".6852" stop-color="#d2deff"/></linearGradient><path d="m20.337 135.851c-23.967 39.398-26.493 107.613-8.937 150.256 15.377 37.351 45.966 72.409 86.12 76.801 14.766 1.615 29.858-1.024 44.472 1.638 50.257 9.152 68.952 71.09 108.01 104.014 27.182 22.913 64.898 31.021 100.174 26.607s68.302-20.363 97.376-40.824c22.957-16.157 44.436-36.022 55.764-61.707 23.744-53.839-4.19-118.501-47.587-158.239-13.516-12.377-28.581-23.294-39.875-37.727s-18.48-33.695-13.099-51.214c4.293-13.977 15.849-24.812 20.227-38.763 5.958-18.984-3.035-40.281-17.802-53.616s-34.308-20.039-53.666-24.64c-81.103-19.281-258.823-11.525-331.177 107.414z" fill="url(#SVGID_1_)"/><path d="m379.295 70.679v395.32c0 16.57-13.43 30-30 30h-202.24c-16.57 0-30-13.43-30-30v-395.32c0-16.57 13.43-30 30-30h202.24c16.57 0 30 13.43 30 30z" fill="#6583fe" opacity=".2"/><path d="m379.295 50.679v395.32c0 16.57-13.43 30-30 30h-202.24c-16.57 0-30-13.43-30-30v-395.32c0-16.57 13.43-30 30-30h202.24c16.57 0 30 13.43 30 30z" fill="#6583fe"/><path d="m349.291 481h-202.235c-19.299 0-35-15.701-35-35v-395.321c0-19.299 15.701-35 35-35h57.61c2.762 0 5 2.238 5 5s-2.238 5-5 5h-57.61c-13.785 0-25 11.215-25 25v395.321c0 13.785 11.215 25 25 25h202.235c13.785 0 25-11.215 25-25v-157.661c0-2.762 2.238-5 5-5s5 2.238 5 5v157.661c0 19.299-15.701 35-35 35z" fill="#2626bc"/><path d="m379.291 259.339c-2.762 0-5-2.238-5-5v-203.66c0-13.785-11.215-25-25-25h-110.624c-2.762 0-5-2.238-5-5s2.238-5 5-5h110.624c19.299 0 35 15.701 35 35v203.66c0 2.761-2.238 5-5 5z" fill="#2626bc"/><path d="m286.928 53.802h-56.52c-2.762 0-5-2.239-5-5s2.238-5 5-5h56.52c2.762 0 5 2.239 5 5s-2.238 5-5 5z" fill="#9fb0fe"/><circle cx="209.418" cy="48.802" fill="#9fb0fe" r="5"/><circle cx="248.173" cy="437.746" fill="#9fb0fe" r="24.336"/><path d="m358.893 78.009v321.36c0 2.76-2.24 5-5 5h-211.44c-2.76 0-5-2.24-5-5v-321.36c0-2.76 2.24-5 5-5h211.44c2.76 0 5 2.24 5 5z" fill="#fff"/><path d="m358.885 78.009v194.66h-221.43v-194.66c0-2.76 2.24-5 5-5h211.43c2.77 0 5 2.24 5 5z" fill="#9fb0fe"/><path d="m422.997 427.081c-2.762 0-5-2.238-5-5 0-3.309-2.691-6-6-6-2.762 0-5-2.238-5-5s2.238-5 5-5c3.309 0 6-2.691 6-6 0-2.762 2.238-5 5-5s5 2.238 5 5c0 3.309 2.691 6 6 6 2.762 0 5 2.238 5 5s-2.238 5-5 5c-3.309 0-6 2.691-6 6 0 2.762-2.238 5-5 5z" fill="#01eca5"/><path d="m434.997 177.207c-2.762 0-5-2.238-5-5 0-3.309-2.691-6-6-6-2.762 0-5-2.238-5-5s2.238-5 5-5c3.309 0 6-2.691 6-6 0-2.762 2.238-5 5-5s5 2.238 5 5c0 3.309 2.691 6 6 6 2.762 0 5 2.238 5 5s-2.238 5-5 5c-3.309 0-6 2.691-6 6 0 2.762-2.238 5-5 5z" fill="#ff7eb8"/><path d="m413.997 126.487c-1.279 0-2.56-.488-3.535-1.465-1.953-1.952-1.953-5.118 0-7.07l10-10c1.951-1.953 5.119-1.953 7.07 0 1.953 1.952 1.953 5.118 0 7.07l-10 10c-.975.977-2.256 1.465-3.535 1.465z" fill="#6583fe"/><path d="m67.147 136.779c-1.279 0-2.56-.488-3.535-1.465-1.953-1.952-1.953-5.118 0-7.07l10-10c1.951-1.953 5.119-1.953 7.07 0 1.953 1.952 1.953 5.118 0 7.07l-10 10c-.975.977-2.255 1.465-3.535 1.465z" fill="#6583fe"/><path d="m77.003 404.169c-2.762 0-5-2.238-5-5 0-3.309-2.691-6-6-6-2.762 0-5-2.238-5-5s2.238-5 5-5c3.309 0 6-2.691 6-6 0-2.762 2.238-5 5-5s5 2.238 5 5c0 3.309 2.691 6 6 6 2.762 0 5 2.238 5 5s-2.238 5-5 5c-3.309 0-6 2.691-6 6 0 2.761-2.238 5-5 5z" fill="#01eca5"/><circle cx="315.715" cy="272.669" fill="#ff7eb8" r="19.439"/><path d="m231.845 310.298h-66.52c-2.762 0-5-2.239-5-5s2.238-5 5-5h66.52c2.762 0 5 2.239 5 5s-2.238 5-5 5z" fill="#9fb0fe"/><path d="m231.845 99.298h-66.52c-2.762 0-5-2.239-5-5s2.238-5 5-5h66.52c2.762 0 5 2.239 5 5s-2.238 5-5 5z" fill="#fff"/><path d="m281.845 328.798h-116.52c-2.762 0-5-2.239-5-5s2.238-5 5-5h116.52c2.762 0 5 2.239 5 5s-2.238 5-5 5z" fill="#9fb0fe"/><circle cx="282.35" cy="305.298" fill="#ff7eb8" r="5"/><path d="m231.845 363.669h-66.52c-2.762 0-5-2.239-5-5s2.238-5 5-5h66.52c2.762 0 5 2.239 5 5s-2.238 5-5 5z" fill="#9fb0fe"/><path d="m281.845 382.169h-116.52c-2.762 0-5-2.239-5-5s2.238-5 5-5h116.52c2.762 0 5 2.239 5 5s-2.238 5-5 5z" fill="#9fb0fe"/><circle cx="282.35" cy="358.669" fill="#ff7eb8" r="5"/><path d="m316.079 331.772h-3.523c-4.301 0-7.8-3.499-7.8-7.8v-10.875c0-4.301 3.499-7.8 7.8-7.8h3.523c4.301 0 7.8 3.499 7.8 7.8v10.875c0 4.301-3.499 7.8-7.8 7.8zm-3.523-19.866c-.657 0-1.191.534-1.191 1.191v10.875c0 .657.534 1.191 1.191 1.191h3.523c.657 0 1.191-.534 1.191-1.191v-10.875c0-.657-.534-1.191-1.191-1.191z" fill="#01eca5"/><path d="m335.123 331.772c-1.825 0-3.304-1.479-3.304-3.304v-16.562h-.294c-1.825 0-3.304-1.479-3.304-3.304s1.479-3.304 3.304-3.304h3.598c1.825 0 3.304 1.479 3.304 3.304v19.866c0 1.825-1.479 3.304-3.304 3.304z" fill="#01eca5"/><path d="m316.079 381.744h-3.523c-4.301 0-7.8-3.499-7.8-7.8v-10.875c0-4.301 3.499-7.8 7.8-7.8h3.523c4.301 0 7.8 3.499 7.8 7.8v10.875c0 4.301-3.499 7.8-7.8 7.8zm-3.523-19.867c-.657 0-1.191.534-1.191 1.191v10.875c0 .657.534 1.191 1.191 1.191h3.523c.657 0 1.191-.534 1.191-1.191v-10.875c0-.657-.534-1.191-1.191-1.191z" fill="#01eca5"/><path d="m343.491 381.453h-11.967c-1.402 0-2.651-.885-3.116-2.208s-.045-2.795 1.048-3.673c3.332-2.676 8.489-7.568 9.52-10.064.396-.959.334-2.016-.163-2.76-.387-.578-.962-.871-1.71-.871-1.255 0-2.275 1.02-2.275 2.275 0 1.825-1.479 3.304-3.304 3.304s-3.304-1.479-3.304-3.304c0-4.898 3.985-8.883 8.883-8.883 2.96 0 5.586 1.388 7.203 3.806 1.734 2.592 2.024 5.941.778 8.957-.894 2.164-2.907 4.624-5.018 6.812h3.426c1.825 0 3.304 1.479 3.304 3.304-.001 1.826-1.48 3.305-3.305 3.305z" fill="#01eca5"/><circle cx="168.489" cy="126.779" fill="#ff7eb8" r="5.463"/><g fill="#97ffd2"><circle cx="200.364" cy="126.779" r="5.463"/><circle cx="232.238" cy="126.779" r="5.463"/><circle cx="264.112" cy="126.779" r="5.463"/><circle cx="295.987" cy="126.779" r="5.463"/><circle cx="327.861" cy="126.779" r="5.463"/></g><circle cx="168.489" cy="154.744" fill="#ff7eb8" r="5.463"/><circle cx="200.364" cy="154.744" fill="#97ffd2" r="5.463"/><circle cx="232.238" cy="154.744" fill="#97ffd2" r="5.463"/><circle cx="264.112" cy="154.744" fill="#97ffd2" r="5.463"/><circle cx="295.987" cy="154.744" fill="#97ffd2" r="5.463"/><circle cx="327.861" cy="154.744" fill="#97ffd2" r="5.463"/><circle cx="168.489" cy="182.71" fill="#ff7eb8" r="5.463"/><circle cx="200.364" cy="182.71" fill="#97ffd2" r="5.463"/><circle cx="232.238" cy="182.71" fill="#b7c5ff" r="15.937"/><circle cx="232.238" cy="182.71" fill="#02ffb3" r="5.463"/><circle cx="264.112" cy="182.71" fill="#97ffd2" r="5.463"/><circle cx="295.987" cy="182.71" fill="#97ffd2" r="5.463"/><circle cx="327.861" cy="182.71" fill="#97ffd2" r="5.463"/><circle cx="168.489" cy="210.676" fill="#ff7eb8" r="5.463"/><circle cx="200.364" cy="210.676" fill="#97ffd2" r="5.463"/><circle cx="232.238" cy="210.676" fill="#97ffd2" r="5.463"/><circle cx="264.112" cy="210.676" fill="#97ffd2" r="5.463"/><circle cx="295.987" cy="210.676" fill="#97ffd2" r="5.463"/><circle cx="327.861" cy="210.676" fill="#97ffd2" r="5.463"/><circle cx="168.489" cy="238.641" fill="#ff7eb8" r="5.463"/><circle cx="200.364" cy="238.641" fill="#97ffd2" r="5.463"/><circle cx="232.238" cy="238.641" fill="#97ffd2" r="5.463"/><circle cx="264.112" cy="238.641" fill="#97ffd2" r="5.463"/><circle cx="295.987" cy="238.641" fill="#97ffd2" r="5.463"/><circle cx="327.861" cy="238.641" fill="#97ffd2" r="5.463"/></svg>