<svg id="Capa_1" enable-background="new 0 0 512 512" height="512" viewBox="0 0 512 512" width="512" xmlns="http://www.w3.org/2000/svg" xmlns:xlink="http://www.w3.org/1999/xlink"><linearGradient id="SVGID_1_" gradientUnits="userSpaceOnUse" x1="-23.934" x2="528.119" y1="185.738" y2="362.395"><stop offset=".0485" stop-color="#d2deff"/><stop offset=".9993" stop-color="#dcfdee"/></linearGradient><g><path d="m382.606 174.016c-.192-.001-.385-.002-.577-.002-32.034-.05-62.385-13.844-83.44-37.986-31.366-35.964-77.6-58.622-129.121-58.393-93.512.414-170.663 78.98-169.454 172.485 1.203 92.986 76.955 167.995 170.227 167.995 26.343 0 51.286-5.987 73.547-16.672 19.194-9.213 42.065-6.784 58.968 6.161 21.863 16.745 49.19 26.713 78.846 26.763 71.382.119 129.981-58.02 130.396-129.401.418-72.049-57.442-130.527-129.392-130.95z" fill="url(#SVGID_1_)"/><path d="m118.217 77.959v66.817c0 2.761 2.239 5 5 5h20.903c2.303 0 4.307-1.572 4.856-3.809l9.393-38.291c.549-2.236 2.553-3.809 4.856-3.809h54.686c2.761 0 5 2.239 5 5v244.3c0 2.36-1.651 4.399-3.959 4.89l-53.169 11.317c-2.309.491-3.959 2.53-3.959 4.89v17.776c0 2.761 2.239 5 5 5h152.083c2.761 0 5-2.239 5-5v-17.776c0-2.36-1.651-4.399-3.959-4.89l-53.169-11.317c-2.309-.491-3.959-2.53-3.959-4.89v-244.3c0-2.761 2.239-5 5-5h54.686c2.303 0 4.307 1.572 4.856 3.809l9.393 38.291c.549 2.236 2.553 3.809 4.856 3.809h20.903c2.761 0 5-2.239 5-5v-66.817c0-2.761-2.239-5-5-5h-239.297c-2.761 0-5 2.238-5 5z" fill="#2626bc" opacity=".1"/><path d="m437.013 115.758h9.988c4.115 0 6.468-4.693 4.007-7.991l-21.974-29.44c-2-2.679-6.014-2.679-8.014 0l-21.974 29.44c-2.461 3.298-.108 7.991 4.007 7.991h9.988v238.483h-9.988c-4.115 0-6.468 4.693-4.007 7.991l21.974 29.44c2 2.679 6.014 2.679 8.014 0l21.974-29.44c2.461-3.298.108-7.991-4.007-7.991h-9.988z" fill="#2626bc" opacity=".1"/><path d="m118.29 99.042v66.781c0 2.76 2.237 4.997 4.997 4.997h20.891c2.301 0 4.305-1.572 4.853-3.807l9.388-38.27c.548-2.235 2.552-3.807 4.853-3.807h54.657c2.76 0 4.997 2.237 4.997 4.997v244.17c0 2.359-1.65 4.397-3.957 4.888l-53.141 11.311c-2.307.491-3.957 2.529-3.957 4.888v17.767c0 2.76 2.237 4.997 4.997 4.997h152.001c2.76 0 4.997-2.237 4.997-4.997v-17.767c0-2.359-1.65-4.397-3.957-4.888l-53.141-11.311c-2.307-.491-3.957-2.529-3.957-4.888v-244.17c0-2.76 2.237-4.997 4.997-4.997h54.657c2.301 0 4.305 1.572 4.853 3.807l9.388 38.27c.548 2.235 2.552 3.807 4.853 3.807h20.891c2.76 0 4.997-2.237 4.997-4.997v-66.781c0-2.76-2.237-4.997-4.997-4.997h-239.162c-2.76 0-4.998 2.237-4.998 4.997z" fill="#ff7eb8"/><path d="m436.916 136.822h9.983c4.113 0 6.465-4.691 4.005-7.986l-21.962-29.425c-1.999-2.678-6.011-2.678-8.01 0l-21.962 29.425c-2.46 3.296-.108 7.986 4.005 7.986h9.983v238.356h-9.983c-4.113 0-6.465 4.691-4.005 7.986l21.962 29.425c1.999 2.678 6.011 2.678 8.01 0l21.962-29.425c2.46-3.296.108-7.986-4.005-7.986h-9.983z" fill="#9fb0fe"/><g fill="#2626bc"><path d="m362.457 89.045h-46.79c-2.762 0-5 2.239-5 5s2.238 5 5 5l46.787-.003.003 66.778-20.889.002-9.389-38.27c-1.1-4.484-5.092-7.616-9.71-7.616h-54.656c-5.513 0-9.998 4.485-9.998 9.997v244.17c0 4.689 3.329 8.802 7.916 9.779l53.139 11.308.003 17.764-151.999.003-.002-17.764 53.141-11.311c4.587-.977 7.916-5.089 7.916-9.779v-244.17c0-5.512-4.484-9.997-9.997-9.997h-54.657c-4.616 0-8.608 3.131-9.71 7.615l-9.385 38.269-20.889.002-.003-66.778h164.854c2.762 0 5-2.239 5-5s-2.238-5-5-5h-164.854c-5.513 0-9.997 4.485-9.997 9.997v66.781c0 5.513 4.484 9.998 9.997 9.998h20.892c4.616 0 8.608-3.131 9.71-7.616l9.385-38.268 54.654-.003.002 244.167-53.141 11.311c-4.587.977-7.916 5.089-7.916 9.778v17.767c0 5.512 4.484 9.997 9.997 9.997h152.002c5.513 0 9.997-4.485 9.997-9.997v-17.766c0-4.689-3.329-8.802-7.916-9.778l-53.139-11.308-.002-244.167 54.653-.002 9.389 38.27c1.1 4.484 5.093 7.616 9.71 7.616h20.892c5.513 0 9.997-4.485 9.997-9.998v-66.781c0-5.512-4.484-9.997-9.997-9.997z"/><path d="m78.48 99.045c2.762 0 5-2.239 5-5s-2.238-5-5-5h-18.49c-2.762 0-5 2.239-5 5v323.909c0 2.761 2.238 5 5 5h18.49c2.762 0 5-2.239 5-5s-2.238-5-5-5h-13.49v-42.013h13.49c2.762 0 5-2.239 5-5s-2.238-5-5-5h-13.49v-44.971h13.49c2.762 0 5-2.239 5-5s-2.238-5-5-5h-13.49v-44.97h13.49c2.762 0 5-2.239 5-5s-2.238-5-5-5h-13.49v-44.971h13.49c2.762 0 5-2.239 5-5s-2.238-5-5-5h-13.49v-44.971h13.49c2.762 0 5-2.239 5-5s-2.238-5-5-5h-13.49v-42.013z"/><path d="m446.898 370.178h-4.982v-228.356h4.983c3.806 0 7.229-2.113 8.936-5.516s1.353-7.411-.925-10.461l-21.961-29.425c-1.905-2.553-4.825-4.018-8.011-4.018-.001 0-.001 0-.002 0-3.186 0-6.105 1.464-8.012 4.018l-21.962 29.425c-2.276 3.05-2.631 7.059-.925 10.461s5.13 5.516 8.937 5.516h9.982c2.762 0 5-2.239 5-5s-2.238-5-5-5l-9.98.004 21.958-29.425 21.965 29.42h-9.983c-2.762 0-5 2.239-5 5v238.356c0 2.761 2.238 5 5 5l9.98-.004-21.958 29.425-21.964-29.42h9.982c2.762 0 5-2.239 5-5v-210.831c0-2.761-2.238-5-5-5s-5 2.239-5 5v205.831h-4.982c-3.807 0-7.23 2.113-8.937 5.516s-1.352 7.411.925 10.461l21.962 29.425c1.906 2.553 4.827 4.017 8.014 4.017 3.186 0 6.104-1.464 8.01-4.017l21.962-29.425c2.276-3.05 2.631-7.059.925-10.461s-5.13-5.516-8.937-5.516z"/></g><path d="m140.268 352.839c-2.762 0-5-2.239-5-5 0-3.305-2.688-5.994-5.994-5.994-2.762 0-5-2.239-5-5s2.238-5 5-5c3.306 0 5.994-2.689 5.994-5.994 0-2.761 2.238-5 5-5s5 2.239 5 5c0 3.305 2.688 5.994 5.994 5.994 2.762 0 5 2.239 5 5s-2.238 5-5 5c-3.306 0-5.994 2.689-5.994 5.994 0 2.761-2.238 5-5 5z" fill="#6583fe"/><path d="m356.46 236.013c-2.762 0-5-2.239-5-5 0-3.305-2.688-5.994-5.994-5.994-2.762 0-5-2.239-5-5s2.238-5 5-5c3.306 0 5.994-2.689 5.994-5.994 0-2.761 2.238-5 5-5s5 2.239 5 5c0 3.305 2.688 5.994 5.994 5.994 2.762 0 5 2.239 5 5s-2.238 5-5 5c-3.306 0-5.994 2.689-5.994 5.994 0 2.761-2.238 5-5 5z" fill="#6583fe"/><path d="m170.807 282.988c-1.279 0-2.56-.488-3.535-1.464l-10.994-10.994c-1.953-1.953-1.953-5.119 0-7.071l10.994-10.994c1.951-1.952 5.119-1.952 7.07 0l10.994 10.994c1.953 1.953 1.953 5.119 0 7.071l-10.994 10.994c-.975.976-2.255 1.464-3.535 1.464zm-3.922-15.994 3.923 3.923 3.923-3.923-3.923-3.923z" fill="#ff7eb8"/><path d="m288.744 352.839c-2.762 0-5-2.239-5-5v-152.806c0-2.761 2.238-5 5-5s5 2.239 5 5v152.807c0 2.76-2.238 4.999-5 4.999z" fill="#6583fe"/><g fill="#97ffd2"><path d="m220.781 63h-160.791c-2.762 0-5-2.239-5-5s2.238-5 5-5h160.791c2.762 0 5 2.239 5 5s-2.238 5-5 5z"/><path d="m367.454 459h-307.464c-2.762 0-5-2.239-5-5s2.238-5 5-5h307.464c2.762 0 5 2.239 5 5s-2.238 5-5 5z"/><path d="m393.009 90.985c-2.762 0-5-2.239-5-5 0-3.305-2.688-5.994-5.994-5.994-2.762 0-5-2.239-5-5s2.238-5 5-5c3.306 0 5.994-2.689 5.994-5.995 0-2.761 2.238-5 5-5s5 2.239 5 5c0 3.306 2.688 5.995 5.994 5.995 2.762 0 5 2.239 5 5s-2.238 5-5 5c-3.306 0-5.994 2.689-5.994 5.994 0 2.761-2.239 5-5 5z"/></g></g></svg>