<svg id="Capa_1" enable-background="new 0 0 512 512" height="512" viewBox="0 0 512 512" width="512" xmlns="http://www.w3.org/2000/svg" xmlns:xlink="http://www.w3.org/1999/xlink"><linearGradient id="SVGID_1_" gradientUnits="userSpaceOnUse" x1="50.725" x2="421.072" y1="31.217" y2="483.862"><stop offset="0" stop-color="#ffdbed"/><stop offset="1" stop-color="#dcfdee"/></linearGradient><g><path d="m310.075 89.353c-21.43-52.669-73.271-89.723-133.726-89.35-77.124.475-140.536 62.684-142.407 139.786-.923 38.04 12.978 72.821 36.334 98.983 18.619 20.856 27.963 48.325 27.021 76.268-.125 3.714-.144 7.455-.052 11.22 2.464 101.4 89.087 185.801 190.517 185.74 105.133-.063 190.34-85.31 190.34-190.457 0-77.074-45.784-143.448-111.637-173.423-25.667-11.683-45.762-32.647-56.39-58.767z" fill="url(#SVGID_1_)"/><path d="m430.307 334.633h-26.376v-266.006c0-8.285-6.734-15.019-15.019-15.019h-250.33c-8.285 0-15.019 6.734-15.019 15.019v75.803h-26.377c-5.527 0-10.007 4.48-10.007 10.007v47.825c0 5.527 4.48 10.007 10.007 10.007h26.376v231.103c0 8.285 6.734 15.019 15.019 15.019h250.33c8.285 0 15.019-6.734 15.019-15.019v-40.901h26.376c5.527 0 10.007-4.48 10.007-10.007v-47.824c0-5.527-4.48-10.007-10.006-10.007z" fill="#2626bc" opacity=".1"/><path d="m403.931 89.64v374.745c0 8.285-6.734 15.019-15.019 15.019h-250.33c-8.285 0-15.019-6.734-15.019-15.019v-374.745c0-8.285 6.734-15.019 15.019-15.019h250.33c8.285 0 15.019 6.734 15.019 15.019z" fill="#fff"/><path d="m403.931 367.657v67.831h-29.748c-5.523 0-10.006-4.473-10.006-10.006v-47.819c0-5.533 4.483-10.006 10.006-10.006z" fill="#d2deff"/><path d="m163.316 187.459v47.819c0 5.533-4.483 10.016-10.006 10.016h-29.748v-67.841h29.748c5.524 0 10.006 4.483 10.006 10.006z" fill="#d2deff"/><path d="m403.929 122.859v-33.215c0-8.295-6.724-15.02-15.02-15.02h-250.325c-8.295 0-15.019 6.724-15.019 15.02v33.215z" fill="#6583fe"/><g fill="#2626bc"><path d="m403.929 127.859h-251.991c-2.761 0-5-2.239-5-5s2.239-5 5-5h251.991c2.762 0 5 2.239 5 5s-2.239 5-5 5z"/><path d="m161.696 103.814c-2.761 0-5-2.239-5-5v-.145c0-2.761 2.239-5 5-5s5 2.239 5 5v.145c0 2.762-2.238 5-5 5z"/><path d="m181.046 103.814c-2.761 0-5-2.239-5-5v-.145c0-2.761 2.239-5 5-5s5 2.239 5 5v.145c0 2.762-2.239 5-5 5z"/><path d="m200.396 103.814c-2.761 0-5-2.239-5-5v-.145c0-2.761 2.239-5 5-5s5 2.239 5 5v.145c0 2.762-2.239 5-5 5z"/><path d="m388.909 484.4h-250.325c-11.039 0-20.02-8.981-20.02-20.02v-228.976c0-2.761 2.239-5 5-5s5 2.239 5 5v228.977c0 5.525 4.495 10.02 10.02 10.02h250.325c5.524 0 10.02-4.495 10.02-10.02v-38.875c0-2.761 2.238-5 5-5s5 2.239 5 5v38.875c0 11.038-8.981 20.019-20.02 20.019z"/><path d="m403.929 333.089c-2.762 0-5-2.239-5-5v-238.444c0-5.525-4.495-10.02-10.02-10.02h-250.325c-5.525 0-10.02 4.495-10.02 10.02v73.78c0 2.761-2.239 5-5 5s-5-2.239-5-5v-73.78c0-11.039 8.981-20.02 20.02-20.02h250.325c11.039 0 20.02 8.981 20.02 20.02v238.444c0 2.761-2.239 5-5 5z"/></g><path d="m375.484 208.372v98.719c0 1.661-1.351 3.002-3.002 3.002h-217.471c-1.651 0-3.002-1.341-3.002-3.002v-98.719c0-1.661 1.351-3.002 3.002-3.002h217.471c1.651 0 3.002 1.34 3.002 3.002z" fill="#ffa8cf"/><g fill="#ff7eb8"><path d="m163.316 205.37v29.908c0 5.533-4.483 10.016-10.006 10.016h-1.301v-36.922c0-1.661 1.351-3.002 3.002-3.002z"/><path d="m352.132 183.99c-1.279 0-2.56-.488-3.536-1.465-.976-.976-1.464-2.256-1.464-3.536 0-1.279.488-2.559 1.465-3.535 1.135-1.135 1.76-2.643 1.76-4.248 0-1.604-.625-3.112-1.76-4.247-.977-.976-1.465-2.256-1.465-3.535 0-1.28.488-2.56 1.464-3.536 1.953-1.953 5.118-1.954 7.071 0 1.135 1.135 2.644 1.759 4.248 1.759s3.112-.625 4.246-1.759c1.953-1.953 5.118-1.954 7.071 0 .977.976 1.465 2.256 1.465 3.535 0 1.28-.488 2.56-1.464 3.536-2.342 2.342-2.342 6.153 0 8.495.976.976 1.464 2.256 1.464 3.536 0 1.279-.488 2.559-1.465 3.535-1.951 1.952-5.118 1.953-7.071 0-1.134-1.134-2.642-1.759-4.246-1.759s-3.113.625-4.248 1.76c-.977.976-2.256 1.464-3.535 1.464z"/><path d="m311.219 183.99c-1.279 0-2.56-.488-3.536-1.465-.976-.976-1.464-2.256-1.464-3.536 0-1.279.488-2.559 1.465-3.535 1.135-1.135 1.759-2.643 1.759-4.248 0-1.604-.624-3.112-1.759-4.247-.977-.976-1.465-2.256-1.465-3.535 0-1.28.488-2.56 1.464-3.536 1.953-1.953 5.118-1.954 7.071 0 1.135 1.135 2.644 1.759 4.248 1.759s3.112-.625 4.246-1.759c1.953-1.953 5.118-1.954 7.071 0 .977.976 1.465 2.256 1.465 3.535 0 1.28-.488 2.56-1.464 3.536-2.342 2.342-2.342 6.153 0 8.495.976.976 1.464 2.256 1.464 3.536 0 1.279-.488 2.559-1.465 3.535-1.951 1.952-5.118 1.953-7.071 0-1.134-1.134-2.642-1.759-4.246-1.759s-3.113.625-4.248 1.76c-.976.976-2.256 1.464-3.535 1.464z"/><path d="m270.306 183.99c-1.279 0-2.56-.488-3.536-1.465-.976-.976-1.464-2.256-1.464-3.536 0-1.279.488-2.559 1.465-3.535 1.135-1.135 1.759-2.643 1.759-4.248 0-1.604-.624-3.112-1.759-4.247-.977-.976-1.465-2.256-1.465-3.535 0-1.28.488-2.56 1.464-3.536 1.953-1.953 5.118-1.954 7.071 0 2.342 2.342 6.154 2.342 8.496 0 1.951-1.952 5.118-1.953 7.071 0 .976.976 1.464 2.256 1.464 3.536 0 1.279-.488 2.559-1.465 3.535-1.135 1.135-1.759 2.643-1.759 4.247s.624 3.112 1.759 4.247c.977.976 1.465 2.256 1.465 3.535 0 1.28-.488 2.56-1.464 3.536-1.953 1.953-5.118 1.954-7.071 0-2.341-2.341-6.151-2.342-8.496 0-.976.978-2.256 1.466-3.535 1.466z"/></g><path d="m209.21 340.035h-52.186c-2.768 0-5.011-2.244-5.011-5.011s2.243-5.011 5.011-5.011h52.186c2.768 0 5.011 2.244 5.011 5.011s-2.243 5.011-5.011 5.011z" fill="#8399fe"/><path d="m233.558 246.646h-37.177c-2.768 0-5.011-2.244-5.011-5.011s2.243-5.011 5.011-5.011h37.177c2.768 0 5.011 2.244 5.011 5.011s-2.243 5.011-5.011 5.011z" fill="#fff"/><path d="m308.603 274.011h-112.222c-2.768 0-5.011-2.244-5.011-5.011s2.243-5.011 5.011-5.011h112.222c2.768 0 5.011 2.244 5.011 5.011s-2.243 5.011-5.011 5.011z" fill="#fff"/><path d="m308.603 292.681h-112.222c-2.768 0-5.011-2.244-5.011-5.011s2.243-5.011 5.011-5.011h112.222c2.768 0 5.011 2.244 5.011 5.011s-2.243 5.011-5.011 5.011z" fill="#fff"/><path d="m209.21 374.056h-52.186c-2.768 0-5.011-2.244-5.011-5.011s2.243-5.011 5.011-5.011h52.186c2.768 0 5.011 2.244 5.011 5.011s-2.243 5.011-5.011 5.011z" fill="#b7c5ff"/><path d="m209.21 395.568h-52.186c-2.768 0-5.011-2.244-5.011-5.011s2.243-5.011 5.011-5.011h52.186c2.768 0 5.011 2.244 5.011 5.011 0 2.768-2.243 5.011-5.011 5.011z" fill="#b7c5ff"/><path d="m209.21 417.081h-52.186c-2.768 0-5.011-2.244-5.011-5.011s2.243-5.011 5.011-5.011h52.186c2.768 0 5.011 2.244 5.011 5.011s-2.243 5.011-5.011 5.011z" fill="#b7c5ff"/><path d="m209.21 438.594h-52.186c-2.768 0-5.011-2.244-5.011-5.011s2.243-5.011 5.011-5.011h52.186c2.768 0 5.011 2.244 5.011 5.011 0 2.768-2.243 5.011-5.011 5.011z" fill="#b7c5ff"/><path d="m287.393 340.035h-52.186c-2.768 0-5.011-2.244-5.011-5.011s2.243-5.011 5.011-5.011h52.186c2.768 0 5.011 2.244 5.011 5.011.001 2.767-2.243 5.011-5.011 5.011z" fill="#8399fe"/><path d="m287.393 374.056h-52.186c-2.768 0-5.011-2.244-5.011-5.011s2.243-5.011 5.011-5.011h52.186c2.768 0 5.011 2.244 5.011 5.011s-2.243 5.011-5.011 5.011z" fill="#b7c5ff"/><path d="m287.393 395.568h-52.186c-2.768 0-5.011-2.244-5.011-5.011s2.243-5.011 5.011-5.011h52.186c2.768 0 5.011 2.244 5.011 5.011.001 2.768-2.243 5.011-5.011 5.011z" fill="#b7c5ff"/><path d="m287.393 417.081h-52.186c-2.768 0-5.011-2.244-5.011-5.011s2.243-5.011 5.011-5.011h52.186c2.768 0 5.011 2.244 5.011 5.011s-2.243 5.011-5.011 5.011z" fill="#b7c5ff"/><path d="m287.393 438.594h-52.186c-2.768 0-5.011-2.244-5.011-5.011s2.243-5.011 5.011-5.011h52.186c2.768 0 5.011 2.244 5.011 5.011.001 2.768-2.243 5.011-5.011 5.011z" fill="#b7c5ff"/><path d="m365.577 340.035h-52.186c-2.768 0-5.011-2.244-5.011-5.011s2.243-5.011 5.011-5.011h52.186c2.768 0 5.011 2.244 5.011 5.011s-2.243 5.011-5.011 5.011z" fill="#8399fe"/><path d="m365.577 374.056h-52.186c-2.768 0-5.011-2.244-5.011-5.011s2.243-5.011 5.011-5.011h52.186c2.768 0 5.011 2.244 5.011 5.011s-2.243 5.011-5.011 5.011z" fill="#b7c5ff"/><path d="m365.577 395.568h-52.186c-2.768 0-5.011-2.244-5.011-5.011s2.243-5.011 5.011-5.011h52.186c2.768 0 5.011 2.244 5.011 5.011 0 2.768-2.243 5.011-5.011 5.011z" fill="#b7c5ff"/><path d="m365.577 417.081h-52.186c-2.768 0-5.011-2.244-5.011-5.011s2.243-5.011 5.011-5.011h52.186c2.768 0 5.011 2.244 5.011 5.011s-2.243 5.011-5.011 5.011z" fill="#b7c5ff"/><path d="m365.577 438.594h-52.186c-2.768 0-5.011-2.244-5.011-5.011s2.243-5.011 5.011-5.011h52.186c2.768 0 5.011 2.244 5.011 5.011 0 2.768-2.243 5.011-5.011 5.011z" fill="#b7c5ff"/><path d="m223.749 196.234c0-9.163-7.455-16.618-16.618-16.618s-16.618 7.455-16.618 16.618c0 4.52 1.819 8.619 4.757 11.618-2.938 2.999-4.757 7.098-4.757 11.618 0 2.761 2.239 5 5 5s5-2.239 5-5c0-3.649 2.969-6.618 6.618-6.618s6.618 2.969 6.618 6.618c0 2.761 2.239 5 5 5s5-2.239 5-5c0-4.52-1.819-8.619-4.757-11.618 2.938-2.998 4.757-7.098 4.757-11.618zm-16.618-6.617c3.649 0 6.618 2.969 6.618 6.618s-2.969 6.618-6.618 6.618-6.618-2.969-6.618-6.618c.001-3.65 2.969-6.618 6.618-6.618z" fill="#6583fe"/><path d="m430.307 423.484h-56.12c-5.527 0-10.007-4.48-10.007-10.007v-47.825c0-5.527 4.48-10.007 10.007-10.007h56.12c5.527 0 10.007 4.48 10.007 10.007v47.825c-.001 5.527-4.481 10.007-10.007 10.007z" fill="#ff7eb8"/><path d="m430.307 428.484h-56.12c-8.274 0-15.007-6.732-15.007-15.006v-47.825c0-8.275 6.732-15.007 15.007-15.007h56.12c8.274 0 15.007 6.732 15.007 15.007v47.825c-.001 8.274-6.733 15.006-15.007 15.006zm-56.12-67.838c-2.761 0-5.007 2.246-5.007 5.007v47.825c0 2.761 2.246 5.006 5.007 5.006h56.12c2.761 0 5.007-2.246 5.007-5.006v-47.825c0-2.761-2.246-5.007-5.007-5.007z" fill="#2626bc"/><path d="m395.441 406.612c-.834 0-1.678-.209-2.455-.647-2.407-1.359-3.256-4.411-1.897-6.817l13.601-24.087c1.358-2.406 4.411-3.255 6.816-1.897 2.407 1.359 3.256 4.411 1.897 6.817l-13.601 24.087c-.919 1.629-2.614 2.544-4.361 2.544z" fill="#fff"/><path d="m153.307 233.282h-56.12c-5.527 0-10.007-4.48-10.007-10.007v-47.825c0-5.527 4.48-10.007 10.007-10.007h56.12c5.527 0 10.007 4.48 10.007 10.007v47.825c-.001 5.527-4.481 10.007-10.007 10.007z" fill="#97ffd2"/><path d="m153.307 238.282h-56.12c-8.275 0-15.007-6.732-15.007-15.007v-47.825c0-8.275 6.732-15.007 15.007-15.007h56.12c8.275 0 15.007 6.732 15.007 15.007v47.825c-.001 8.275-6.732 15.007-15.007 15.007zm-56.12-67.839c-2.761 0-5.007 2.246-5.007 5.007v47.825c0 2.761 2.246 5.007 5.007 5.007h56.12c2.761 0 5.007-2.246 5.007-5.007v-47.825c0-2.761-2.246-5.007-5.007-5.007z" fill="#2626bc"/><path d="m118.441 216.41c-.834 0-1.678-.209-2.455-.647-2.407-1.359-3.256-4.411-1.897-6.817l13.601-24.087c1.358-2.406 4.411-3.255 6.816-1.897 2.407 1.359 3.256 4.411 1.897 6.817l-13.601 24.087c-.919 1.628-2.614 2.544-4.361 2.544z" fill="#01eca5"/><path d="m446.373 318.718c-1.326 0-2.598-.527-3.535-1.464l-11.023-11.024c-1.953-1.953-1.953-5.119 0-7.071l11.023-11.023c1.951-1.952 5.117-1.952 7.07 0l11.024 11.023c.938.938 1.465 2.209 1.465 3.536s-.526 2.598-1.465 3.536l-11.024 11.024c-.937.936-2.209 1.463-3.535 1.463zm-3.952-16.024 3.952 3.953 3.953-3.953-3.953-3.953z" fill="#6583fe"/><path d="m63.625 315.609c-1.28 0-2.559-.488-3.536-1.464l-11.023-11.023c-1.953-1.953-1.953-5.119 0-7.071l11.023-11.024c.938-.938 2.209-1.464 3.536-1.464s2.598.527 3.536 1.464l11.024 11.024c.938.938 1.464 2.209 1.464 3.536s-.527 2.598-1.464 3.536l-11.024 11.023c-.975.975-2.255 1.463-3.536 1.463zm-3.952-16.024 3.953 3.953 3.953-3.953-3.953-3.953z" fill="#97ffd2"/><path d="m91.18 356.059c-1.28 0-2.559-.488-3.536-1.464l-11.024-11.023c-1.953-1.953-1.953-5.119 0-7.071l11.023-11.024c.938-.938 2.209-1.464 3.536-1.464s2.598.527 3.536 1.464l11.025 11.023c.938.938 1.464 2.209 1.464 3.536s-.527 2.598-1.464 3.536l-11.024 11.023c-.977.975-2.257 1.464-3.536 1.464zm-3.952-16.024 3.953 3.953 3.953-3.953-3.953-3.953z" fill="#6583fe"/><path d="m319.002 60.452c-1.279 0-2.56-.488-3.535-1.464l-11.023-11.023c-1.953-1.953-1.953-5.119 0-7.071l11.023-11.024c.938-.938 2.209-1.464 3.535-1.464s2.598.527 3.535 1.464l11.023 11.024c1.953 1.953 1.953 5.119 0 7.071l-11.023 11.023c-.975.975-2.256 1.464-3.535 1.464zm-3.952-16.024 3.952 3.952 3.952-3.952-3.952-3.953z" fill="#ff7eb8"/></g></svg>