<svg id="Capa_1" enable-background="new 0 0 512 512" height="512" viewBox="0 0 512 512" width="512" xmlns="http://www.w3.org/2000/svg" xmlns:xlink="http://www.w3.org/1999/xlink"><linearGradient id="SVGID_1_" gradientUnits="userSpaceOnUse" x1="503.472" x2="20.423" y1="540.362" y2="-14.694"><stop offset="0" stop-color="#ffa052"/><stop offset="1" stop-color="#fff" stop-opacity="0"/></linearGradient><g><path d="m500.574 200.6c7.18-16.204 11.241-34.098 11.419-52.921.684-71.971-56.211-132.099-128.121-135.166-23.591-1.006-45.905 4.091-65.495 13.843-39.321 19.575-85.436 19.575-124.757 0-19.589-9.752-41.903-14.849-65.494-13.843-71.908 3.068-128.803 63.194-128.12 135.166.179 18.823 4.239 36.717 11.419 52.921 15.628 35.269 15.628 75.53 0 110.8-7.18 16.204-11.241 34.099-11.419 52.922-.683 71.972 56.212 132.098 128.122 135.165 23.591 1.006 45.905-4.091 65.494-13.843 39.321-19.575 85.435-19.575 124.755 0 19.589 9.752 41.904 14.849 65.495 13.843 71.909-3.067 128.804-63.194 128.121-135.165-.179-18.823-4.239-36.717-11.419-52.921-15.628-35.271-15.628-75.532 0-110.801z" fill="url(#SVGID_1_)"/><g><path d="m451.665 165.168h-3v-3c0-2.762-2.239-5-5-5s-5 2.238-5 5v3h-3c-2.761 0-5 2.238-5 5s2.239 5 5 5h3v3c0 2.762 2.239 5 5 5s5-2.238 5-5v-3h3c2.761 0 5-2.238 5-5s-2.239-5-5-5z" fill="#ffa052"/><path d="m98.666 277.924h-3v-3c0-2.762-2.239-5-5-5s-5 2.238-5 5v3h-3c-2.761 0-5 2.238-5 5s2.239 5 5 5h3v3c0 2.762 2.239 5 5 5s5-2.238 5-5v-3h3c2.761 0 5-2.238 5-5s-2.238-5-5-5z" fill="#c182f9"/><path d="m442.193 433.035h-3v-3c0-2.762-2.239-5-5-5s-5 2.238-5 5v3h-3c-2.761 0-5 2.238-5 5s2.239 5 5 5h3v3c0 2.762 2.239 5 5 5s5-2.238 5-5v-3h3c2.761 0 5-2.238 5-5s-2.238-5-5-5z" fill="#c182f9"/><path d="m90.666 125c-1.28 0-2.559-.488-3.536-1.465l-4.464-4.464-4.464 4.464c-1.953 1.953-5.118 1.953-7.071 0-1.953-1.952-1.953-5.118 0-7.07l8-8c1.953-1.953 5.118-1.953 7.071 0l8 8c1.953 1.952 1.953 5.118 0 7.07-.976.977-2.256 1.465-3.536 1.465z" fill="#ffa052"/><path d="m74.666 164.577c-1.28 0-2.559-.488-3.536-1.465l-4.464-4.464-4.464 4.464c-1.953 1.953-5.118 1.953-7.071 0-1.953-1.952-1.953-5.118 0-7.07l8-8c1.953-1.953 5.118-1.953 7.071 0l8 8c1.953 1.952 1.953 5.118 0 7.07-.976.977-2.256 1.465-3.536 1.465z" fill="#fdd250"/><g><path d="m425.661 261.594c-9.601.18-17.329 8.019-17.329 17.663v-11.333c0-8.842-6.502-16.145-14.982-17.441v-179.004c0-5.19-4.21-9.4-9.4-9.4h-255.9c-5.19 0-9.4 4.21-9.4 9.4v405.8c0 5.19 4.21 9.4 9.4 9.4h255.9c5.19 0 9.4-4.21 9.4-9.4v-48.017c28.976-7.775 50.315-34.209 50.315-65.639v-83.902c0-9.903-8.104-18.312-18.004-18.127z" fill="#590bb2" opacity=".1"/><g><path d="m393.35 44.479v405.8c0 5.19-4.21 9.4-9.4 9.4h-255.9c-5.19 0-9.4-4.21-9.4-9.4v-405.8c0-5.19 4.21-9.4 9.4-9.4h255.9c5.19 0 9.4 4.21 9.4 9.4z" fill="#fff"/><path d="m393.35 351.38v98.9c0 5.19-4.21 9.4-9.4 9.4h-255.9c-5.19 0-9.4-4.21-9.4-9.4v-98.9z" fill="#fdd250"/><path d="m393.35 351.38v67.71c-5.63 1.51-11.55 2.32-17.65 2.32h-40.73c-37.54 0-67.97-30.43-67.97-67.96v-2.07z" fill="#ffc136"/><g><g><g><g><path d="m338.26 421.41c0 2.77-2.24 5-5 5h-154.52c-2.76 0-5-2.23-5-5 0-2.76 2.24-5 5-5h154.52c2.76 0 5 2.24 5 5z" fill="#fff"/></g><g><path d="m215.176 396.911h-36.436c-2.762 0-5 2.239-5 5s2.238 5 5 5h36.436c2.762 0 5-2.239 5-5s-2.238-5-5-5z" fill="#fff"/></g><g><path d="m319.88 401.91c0 1.38-.56 2.63-1.46 3.53-.91.91-2.16 1.47-3.54 1.47h-75.88c-2.92 0-5.26-2.51-4.98-5.49.25-2.6 2.58-4.51 5.19-4.51h75.67c2.76 0 5 2.24 5 5z" fill="#fff"/></g><path d="m314.88 406.91h-21.87c-3.77-2.96-7.22-6.31-10.29-10h32.16c2.76 0 5 2.24 5 5 0 1.38-.56 2.63-1.46 3.53-.91.91-2.16 1.47-3.54 1.47z" fill="#fff4c5"/></g></g><g fill="#fff"><circle cx="196.729" cy="377.38" r="5"/><circle cx="180.479" cy="377.38" r="5"/></g></g><path d="m393.351 83.911v-39.423c0-5.197-4.213-9.41-9.41-9.41h-255.882c-5.197 0-9.41 4.213-9.41 9.41v39.423z" fill="#ffa052"/><g><g><g><path d="m200.519 83.911 36.833-48.833h-109.297c-5.194 0-9.405 4.211-9.405 9.405v39.427h81.869z" fill="#c182f9"/><g><path d="m362.655 65.943h-113.254c-2.597 0-4.703-2.106-4.703-4.703s2.105-4.703 4.703-4.703h113.255c2.597 0 4.703 2.106 4.703 4.703-.001 2.597-2.106 4.703-4.704 4.703z" fill="#ffd5b8"/></g></g></g></g></g><g><g><circle cx="317.581" cy="155.577" fill="#ffa052" r="50.582"/><g fill="#fff"><path d="m302.907 175.608h-5.331c-6.508 0-11.803-5.295-11.803-11.803v-16.457c0-6.508 5.295-11.802 11.803-11.802h5.331c6.508 0 11.803 5.294 11.803 11.802v16.457c0 6.508-5.295 11.803-11.803 11.803zm-5.331-30.061c-.994 0-1.803.809-1.803 1.802v16.457c0 .994.809 1.803 1.803 1.803h5.331c.994 0 1.803-.809 1.803-1.803v-16.457c0-.993-.809-1.802-1.803-1.802z"/><path d="m344.388 175.168h-18.108c-2.122 0-4.012-1.34-4.716-3.341-.705-2.001-.068-4.229 1.586-5.559 5.042-4.05 12.845-11.451 14.406-15.228.6-1.451.505-3.052-.248-4.176-.585-.875-1.455-1.318-2.586-1.318-1.898 0-3.442 1.544-3.442 3.441 0 2.762-2.239 5-5 5s-5-2.238-5-5c0-7.411 6.03-13.441 13.442-13.441 4.479 0 8.451 2.099 10.899 5.759 2.623 3.923 3.063 8.99 1.177 13.555-1.354 3.274-4.398 6.997-7.594 10.308h5.184c2.761 0 5 2.238 5 5s-2.239 5-5 5z"/></g></g><g><circle cx="194.419" cy="277.742" fill="#fdd250" r="50.582"/><g fill="#c182f9"><path d="m180.371 297.773h-5.331c-6.508 0-11.803-5.295-11.803-11.803v-16.457c0-6.508 5.295-11.803 11.803-11.803h5.331c6.508 0 11.803 5.295 11.803 11.803v16.457c0 6.508-5.295 11.803-11.803 11.803zm-5.331-30.062c-.994 0-1.803.809-1.803 1.803v16.457c0 .994.809 1.803 1.803 1.803h5.331c.994 0 1.803-.809 1.803-1.803v-16.457c0-.994-.809-1.803-1.803-1.803z"/><g><path d="m213.086 282.742h-9.394c-2.761 0-5-2.238-5-5s2.239-5 5-5h9.394c1.387 0 2.516-1.129 2.516-2.516s-1.128-2.516-2.516-2.516h-9.394c-2.761 0-5-2.238-5-5s2.239-5 5-5h9.394c6.901 0 12.516 5.614 12.516 12.516s-5.615 12.516-12.516 12.516z"/><path d="m213.086 297.773h-9.394c-2.761 0-5-2.238-5-5s2.239-5 5-5h9.394c1.387 0 2.516-1.129 2.516-2.516s-1.128-2.516-2.516-2.516h-9.394c-2.761 0-5-2.238-5-5s2.239-5 5-5h9.394c6.901 0 12.516 5.614 12.516 12.516s-5.615 12.516-12.516 12.516z"/></g></g></g><g><circle cx="317.581" cy="277.742" fill="#fdd250" r="50.582"/></g><g><circle cx="194.419" cy="155.577" fill="#fdd250" r="50.582"/><g fill="#c182f9"><path d="m186.078 175.608h-5.332c-6.508 0-11.803-5.295-11.803-11.803v-16.457c0-6.508 5.295-11.802 11.803-11.802h5.332c6.508 0 11.803 5.294 11.803 11.802v16.457c0 6.508-5.295 11.803-11.803 11.803zm-5.331-30.061c-.994 0-1.803.809-1.803 1.802v16.457c0 .994.809 1.803 1.803 1.803h5.332c.994 0 1.803-.809 1.803-1.803v-16.457c0-.993-.809-1.802-1.803-1.802z"/><path d="m214.894 175.608c-2.761 0-5-2.238-5-5v-25.062h-.444c-2.761 0-5-2.238-5-5s2.239-5 5-5h5.444c2.761 0 5 2.238 5 5v30.062c0 2.762-2.238 5-5 5z"/></g></g></g><g><path d="m425.661 234.594c-9.601.18-17.329 8.019-17.329 17.663v-11.333c0-9.757-7.91-17.667-17.667-17.667-9.757 0-17.667 7.91-17.667 17.667v-7.333c0-9.757-7.91-17.667-17.667-17.667-9.757 0-17.667 7.91-17.667 17.667v-55.537c0-9.902-8.103-18.312-18.004-18.126-9.601.18-17.329 8.019-17.329 17.664v105.333c0-9.757-7.91-17.667-17.667-17.667-9.757 0-17.667 7.91-17.667 17.667v53.698c0 37.538 30.431 67.969 67.969 67.969h40.729c37.538 0 67.969-30.431 67.969-67.969v-83.902c.001-9.903-8.103-18.312-18.003-18.127z" fill="#cca1ff"/><g fill="#590bb2"><path d="m191.7 454.68h-63.645c-2.429 0-4.405-1.977-4.405-4.405v-405.792c0-2.429 1.976-4.405 4.405-4.405h255.891c2.429 0 4.405 1.977 4.405 4.405v94.55c0 2.762 2.239 5 5 5s5-2.238 5-5v-94.55c0-7.943-6.462-14.405-14.405-14.405h-255.891c-7.943 0-14.405 6.462-14.405 14.405v405.791c0 7.943 6.462 14.405 14.405 14.405h63.645c2.761 0 5-2.238 5-5s-2.239-4.999-5-4.999z"/><path d="m441.65 236.078c-4.375-4.293-10.099-6.637-16.083-6.483-4.958.093-9.542 1.812-13.244 4.636-2.102-6.789-7.322-12.211-13.972-14.617v-49.98c0-2.762-2.239-5-5-5s-5 2.238-5 5v48.75c-4.779.487-9.125 2.457-12.561 5.451-3.653-7.629-11.45-12.911-20.458-12.911-4.688 0-9.048 1.431-12.667 3.878v-36.748c0-6.201-2.557-12.267-7.014-16.642-4.375-4.293-10.071-6.609-16.084-6.483-12.261.229-22.235 10.396-22.235 22.662v86.545c-3.619-2.447-7.979-3.878-12.667-3.878-12.499 0-22.667 10.168-22.667 22.666v53.698c0 40.235 32.734 72.969 72.969 72.969h40.729c4.317 0 8.541-.398 12.654-1.121v41.805c0 2.429-1.976 4.405-4.405 4.405h-161.645c-2.761 0-5 2.238-5 5s2.239 5 5 5h161.645c7.943 0 14.405-6.462 14.405-14.405v-44.302c29.175-9.555 50.314-37.023 50.314-69.351v-83.901c.001-6.202-2.556-12.268-7.014-16.643zm-2.985 100.544c0 34.721-28.248 62.969-62.969 62.969h-40.729c-34.721 0-62.969-28.248-62.969-62.969v-53.698c0-6.984 5.682-12.666 12.667-12.666 6.984 0 12.667 5.682 12.667 12.666v45.832c0 2.762 2.239 5 5 5s5-2.238 5-5v-45.832-105.333c0-6.854 5.573-12.536 12.423-12.664 3.287-.032 6.449 1.226 8.892 3.622 2.554 2.507 4.019 5.972 4.019 9.505v55.537 48.667c0 2.762 2.239 5 5 5s5-2.238 5-5v-48.667c0-6.984 5.682-12.667 12.667-12.667s12.667 5.683 12.667 12.667v7.333 41.334c0 2.762 2.239 5 5 5s5-2.238 5-5v-41.334c0-6.984 5.682-12.666 12.667-12.666 6.984 0 12.667 5.682 12.667 12.666v11.334 30c0 2.762 2.239 5 5 5s5-2.238 5-5v-30c0-6.854 5.573-12.536 12.423-12.665 3.286-.02 6.448 1.226 8.891 3.622 2.555 2.508 4.02 5.972 4.02 9.506v83.901z"/></g></g></g><path d="m338.26 421.41h-3.29c-9.07 0-17.71-1.77-25.62-5h23.91c2.76 0 5 2.24 5 5z" fill="#fff4c5"/></g></g></svg>