<svg id="Capa_1" enable-background="new 0 0 512 512" height="512" viewBox="0 0 512 512" width="512" xmlns="http://www.w3.org/2000/svg" xmlns:xlink="http://www.w3.org/1999/xlink"><linearGradient id="SVGID_1_" gradientUnits="userSpaceOnUse" x1="506.489" x2="-33.565" y1="111.273" y2="423.304"><stop offset="0" stop-color="#ffa052"/><stop offset="1" stop-color="#fff" stop-opacity="0"/></linearGradient><g><path d="m361.231 275.692c-56.758 0-102.769-46.011-102.769-102.769v-65.231c0-59.477-48.216-107.692-107.693-107.692-59.477 0-107.692 48.215-107.692 107.692v86.154c0 175.712 142.442 318.154 318.153 318.154 59.477 0 107.692-48.215 107.692-107.692v-20.923c.001-59.477-48.214-107.693-107.691-107.693z" fill="url(#SVGID_1_)"/><g><path d="m452.04 358.298v-175.96c0-8.29-6.71-15-15-15h-18.516c-32.488-50.753-88.077-85.364-151.822-88.869l-15.332-15.333c-1.952-1.952-5.117-1.952-7.071-.001-1.953 1.953-1.953 5.119 0 7.071l8.007 8.008c-44.106.833-84.636 16.548-116.768 42.321-8.707-15.267-25.124-25.567-43.957-25.567-27.936 0-50.582 22.646-50.582 50.583 0 15.968 7.405 30.2 18.962 39.47v201.258c0 8.29 6.71 15 15 15h39.008c33.018 35.963 79.473 59.402 131.329 62.253l15.333 15.333c.976.977 2.256 1.465 3.535 1.465s2.56-.488 3.535-1.464c1.953-1.953 1.953-5.119 0-7.071l-8.007-8.008c43.871-.829 84.201-16.386 116.251-41.915 8.566 15.766 25.271 26.469 44.476 26.469 27.936 0 50.582-22.646 50.582-50.582-.001-15.968-7.407-30.194-18.963-39.461zm-200.163-270.079-7.577 7.578c-1.953 1.952-1.953 5.118 0 7.07.977.977 2.256 1.465 3.536 1.465s2.559-.488 3.536-1.465l14.435-14.436c58.304 3.097 109.442 33.639 140.715 78.906h-269.283c3.154-6.599 4.924-13.986 4.924-21.788 0-5.417-.861-10.632-2.437-15.524 30.636-25.311 69.622-40.859 112.151-41.806zm8.246 365.562 7.577-7.578c1.953-1.952 1.953-5.118 0-7.07-1.951-1.953-5.119-1.953-7.07 0l-14.436 14.436c-45.976-2.442-87.492-21.955-118.331-52.291h73.278v23.5c0 4.02 4.5 6.39 7.82 4.13l13.31-9.07 13.31 9.07c3.32 2.26 7.82-.11 7.82-4.13v-23.5h126.563c.263 3.783.942 7.452 1.99 10.962-30.589 25.155-69.451 40.598-111.831 41.541z" fill="#590bb2" opacity=".1"/><g fill="#c182f9"><path d="m435.033 94.762c-2.762 0-5-2.238-5-5v-16c0-2.762 2.238-5 5-5s5 2.238 5 5v16c0 2.761-2.238 5-5 5z"/><path d="m443.033 86.762h-16c-2.762 0-5-2.238-5-5s2.238-5 5-5h16c2.762 0 5 2.238 5 5s-2.238 5-5 5z"/></g><g fill="#fdd250"><path d="m123.96 442.18c-2.761 0-5-2.238-5-5v-16c0-2.762 2.239-5 5-5s5 2.238 5 5v16c0 2.761-2.239 5-5 5z"/><path d="m131.502 434.18h-15.085c-2.761 0-5-2.238-5-5s2.239-5 5-5h15.085c2.761 0 5 2.238 5 5s-2.238 5-5 5z"/></g><path d="m369.837 48.816c-1.279 0-2.56-.488-3.535-1.465l-4.465-4.464-4.465 4.464c-1.951 1.953-5.119 1.953-7.07 0-1.953-1.952-1.953-5.118 0-7.07l8-8c1.951-1.953 5.119-1.953 7.07 0l8 8c1.953 1.952 1.953 5.118 0 7.07-.976.977-2.256 1.465-3.535 1.465z" fill="#ffa052"/><path d="m348.388 454.184c-1.279 0-2.56-.488-3.535-1.465l-4.465-4.464-4.465 4.464c-1.951 1.953-5.119 1.953-7.07 0-1.953-1.952-1.953-5.118 0-7.07l8-8c1.951-1.953 5.119-1.953 7.07 0l8 8c1.953 1.952 1.953 5.118 0 7.07-.976.976-2.256 1.465-3.535 1.465z" fill="#ffa052"/><path d="m296.187 473.184c-1.279 0-2.56-.488-3.535-1.465l-4.465-4.464-4.465 4.464c-1.951 1.953-5.119 1.953-7.07 0-1.953-1.952-1.953-5.118 0-7.07l8-8c1.951-1.953 5.119-1.953 7.07 0l8 8c1.953 1.952 1.953 5.118 0 7.07-.976.976-2.256 1.465-3.535 1.465z" fill="#c182f9"/><g><g><g><g><path d="m452.04 155.34v203.94c0 8.29-6.71 15-15 15h-362.08c-8.29 0-15-6.71-15-15v-203.94c0-8.29 6.71-15 15-15h362.08c8.29 0 15 6.71 15 15z" fill="#ffa052"/><path d="m141.79 140.34c-2.98 25.09-24.32 44.53-50.21 44.53-11.97 0-22.96-4.15-31.62-11.1v-18.43c0-8.29 6.71-15 15-15z" fill="#ff8736"/><path d="m419 140.338v210.18c0 5.52-4.48 10-10 10h-143c-2.76 0-5.26-1.12-7.07-2.93s-2.93-4.31-2.93-7.07c0 5.52-4.48 10-10 10h-143c-5.52 0-10-4.48-10-10v-210.18z" fill="#ff8736"/><g><path d="m243.4 336.158v61.62c0 4.02-4.5 6.39-7.82 4.13l-13.31-9.07-13.31 9.07c-3.32 2.26-7.82-.11-7.82-4.13v-61.62z" fill="#ffe783"/><path d="m201.14 336.158h42.26v24.36h-42.26z" fill="#fdd250"/></g></g><g><path d="m256 143.55v189.42c0 5.52-4.48 10-10 10h-143c-5.52 0-10-4.48-10-10v-204.42c0-5.52 4.48-10 10-10h128c13.81 0 25 11.19 25 25z" fill="#fff"/><path d="m142.16 134.28c0 27.47-21.88 49.82-49.16 50.57v-56.3c0-5.52 4.48-10 10-10h36.66c1.62 4.95 2.5 10.24 2.5 15.73z" fill="#efebff"/><path d="m266 342.968h142.999c5.523 0 10-4.477 10-10v-204.418c0-5.523-4.477-10-10-10h-127.999c-13.807 0-25 11.193-25 25v189.418c0 5.523 4.477 10 10 10z" fill="#fff"/></g><g><g><g><g><g><path d="m325.946 196.871h-43.52c-2.762 0-5-2.239-5-5s2.238-5 5-5h43.52c2.762 0 5 2.239 5 5s-2.238 5-5 5z" fill="#ffa052"/></g><g><path d="m325.946 216.373h-43.52c-2.762 0-5-2.239-5-5s2.238-5 5-5h43.52c2.762 0 5 2.239 5 5s-2.238 5-5 5z" fill="#ffa052"/></g><g><path d="m325.946 235.876h-43.52c-2.762 0-5-2.239-5-5s2.238-5 5-5h43.52c2.762 0 5 2.239 5 5s-2.238 5-5 5z" fill="#ffa052"/></g></g><g><g><path d="m388.907 196.871h-43.52c-2.762 0-5-2.239-5-5s2.238-5 5-5h43.52c2.762 0 5 2.239 5 5s-2.238 5-5 5z" fill="#ffa052"/></g><g><path d="m388.907 216.373h-43.52c-2.762 0-5-2.239-5-5s2.238-5 5-5h43.52c2.762 0 5 2.239 5 5s-2.238 5-5 5z" fill="#ffa052"/></g><g><path d="m388.907 235.876h-43.52c-2.762 0-5-2.239-5-5s2.238-5 5-5h43.52c2.762 0 5 2.239 5 5s-2.238 5-5 5z" fill="#ffa052"/></g></g></g><g><g><g><path d="m325.946 255.379h-43.52c-2.762 0-5-2.239-5-5s2.238-5 5-5h43.52c2.762 0 5 2.239 5 5s-2.238 5-5 5z" fill="#ffa052"/></g><g><path d="m325.946 274.881h-43.52c-2.762 0-5-2.239-5-5s2.238-5 5-5h43.52c2.762 0 5 2.239 5 5s-2.238 5-5 5z" fill="#ffa052"/></g><g><path d="m325.946 294.384h-43.52c-2.762 0-5-2.239-5-5s2.238-5 5-5h43.52c2.762 0 5 2.239 5 5s-2.238 5-5 5z" fill="#ffa052"/></g><g><path d="m325.946 313.887h-43.52c-2.762 0-5-2.239-5-5s2.238-5 5-5h43.52c2.762 0 5 2.239 5 5s-2.238 5-5 5z" fill="#ffa052"/></g></g><g><g><path d="m388.907 255.379h-43.52c-2.762 0-5-2.239-5-5s2.238-5 5-5h43.52c2.762 0 5 2.239 5 5s-2.238 5-5 5z" fill="#ffa052"/></g><g><path d="m388.907 274.881h-43.52c-2.762 0-5-2.239-5-5s2.238-5 5-5h43.52c2.762 0 5 2.239 5 5s-2.238 5-5 5z" fill="#ffa052"/></g><g><path d="m388.907 294.384h-43.52c-2.762 0-5-2.239-5-5s2.238-5 5-5h43.52c2.762 0 5 2.239 5 5s-2.238 5-5 5z" fill="#ffa052"/></g><g><path d="m388.907 313.887h-43.52c-2.762 0-5-2.239-5-5s2.238-5 5-5h43.52c2.762 0 5 2.239 5 5s-2.238 5-5 5z" fill="#ffa052"/></g></g></g></g><g><g><g><g><path d="m171.61 152.87c0 2.76-2.24 5-5 5h-43.52c-2.76 0-5-2.24-5-5 0-2.77 2.24-5 5-5h43.52c2.76 0 5 2.23 5 5z" fill="#ffa052"/></g><g><path d="m171.61 172.37c0 2.76-2.24 5-5 5h-43.52c-1.22 0-2.33-.44-3.2-1.17-1.1-.91-1.8-2.29-1.8-3.83 0-2.76 2.24-5 5-5h43.52c2.76 0 5 2.24 5 5z" fill="#ffa052"/></g><path d="m123.09 167.37h6.74c-2.9 3.37-6.25 6.34-9.94 8.83-1.1-.91-1.8-2.29-1.8-3.83 0-2.76 2.24-5 5-5z" fill="#ff8736"/><path d="m140.31 147.87c-.97 3.5-2.31 6.85-3.98 10h-13.24c-2.76 0-5-2.24-5-5 0-2.77 2.24-5 5-5z" fill="#ff8736"/><g><path d="m166.613 196.871h-43.52c-2.762 0-5-2.239-5-5s2.238-5 5-5h43.52c2.762 0 5 2.239 5 5s-2.239 5-5 5z" fill="#ffa052"/></g><g><path d="m166.613 216.373h-43.52c-2.762 0-5-2.239-5-5s2.238-5 5-5h43.52c2.762 0 5 2.239 5 5s-2.239 5-5 5z" fill="#ffa052"/></g><g><path d="m166.613 235.876h-43.52c-2.762 0-5-2.239-5-5s2.238-5 5-5h43.52c2.762 0 5 2.239 5 5s-2.239 5-5 5z" fill="#ffa052"/></g></g><g><g><path d="m229.573 157.865h-43.52c-2.762 0-5-2.239-5-5s2.238-5 5-5h43.52c2.762 0 5 2.239 5 5s-2.238 5-5 5z" fill="#ffa052"/></g><g><path d="m229.573 177.368h-43.52c-2.762 0-5-2.239-5-5s2.238-5 5-5h43.52c2.762 0 5 2.239 5 5s-2.238 5-5 5z" fill="#ffa052"/></g><g><path d="m229.573 196.871h-43.52c-2.762 0-5-2.239-5-5s2.238-5 5-5h43.52c2.762 0 5 2.239 5 5s-2.238 5-5 5z" fill="#ffa052"/></g><g><path d="m229.573 216.373h-43.52c-2.762 0-5-2.239-5-5s2.238-5 5-5h43.52c2.762 0 5 2.239 5 5s-2.238 5-5 5z" fill="#ffa052"/></g><g><path d="m229.573 235.876h-43.52c-2.762 0-5-2.239-5-5s2.238-5 5-5h43.52c2.762 0 5 2.239 5 5s-2.238 5-5 5z" fill="#ffa052"/></g></g></g><g><g><g><path d="m166.613 294.384h-43.52c-2.762 0-5-2.239-5-5s2.238-5 5-5h43.52c2.762 0 5 2.239 5 5s-2.239 5-5 5z" fill="#ffa052"/></g><g><path d="m166.613 313.887h-43.52c-2.762 0-5-2.239-5-5s2.238-5 5-5h43.52c2.762 0 5 2.239 5 5s-2.239 5-5 5z" fill="#ffa052"/></g></g><g><g><path d="m229.573 294.384h-43.52c-2.762 0-5-2.239-5-5s2.238-5 5-5h43.52c2.762 0 5 2.239 5 5s-2.238 5-5 5z" fill="#ffa052"/></g><g><path d="m229.573 313.887h-43.52c-2.762 0-5-2.239-5-5s2.238-5 5-5h43.52c2.762 0 5 2.239 5 5s-2.238 5-5 5z" fill="#ffa052"/></g></g></g></g></g></g></g></g><g><g><circle cx="91.581" cy="118.55" fill="#c182f9" r="50.582"/><path d="m108.194 112.743c0-9.161-7.453-16.613-16.613-16.613s-16.613 7.453-16.613 16.613c0 4.518 1.818 8.615 4.755 11.613-2.936 2.998-4.755 7.095-4.755 11.613 0 2.761 2.238 5 5 5s5-2.239 5-5c0-3.646 2.967-6.613 6.613-6.613s6.613 2.967 6.613 6.613c0 2.761 2.238 5 5 5s5-2.239 5-5c0-4.518-1.818-8.615-4.755-11.613 2.937-2.997 4.755-7.095 4.755-11.613zm-16.613-6.613c3.646 0 6.613 2.967 6.613 6.613s-2.967 6.613-6.613 6.613-6.613-2.967-6.613-6.613 2.966-6.613 6.613-6.613z" fill="#fff"/></g><g><circle cx="420.419" cy="370.758" fill="#fdd250" r="50.582"/><path d="m437.033 364.951c0-9.161-7.453-16.613-16.613-16.613s-16.613 7.453-16.613 16.613c0 4.518 1.818 8.615 4.755 11.613-2.936 2.998-4.755 7.095-4.755 11.613 0 2.761 2.238 5 5 5s5-2.239 5-5c0-3.646 2.967-6.613 6.613-6.613s6.613 2.967 6.613 6.613c0 2.761 2.238 5 5 5s5-2.239 5-5c0-4.518-1.818-8.615-4.755-11.613 2.936-2.998 4.755-7.095 4.755-11.613zm-16.614-6.613c3.646 0 6.613 2.967 6.613 6.613s-2.967 6.613-6.613 6.613-6.613-2.967-6.613-6.613 2.967-6.613 6.613-6.613z" fill="#fff"/></g></g><path d="m230.073 273.548h-106.48c-2.761 0-5-2.239-5-5v-17.381c0-2.761 2.239-5 5-5h106.48c2.761 0 5 2.239 5 5v17.381c0 2.761-2.238 5-5 5z" fill="#c182f9"/><path d="m388.907 175.246h-106.48c-2.761 0-5-2.239-5-5v-17.381c0-2.761 2.239-5 5-5h106.48c2.761 0 5 2.239 5 5v17.381c0 2.762-2.239 5-5 5z" fill="#fdd250"/><path d="m457.044 329v-173.664c0-11.028-8.972-20-20-20h-13.045v-6.786c0-8.271-6.729-15-15-15h-11.144c-33.009-35.866-79.388-59.244-131.16-62.089l-15.324-15.326c-1.952-1.952-5.117-1.952-7.071-.001-1.953 1.953-1.953 5.119 0 7.071l8 8.001c-42.311.801-81.321 15.307-112.792 39.242-9.669-16.427-27.526-27.482-47.927-27.482-30.648 0-55.583 24.934-55.583 55.582 0 16.628 7.349 31.563 18.958 41.758v78.726c0 2.762 2.239 5 5 5s5-2.238 5-5v-71.707c6.923 3.794 14.739 6.147 23.044 6.678v158.963c0 8.271 6.729 15 15 15h93.143v21.312h-121.187c-5.514 0-10-4.486-10-10v-89.646c0-2.762-2.239-5-5-5s-5 2.238-5 5v89.646c0 11.028 8.972 20 20 20h43.782c32.651 33.125 77.152 54.536 126.56 57.253l15.332 15.332c.976.977 2.256 1.465 3.535 1.465s2.56-.488 3.535-1.464c1.953-1.953 1.953-5.119 0-7.071l-8-8.001c42.076-.796 80.893-15.141 112.272-38.838 9.539 16.924 27.675 28.385 48.447 28.385 30.648 0 55.582-24.934 55.582-55.582.001-16.627-7.348-31.562-18.957-41.757zm-20-183.664c5.514 0 10 4.486 10 10v166.645c-6.924-3.794-14.74-6.147-23.045-6.678v-169.967zm-23.045-16.786v187.008c-15.74 1.82-29.495 10.235-38.422 22.41h-33.943c-2.762 0-5 2.238-5 5s2.238 5 5 5h28.11c-2.951 6.535-4.67 13.735-4.87 21.312h-116.476v-21.522c2.895-.469 5.51-1.763 7.602-3.641 2.657 2.386 6.156 3.852 10.001 3.852h45.033c2.762 0 5-2.238 5-5s-2.238-5-5-5h-45.034c-2.757 0-5-2.243-5-5v-189.419c0-11.028 8.972-20 20-20h127.999c2.757 0 5 2.243 5 5zm-162.116-67.337-7.584 7.584c-1.953 1.952-1.953 5.118 0 7.07.977.977 2.256 1.465 3.536 1.465s2.559-.488 3.536-1.465l14.437-14.438c45.888 2.438 87.332 21.882 118.152 52.12h-102.96c-10.425 0-19.622 5.348-25 13.443-5.379-8.094-14.575-13.443-25-13.443h-84.072c-.432-4.819-1.474-9.465-3.062-13.854 29.975-23.345 67.379-37.58 108.017-38.482zm-205.885 57.337c0-25.134 20.448-45.582 45.583-45.582s45.583 20.448 45.583 45.582c0 25.135-20.448 45.583-45.583 45.583s-45.583-20.448-45.583-45.583zm52.002 214.418v-159.218c25.998-3.005 46.58-24.011 48.927-50.201h84.072c11.028 0 20 8.972 20 20v189.418c0 2.757-2.243 5-5 5h-142.999c-2.757.001-5-2.242-5-4.999zm140.403 15 .022 49.825s-.009-.004-.027-.016l-13.313-9.069c-.849-.579-1.832-.868-2.815-.868s-1.966.289-2.815.868l-13.313 9.069v-49.81h32.261zm21.714 78.819 7.583-7.584c1.953-1.952 1.953-5.118 0-7.07-1.951-1.953-5.119-1.953-7.07 0l-14.434 14.434c-43.394-2.305-82.809-19.82-113.03-47.287h62.978v18.498c0 3.716 2.041 7.104 5.326 8.841 1.472.777 3.076 1.163 4.676 1.163 1.971 0 3.934-.585 5.628-1.74l10.498-7.151 10.498 7.151c3.069 2.093 7.02 2.313 10.304.577 3.285-1.737 5.326-5.125 5.326-8.841v-18.498h117.093c.494 3.197 1.275 6.298 2.291 9.293-29.918 23.184-67.188 37.314-107.667 38.214zm160.303-10.447c-25.135 0-45.583-20.448-45.583-45.582 0-25.135 20.448-45.583 45.583-45.583 25.134 0 45.582 20.448 45.582 45.583 0 25.134-20.448 45.582-45.582 45.582z" fill="#590bb2"/></g></g></svg>