<svg id="Capa_1" enable-background="new 0 0 512 512" height="512" viewBox="0 0 512 512" width="512" xmlns="http://www.w3.org/2000/svg" xmlns:xlink="http://www.w3.org/1999/xlink"><linearGradient id="SVGID_1_" gradientUnits="userSpaceOnUse" x1="-18.666" x2="528.477" y1="193.701" y2="343.368"><stop offset=".0485" stop-color="#ffdbed"/><stop offset=".9993" stop-color="#d2deff"/></linearGradient><g><path d="m382.606 171.517c-.192-.001-.385-.002-.577-.002-32.034-.05-62.385-13.844-83.44-37.986-31.366-35.964-77.6-58.622-129.121-58.393-93.512.415-170.663 78.981-169.454 172.486 1.203 92.986 76.955 167.995 170.227 167.995 26.343 0 51.286-5.987 73.547-16.672 19.194-9.213 42.065-6.784 58.968 6.161 21.863 16.745 49.19 26.713 78.846 26.763 71.382.119 129.981-58.02 130.396-129.401.418-72.049-57.442-130.527-129.392-130.951z" fill="url(#SVGID_1_)"/><path d="m278.995 355.992c2.761 0 4.999-2.238 4.999-4.999v-8.653c0-2.761-2.238-4.999-4.999-4.999h-1v-16.355c0-5.519-4.479-9.998-9.998-9.998h-23.995c-5.519 0-9.998 4.479-9.998 9.998v16.355h-1c-2.761 0-4.999 2.238-4.999 4.999v8.653c0 2.761 2.238 4.999 4.999 4.999h1v77.102h-1c-2.761 0-4.999 2.238-4.999 4.999v8.653c0 2.761 2.238 4.999 4.999 4.999h1v15.97c0 5.529 4.479 9.998 9.998 9.998h23.995c5.519 0 9.998-4.469 9.998-9.998v-15.97h1c2.761 0 4.999-2.238 4.999-4.999v-8.653c0-2.761-2.238-4.999-4.999-4.999h-1v-77.102z" fill="#2626bc" opacity=".1"/><path d="m482.502 108.3h-95.504c-15.693-57.633-68.392-100.013-130.998-100.013s-115.305 42.38-130.998 100.013h-95.504c-5.519 0-9.998 4.479-9.998 9.998v48.98c0 5.529 4.479 9.998 9.998 9.998h94.838c14.821 58.92 68.145 102.544 131.664 102.544s116.844-43.624 131.664-102.544h94.838c5.519 0 9.998-4.469 9.998-9.998v-48.98c0-5.519-4.479-9.998-9.998-9.998z" fill="#2626bc" opacity=".1"/><circle cx="256" cy="165.053" fill="#8399fe" r="135.766"/><path d="m492.5 139.298v48.98c0 5.529-4.479 9.998-9.998 9.998h-453.004c-5.519 0-9.998-4.469-9.998-9.998v-48.98c0-5.519 4.479-9.998 9.998-9.998h453.004c5.519 0 9.998 4.479 9.998 9.998z" fill="#fff"/><path d="m384.205 209.835c4.901-14.017 7.565-29.086 7.565-44.783 0-7.33-.58-14.52-1.7-21.54h-268.14c-1.12 7.02-1.7 14.21-1.7 21.54 0 15.698 2.664 30.766 7.565 44.783z" fill="#6583fe"/><path d="m391.761 165.053c0 11.458-1.42 22.595-4.099 33.223h-263.324c-2.679-10.628-4.099-21.765-4.099-33.223 0-12.377 1.66-24.365 4.759-35.752h262.005c3.098 11.387 4.758 23.374 4.758 35.752z" fill="#ffc4df"/><path d="m87.619 198.28h-58.117c-5.522 0-9.998-4.476-9.998-9.998v-48.985c0-5.522 4.476-9.998 9.998-9.998h58.117z" fill="#b7c5ff"/><path d="m277.995 341.984v146.729c0 5.529-4.479 9.998-9.998 9.998h-23.995c-5.519 0-9.998-4.469-9.998-9.998v-146.729c0-5.519 4.479-9.998 9.998-9.998h23.995c5.519.001 9.998 4.48 9.998 9.998z" fill="#ff7eb8"/><path d="m234.004 368.839h43.991v18.646h-43.991z" fill="#ff5ba8"/><path d="m234.004 464.588h43.991v18.656h-43.991z" fill="#ff5ba8"/><path d="m278.995 376.992h-45.99c-2.761 0-4.999-2.238-4.999-4.999v-8.653c0-2.761 2.238-4.999 4.999-4.999h45.99c2.761 0 4.999 2.238 4.999 4.999v8.653c0 2.761-2.238 4.999-4.999 4.999z" fill="#97ffd2"/><path d="m278.995 472.744h-45.99c-2.761 0-4.999-2.238-4.999-4.999v-8.653c0-2.761 2.238-4.999 4.999-4.999h45.99c2.761 0 4.999 2.238 4.999 4.999v8.653c0 2.761-2.238 4.999-4.999 4.999z" fill="#97ffd2"/><g fill="#ff5ba8"><path d="m214.676 182.305c-1.819 0-3.509-.991-4.39-2.61l-4.207-7.731-4.207 7.731c-.953 1.753-2.857 2.766-4.847 2.589-1.988-.183-3.677-1.53-4.296-3.427l-8.001-24.506c-.857-2.624.576-5.446 3.201-6.303 2.623-.854 5.447.576 6.303 3.201l4.401 13.481 3.055-5.613c.875-1.609 2.56-2.61 4.391-2.61s3.516 1.001 4.391 2.61l3.055 5.613 4.401-13.481c.857-2.624 3.681-4.059 6.303-3.201 2.624.857 4.058 3.679 3.2 6.303l-8.001 24.506c-.619 1.897-2.308 3.244-4.296 3.427-.153.014-.305.021-.456.021z"/><path d="m264.597 182.305c-1.819 0-3.509-.991-4.39-2.61l-4.207-7.73-4.207 7.731c-.953 1.753-2.853 2.766-4.847 2.589-1.988-.183-3.677-1.53-4.296-3.427l-8.001-24.506c-.857-2.624.576-5.446 3.201-6.303 2.625-.854 5.446.576 6.303 3.201l4.401 13.481 3.055-5.613c.875-1.609 2.56-2.61 4.391-2.61s3.516 1.001 4.391 2.61l3.055 5.613 4.401-13.481c.857-2.624 3.682-4.059 6.303-3.201 2.624.857 4.058 3.679 3.2 6.303l-8.001 24.506c-.619 1.897-2.308 3.244-4.296 3.427-.153.013-.305.02-.456.02z"/><path d="m314.518 182.305c-1.819 0-3.509-.991-4.39-2.61l-4.207-7.731-4.207 7.731c-.953 1.753-2.855 2.766-4.847 2.589-1.988-.183-3.677-1.53-4.296-3.427l-8.001-24.506c-.857-2.624.576-5.446 3.201-6.303 2.625-.854 5.447.576 6.303 3.201l4.401 13.481 3.055-5.613c.875-1.609 2.56-2.61 4.391-2.61s3.516 1.001 4.391 2.61l3.055 5.613 4.401-13.481c.857-2.624 3.68-4.059 6.303-3.201 2.624.857 4.058 3.679 3.201 6.303l-8.001 24.506c-.619 1.897-2.308 3.244-4.296 3.427-.154.014-.306.021-.457.021z"/></g><g fill="#2626bc"><path d="m256 274.897c37.891 0 72.618-19.146 92.897-51.215 1.477-2.333.78-5.422-1.553-6.897-2.338-1.476-5.423-.779-6.898 1.554-18.436 29.153-50.005 46.558-84.446 46.558s-66.01-17.405-84.446-46.559c-1.475-2.333-4.561-3.029-6.898-1.554-2.333 1.476-3.029 4.564-1.553 6.897 20.279 32.071 55.006 51.216 92.897 51.216z"/><path d="m348.897 106.423c-20.279-32.069-55.008-51.214-92.897-51.214s-72.618 19.146-92.897 51.214c-1.477 2.334-.78 5.423 1.553 6.898 2.334 1.474 5.423.78 6.898-1.553 18.437-29.154 50.006-46.56 84.446-46.56s66.01 17.405 84.446 46.56c.951 1.504 2.572 2.328 4.23 2.328.913 0 1.838-.251 2.668-.775 2.334-1.476 3.03-4.564 1.553-6.898z"/><path d="m482.498 124.299h-91.756c-17.518-57.809-71.291-100.012-134.742-100.012s-117.224 42.203-134.742 100.012h-91.756c-8.27 0-14.998 6.729-14.998 14.998v48.985c0 8.27 6.729 14.998 14.998 14.998h91.01c16.263 57.565 68.311 100.258 130.488 102.441v21.265h-6.997c-8.27 0-14.998 6.729-14.998 14.998v12.197c-3.527 1.547-5.999 5.067-5.999 9.158v8.653c0 4.091 2.472 7.612 5.999 9.158v68.783c-3.527 1.547-5.999 5.067-5.999 9.158v8.653c0 4.091 2.472 7.612 5.999 9.158v11.814c0 8.27 6.729 14.998 14.998 14.998h23.994c8.27 0 14.998-6.729 14.998-14.998v-11.814c3.527-1.547 5.999-5.067 5.999-9.158v-8.653c0-4.091-2.472-7.612-5.999-9.158v-45.401c0-2.762-2.238-5-5-5s-5 2.238-5 5v44.562h-33.99v-67.102h39.99c5.514 0 9.999-4.485 9.999-9.999v-8.653c0-4.091-2.472-7.612-5.999-9.158v-12.197c0-8.27-6.729-14.998-14.998-14.998h-6.997v-21.265c62.177-2.183 114.225-44.876 130.489-102.441h91.01c8.27 0 14.998-6.729 14.998-14.998v-48.985c-.001-8.271-6.73-14.999-14.999-14.999zm-203.504 334.792.007 8.652-45.995.001-.001-8.652zm-10.997 34.625h-23.994c-2.756 0-4.998-2.242-4.998-4.998v-10.974h33.99v10.974c0 2.755-2.242 4.998-4.998 4.998zm-34.991-121.723-.001-8.652 45.989-.001.007 8.652zm39.989-30.009v11.356h-33.99v-11.356c0-2.756 2.242-4.998 4.998-4.998h23.994c2.756 0 4.998 2.242 4.998 4.998zm-16.995-307.697c57.879 0 107.088 37.803 124.255 90.012h-248.51c17.167-52.209 66.375-90.012 124.255-90.012zm-231.496 153.995v-48.985c0-2.756 2.242-4.998 4.998-4.998h53.117v58.981h-53.117c-2.756 0-4.998-2.242-4.998-4.998zm68.115 4.998v-58.981h26.009c-2.216 9.903-3.393 20.193-3.393 30.755 0 9.665.98 19.105 2.844 28.227zm163.381 102.539c-72.104 0-130.766-58.661-130.766-130.766 0-10.591 1.275-20.888 3.662-30.755h254.207c2.388 9.867 3.662 20.164 3.662 30.755 0 9.689-1.069 19.133-3.077 28.227h-231.897c-2.762 0-5 2.238-5 5s2.238 5 5 5h229.27c-16.39 53.513-66.251 92.539-125.061 92.539zm231.496-107.537c0 2.756-2.242 4.998-4.998 4.998h-88.577c1.864-9.122 2.844-18.562 2.844-28.227 0-10.562-1.178-20.852-3.393-30.755h89.126c2.756 0 4.998 2.242 4.998 4.998z"/><path d="m68.79 149.705c-6.012-6.014-15.795-6.014-21.807 0-4.774 4.773-5.743 11.919-2.936 17.672l-7.085 7.085c-1.953 1.952-1.953 5.118 0 7.07.976.977 2.256 1.465 3.535 1.465s2.56-.488 3.535-1.465l7.085-7.085c2.13 1.039 4.447 1.574 6.769 1.574 3.949 0 7.897-1.503 10.903-4.51 6.014-6.011 6.014-15.794.001-21.806zm-7.07 14.736c-2.113 2.113-5.553 2.113-7.666 0s-2.113-5.553 0-7.666c1.057-1.057 2.445-1.585 3.833-1.585s2.776.528 3.833 1.585c2.113 2.113 2.113 5.553 0 7.666z"/></g><path d="m380.766 333.753c-2.762 0-5-2.238-5-5 0-3.306-2.689-5.995-5.995-5.995-2.762 0-5-2.238-5-5s2.238-5 5-5c3.306 0 5.995-2.689 5.995-5.995 0-2.762 2.238-5 5-5s5 2.238 5 5c0 3.306 2.689 5.995 5.995 5.995 2.762 0 5 2.238 5 5s-2.238 5-5 5c-3.306 0-5.995 2.689-5.995 5.995 0 2.761-2.238 5-5 5z" fill="#ff7eb8"/><path d="m412.362 100.647c-2.762 0-5-2.238-5-5 0-3.306-2.689-5.995-5.995-5.995-2.762 0-5-2.238-5-5s2.238-5 5-5c3.306 0 5.995-2.689 5.995-5.995 0-2.762 2.238-5 5-5s5 2.238 5 5c0 3.306 2.689 5.995 5.995 5.995 2.762 0 5 2.238 5 5s-2.238 5-5 5c-3.306 0-5.995 2.689-5.995 5.995 0 2.762-2.238 5-5 5z" fill="#97ffd2"/><path d="m87.619 261.449c-2.762 0-5-2.238-5-5 0-3.306-2.689-5.995-5.995-5.995-2.762 0-5-2.238-5-5s2.238-5 5-5c3.306 0 5.995-2.689 5.995-5.995 0-2.762 2.238-5 5-5s5 2.238 5 5c0 3.306 2.689 5.995 5.995 5.995 2.762 0 5 2.238 5 5s-2.238 5-5 5c-3.306 0-5.995 2.689-5.995 5.995 0 2.762-2.238 5-5 5z" fill="#ff7eb8"/><path d="m120.234 324.99c-1.279 0-2.56-.488-3.535-1.465l-10.994-10.994c-1.953-1.952-1.953-5.118 0-7.07l10.994-10.994c1.951-1.953 5.119-1.953 7.07 0l10.994 10.994c1.953 1.952 1.953 5.118 0 7.07l-10.994 10.994c-.975.976-2.255 1.465-3.535 1.465zm-3.923-15.994 3.923 3.923 3.923-3.923-3.923-3.923z" fill="#6583fe"/></g></svg>