<svg id="Capa_1" enable-background="new 0 0 512 512" height="512" viewBox="0 0 512 512" width="512" xmlns="http://www.w3.org/2000/svg" xmlns:xlink="http://www.w3.org/1999/xlink"><linearGradient id="SVGID_1_" gradientUnits="userSpaceOnUse" x1="600.494" x2="-111.506" y1="64.098" y2="552.098"><stop offset=".0023" stop-color="#ffc599"/><stop offset=".992" stop-color="#ffe8dc" stop-opacity="0"/></linearGradient><g><path d="m465.257 164.114c-14.861-17.312-24.645-38.356-29.218-60.708-3.878-18.954-12.095-35.401-24.961-48.267-58.773-58.773-192.264-20.572-298.161 85.325s-144.098 239.387-85.325 298.16c27.937 27.937 72.757 33.955 123.469 21.212 29.453-7.401 60.532-4.287 88.29 8.03 23.202 10.295 48.799 16.173 75.724 16.566 105.676 1.543 193.748-82.552 196.839-188.195 1.479-50.505-16.354-96.822-46.657-132.123z" fill="url(#SVGID_1_)"/><g><path d="m371.488 82.693h-230.976c-5.523 0-10 4.477-10 10v183.078c0 5.523 4.477 10 10 10h77.786v84.868l-19.19-19.19c-10.919-10.919-28.618-10.929-39.548-.022-.11.11-.221.221-.331.331-7.195 7.179-7.203 18.831-.017 26.018l29.294 29.294c11.807 11.807 20.748 25.94 26.382 41.319 7.659 20.909 27.42 34.917 49.687 34.917h44.827c29.17 0 52.816-23.647 52.816-52.816v-92.189c0-9.936-8.054-17.99-17.99-17.99s-17.99 8.054-17.99 17.99v-8.42c0-9.936-8.054-17.99-17.99-17.99-9.936 0-17.99 8.054-17.99 17.99v-8.306c0-9.936-8.054-17.99-17.99-17.99s-17.99 8.054-17.99 17.99v-35.804h117.21c5.523 0 10-4.477 10-10v-183.078c0-5.523-4.477-10-10-10z" fill="#00c" opacity=".1"/><g><path d="m371.488 258.772h-230.976c-5.523 0-10-4.477-10-10v-183.079c0-5.523 4.477-10 10-10h230.976c5.523 0 10 4.477 10 10v183.078c0 5.524-4.477 10.001-10 10.001z" fill="#ff9494"/><g><g><path d="m316.839 244.251c-2.761 0-5-2.238-5-5v-24.844c0-41.659-33.892-75.551-75.551-75.551s-75.551 33.892-75.551 75.551v24.844c0 2.762-2.239 5-5 5s-5-2.238-5-5v-24.844c0-47.173 38.378-85.551 85.551-85.551s85.551 38.378 85.551 85.551v24.844c0 2.761-2.239 5-5 5z" fill="#ff6c6c"/></g><g><path d="m296.441 244.251c-2.761 0-5-2.238-5-5v-25.342c0-30.411-24.742-55.152-55.153-55.152s-55.152 24.741-55.152 55.152v25.342c0 2.762-2.239 5-5 5s-5-2.238-5-5v-25.342c0-35.925 29.227-65.152 65.152-65.152 35.926 0 65.153 29.228 65.153 65.152v25.342c0 2.761-2.239 5-5 5z" fill="#ff4d4d"/></g><g><path d="m275.477 244.251c-2.761 0-5-2.238-5-5v-26.682c0-18.853-15.337-34.189-34.189-34.189s-34.189 15.337-34.189 34.189v26.682c0 2.762-2.239 5-5 5s-5-2.238-5-5v-26.682c0-24.366 19.823-44.189 44.189-44.189s44.189 19.823 44.189 44.189v26.682c0 2.761-2.239 5-5 5z" fill="#ff2c2c"/></g><path d="m344.228 293.312c-9.936 0-17.99 8.054-17.99 17.99v-8.42c0-9.936-8.054-17.99-17.99-17.99-9.936 0-17.99 8.054-17.99 17.99v-8.306c0-9.936-8.054-17.99-17.99-17.99-9.936 0-17.99 8.054-17.99 17.99v-83.251c0-9.936-8.054-17.99-17.99-17.99-9.936 0-17.99 8.054-17.99 17.99v132.315l-19.19-19.19c-10.918-10.918-28.618-10.929-39.548-.022-.11.11-.221.221-.331.331-7.195 7.179-7.203 18.831-.017 26.018l29.294 29.294c11.807 11.807 20.748 25.94 26.382 41.319 7.659 20.909 27.42 34.917 49.687 34.917h44.827c29.17 0 52.816-23.647 52.816-52.816v-92.189c0-9.936-8.054-17.99-17.99-17.99z" fill="#ffab66"/><path d="m381.488 165.5c2.761 0 5-2.238 5-5v-94.807c0-8.271-6.729-15-15-15h-230.976c-8.271 0-15 6.729-15 15v183.078c0 8.271 6.729 15 15 15h72.786v67.797l-10.655-10.654c-12.846-12.846-33.756-12.857-46.619-.021l-.328.326c-4.427 4.417-6.866 10.293-6.87 16.546-.003 6.251 2.429 12.127 6.849 16.547l29.294 29.294c11.258 11.259 19.744 24.55 25.223 39.504 8.369 22.847 30.223 38.197 54.382 38.197h44.827c31.88 0 57.816-25.937 57.816-57.816v-92.188c0-12.677-10.313-22.99-22.99-22.99-5.665 0-10.857 2.06-14.869 5.469-3.533-8.163-11.666-13.889-21.112-13.889-5.682 0-10.889 2.072-14.905 5.5-3.552-8.119-11.662-13.806-21.075-13.806-4.816 0-9.292 1.489-12.99 4.03v-11.845h112.21c8.271 0 15-6.729 15-15v-54.272c0-2.762-2.239-5-5-5s-5 2.238-5 5v54.271c0 2.757-2.243 5-5 5h-112.21v-42.446c0-12.677-10.313-22.99-22.99-22.99s-22.99 10.313-22.99 22.99v13.446c0 2.762 2.239 5 5 5s5-2.238 5-5v-13.446c0-7.163 5.828-12.99 12.99-12.99s12.99 5.827 12.99 12.99v83.251c0 2.762 2.239 5 5 5s5-2.238 5-5c0-7.163 5.828-12.99 12.99-12.99s12.99 5.827 12.99 12.99v8.306c0 2.762 2.239 5 5 5s5-2.238 5-5c0-7.163 5.827-12.99 12.99-12.99s12.99 5.827 12.99 12.99v8.42c0 2.762 2.239 5 5 5s5-2.238 5-5c0-7.163 5.828-12.99 12.99-12.99s12.99 5.827 12.99 12.99v92.188c0 26.366-21.45 47.816-47.816 47.816h-44.827c-19.979 0-38.061-12.714-44.992-31.637-5.982-16.329-15.248-30.842-27.541-43.135l-29.294-29.294c-2.53-2.53-3.922-5.894-3.92-9.472.002-3.579 1.399-6.943 3.921-9.461l.343-.342c8.959-8.941 23.529-8.932 32.48.018l19.19 19.19c1.431 1.431 3.582 1.86 5.449 1.084 1.868-.773 3.086-2.597 3.086-4.619v-84.868c0-2.762-2.239-5-5-5h-77.786c-2.757 0-5-2.243-5-5v-183.077c0-2.757 2.243-5 5-5h230.976c2.757 0 5 2.243 5 5v94.807c.003 2.762 2.242 5 5.003 5z" fill="#00c"/></g><g><path d="m163.325 112.327h189.396c2.209 0 4-1.791 4-4v-21.019c0-2.209-1.791-4-4-4h-189.396c-2.209 0-4 1.791-4 4v21.019c0 2.209 1.791 4 4 4z" fill="#ffc599"/><path d="m348.414 92.011c0-9.16-7.453-16.613-16.613-16.613s-16.613 7.453-16.613 16.613c0 4.518 1.818 8.615 4.755 11.613-2.936 2.998-4.755 7.096-4.755 11.613 0 2.762 2.239 5 5 5s5-2.238 5-5c0-3.646 2.967-6.613 6.613-6.613s6.613 2.967 6.613 6.613c0 2.762 2.239 5 5 5s5-2.238 5-5c0-4.518-1.818-8.615-4.755-11.613 2.937-2.998 4.755-7.095 4.755-11.613zm-16.613-6.614c3.646 0 6.613 2.967 6.613 6.613s-2.967 6.613-6.613 6.613-6.613-2.967-6.613-6.613 2.966-6.613 6.613-6.613z" fill="#6c6cff"/></g><g><g><path d="m334.4 144.193c-2.835 0-5.133-2.298-5.133-5.133v-3.593c0-2.835 2.298-5.133 5.133-5.133s5.133 2.298 5.133 5.133v3.593c0 2.835-2.298 5.133-5.133 5.133z" fill="#ffe8dc"/></g><path d="m350.985 130.334c2.835 0 5.133 2.298 5.133 5.133v3.593c0 2.835-2.298 5.133-5.133 5.133s-5.133-2.298-5.133-5.133v-3.593c0-2.834 2.298-5.133 5.133-5.133" fill="#ffe8dc"/></g><g><path d="m260.852 102.817h-76.52c-2.762 0-5-2.239-5-5s2.238-5 5-5h76.52c2.762 0 5 2.239 5 5s-2.238 5-5 5z" fill="#ffe8dc"/></g></g><g><path d="m140.033 318.799c-7.175 0-13.012-5.837-13.012-13.012s5.837-13.012 13.012-13.012 13.012 5.837 13.012 13.012-5.837 13.012-13.012 13.012zm0-16.024c-1.661 0-3.012 1.351-3.012 3.012s1.351 3.012 3.012 3.012 3.012-1.351 3.012-3.012-1.352-3.012-3.012-3.012z" fill="#ff6c6c"/></g><g><path d="m392.402 308.655c-7.175 0-13.012-5.837-13.012-13.012s5.837-13.012 13.012-13.012 13.012 5.837 13.012 13.012-5.837 13.012-13.012 13.012zm0-16.023c-1.661 0-3.012 1.351-3.012 3.012s1.351 3.012 3.012 3.012 3.012-1.351 3.012-3.012-1.351-3.012-3.012-3.012z" fill="#ff9d33"/></g><g><path d="m94.118 304.69c-1.326 0-2.598-.526-3.536-1.465l-11.292-11.292c-.938-.938-1.464-2.209-1.464-3.535s.527-2.598 1.464-3.535l11.292-11.292c1.953-1.953 5.118-1.953 7.071 0l11.292 11.292c.938.938 1.464 2.209 1.464 3.535s-.527 2.598-1.464 3.535l-11.292 11.293c-.937.938-2.209 1.464-3.535 1.464zm-4.221-16.293 4.221 4.222 4.221-4.222-4.221-4.221z" fill="#6c6cff"/></g><g><path d="m422.333 388.855c-1.326 0-2.598-.526-3.536-1.465l-11.292-11.293c-.938-.938-1.464-2.209-1.464-3.535s.527-2.598 1.464-3.535l11.292-11.292c1.954-1.953 5.119-1.952 7.071 0l11.292 11.292c1.953 1.952 1.953 5.118 0 7.07l-11.292 11.293c-.936.938-2.208 1.465-3.535 1.465zm-4.221-16.292 4.221 4.222 4.221-4.222-4.221-4.221z" fill="#6c6cff"/></g><g><path d="m91.129 121.432c-1.326 0-2.598-.526-3.536-1.465l-11.292-11.293c-.938-.938-1.464-2.209-1.464-3.535s.527-2.598 1.464-3.535l11.292-11.292c1.954-1.952 5.119-1.952 7.071 0l11.292 11.292c1.953 1.952 1.953 5.118 0 7.07l-11.292 11.293c-.936.937-2.208 1.465-3.535 1.465zm-4.221-16.293 4.221 4.222 4.221-4.222-4.221-4.221z" fill="#ff9d33"/></g></g></g></svg>