<svg id="Capa_1" enable-background="new 0 0 512 512" height="512" viewBox="0 0 512 512" width="512" xmlns="http://www.w3.org/2000/svg" xmlns:xlink="http://www.w3.org/1999/xlink"><linearGradient id="SVGID_1_" gradientUnits="userSpaceOnUse" x1="12.034" x2="499.966" y1="256" y2="256"><stop offset=".0485" stop-color="#ffdbed"/><stop offset=".9993" stop-color="#d2deff"/></linearGradient><g><g><g><path d="m286.593 4.867c-94.351 27.746-75.427 93.585-85.98 166.539-13.171 91.052-70.095 44.365-135.496 93.537-113.054 85.001-30.931 272.636 109.468 244.14 74.552-15.131 89.786-70.095 120.193-128.824 39.333-75.972 104.558-55.259 163.066-104.856 118.655-100.582-37.403-309.897-171.251-270.536z" fill="url(#SVGID_1_)"/></g><g><g><g><path d="m386.53 79.415v377.92c0 16.57-13.43 30-30 30h-201.06c-16.57 0-30-13.43-30-30v-377.92c0-16.57 13.43-30 30-30h201.06c16.57 0 30 13.43 30 30z" fill="#2626bc" opacity=".1"/><path d="m386.53 55.416v377.92c0 16.57-13.43 30-30 30h-201.06c-16.57 0-30-13.43-30-30v-377.92c0-16.57 13.43-30 30-30h201.06c16.57 0 30 13.429 30 30z" fill="#fff"/><path d="m125.47 297.333v136.002c0 16.57 13.43 30 30 30h201.06c16.57 0 30-13.43 30-30v-136.002z" fill="#d2deff"/><path d="m125.47 331.667v101.669c0 16.57 13.43 30 30 30h201.06c16.57 0 30-13.43 30-30v-101.669z" fill="#b7c5ff"/><path d="m311.593 48.355 7.157-22.939h-125.5l7.157 22.939c1.303 4.177 5.171 7.022 9.546 7.022h92.093c4.376 0 8.244-2.845 9.547-7.022z" fill="#6583fe"/><g><path d="m179.833 53.746h-19c-2.761 0-5-2.239-5-5v-4.98c0-2.761 2.239-5 5-5h19c2.761 0 5 2.239 5 5v4.98c0 2.761-2.238 5-5 5z" fill="#b7c5ff"/><g><g><path d="m335.917 53.005c-2.761 0-5-2.239-5-5v-3.5c0-2.761 2.239-5 5-5s5 2.239 5 5v3.5c0 2.762-2.239 5-5 5z" fill="#b7c5ff"/></g><g><path d="m351.167 53.005c-2.761 0-5-2.239-5-5v-3.5c0-2.761 2.239-5 5-5s5 2.239 5 5v3.5c0 2.762-2.239 5-5 5z" fill="#b7c5ff"/></g></g></g></g><path d="m90 368.901c-1.279 0-2.56-.488-3.535-1.464l-11-11c-1.953-1.953-1.953-5.119 0-7.071l11-11c1.951-1.952 5.119-1.952 7.07 0l11 11c1.953 1.953 1.953 5.119 0 7.071l-11 11c-.975.976-2.256 1.464-3.535 1.464zm-3.929-16 3.929 3.929 3.929-3.929-3.929-3.929z" fill="#6583fe"/><path d="m432 361.046c-1.279 0-2.56-.488-3.535-1.464l-11-11c-1.953-1.953-1.953-5.119 0-7.071l11-11c1.951-1.952 5.119-1.952 7.07 0l11 11c1.953 1.953 1.953 5.119 0 7.071l-11 11c-.975.976-2.256 1.464-3.535 1.464zm-3.929-16 3.929 3.929 3.929-3.929-3.929-3.928z" fill="#01eca5"/><path d="m79 315.363c-2.762 0-5-2.239-5-5 0-3.309-2.691-6-6-6-2.762 0-5-2.239-5-5s2.238-5 5-5c3.309 0 6-2.691 6-6 0-2.761 2.238-5 5-5s5 2.239 5 5c0 3.309 2.691 6 6 6 2.762 0 5 2.239 5 5s-2.238 5-5 5c-3.309 0-6 2.691-6 6 0 2.762-2.238 5-5 5z" fill="#ff7eb8"/><path d="m445 134.788c-2.762 0-5-2.239-5-5 0-3.309-2.691-6-6-6-2.762 0-5-2.239-5-5s2.238-5 5-5c3.309 0 6-2.691 6-6 0-2.761 2.238-5 5-5s5 2.239 5 5c0 3.309 2.691 6 6 6 2.762 0 5 2.239 5 5s-2.238 5-5 5c-3.309 0-6 2.691-6 6 0 2.761-2.238 5-5 5z" fill="#6583fe"/><path d="m422.34 184.062c-2.762 0-5-2.239-5-5 0-3.309-2.691-6-6-6-2.762 0-5-2.239-5-5s2.238-5 5-5c3.309 0 6-2.691 6-6 0-2.761 2.238-5 5-5s5 2.239 5 5c0 3.309 2.691 6 6 6 2.762 0 5 2.239 5 5s-2.238 5-5 5c-3.309 0-6 2.691-6 6 0 2.761-2.238 5-5 5z" fill="#ff7eb8"/></g><g fill="#fff"><g><path d="m161.5 369.333h-9.333c-2.761 0-5-2.239-5-5v-15.333c0-2.761 2.239-5 5-5h9.333c2.761 0 5 2.239 5 5v15.333c0 2.762-2.239 5-5 5z"/><path d="m189.833 369.333h-9.333c-2.761 0-5-2.239-5-5v-15.333c0-2.761 2.239-5 5-5h9.333c2.761 0 5 2.239 5 5v15.333c0 2.762-2.238 5-5 5z"/><path d="m218.167 369.333h-9.333c-2.761 0-5-2.239-5-5v-15.333c0-2.761 2.239-5 5-5h9.333c2.761 0 5 2.239 5 5v15.333c0 2.762-2.239 5-5 5z"/><path d="m246.5 369.333h-9.333c-2.761 0-5-2.239-5-5v-15.333c0-2.761 2.239-5 5-5h9.333c2.761 0 5 2.239 5 5v15.333c0 2.762-2.239 5-5 5z"/><path d="m274.833 369.333h-9.333c-2.761 0-5-2.239-5-5v-15.333c0-2.761 2.239-5 5-5h9.333c2.761 0 5 2.239 5 5v15.333c0 2.762-2.238 5-5 5z"/><path d="m303.167 369.333h-9.333c-2.761 0-5-2.239-5-5v-15.333c0-2.761 2.239-5 5-5h9.333c2.761 0 5 2.239 5 5v15.333c0 2.762-2.239 5-5 5z"/><path d="m331.5 369.333h-9.333c-2.761 0-5-2.239-5-5v-15.333c0-2.761 2.239-5 5-5h9.333c2.761 0 5 2.239 5 5v15.333c0 2.762-2.239 5-5 5z"/><path d="m359.833 369.333h-9.333c-2.761 0-5-2.239-5-5v-15.333c0-2.761 2.239-5 5-5h9.333c2.761 0 5 2.239 5 5v15.333c0 2.762-2.238 5-5 5z"/></g><g><path d="m161.5 404.667h-9.333c-2.761 0-5-2.239-5-5v-15.333c0-2.761 2.239-5 5-5h9.333c2.761 0 5 2.239 5 5v15.333c0 2.761-2.239 5-5 5z"/><path d="m189.833 404.667h-9.333c-2.761 0-5-2.239-5-5v-15.333c0-2.761 2.239-5 5-5h9.333c2.761 0 5 2.239 5 5v15.333c0 2.761-2.238 5-5 5z"/><path d="m218.167 404.667h-9.333c-2.761 0-5-2.239-5-5v-15.333c0-2.761 2.239-5 5-5h9.333c2.761 0 5 2.239 5 5v15.333c0 2.761-2.239 5-5 5z"/><path d="m246.5 404.667h-9.333c-2.761 0-5-2.239-5-5v-15.333c0-2.761 2.239-5 5-5h9.333c2.761 0 5 2.239 5 5v15.333c0 2.761-2.239 5-5 5z"/><path d="m274.833 404.667h-9.333c-2.761 0-5-2.239-5-5v-15.333c0-2.761 2.239-5 5-5h9.333c2.761 0 5 2.239 5 5v15.333c0 2.761-2.238 5-5 5z"/><path d="m303.167 404.667h-9.333c-2.761 0-5-2.239-5-5v-15.333c0-2.761 2.239-5 5-5h9.333c2.761 0 5 2.239 5 5v15.333c0 2.761-2.239 5-5 5z"/><path d="m331.5 404.667h-9.333c-2.761 0-5-2.239-5-5v-15.333c0-2.761 2.239-5 5-5h9.333c2.761 0 5 2.239 5 5v15.333c0 2.761-2.239 5-5 5z"/><path d="m359.833 404.667h-9.333c-2.761 0-5-2.239-5-5v-15.333c0-2.761 2.239-5 5-5h9.333c2.761 0 5 2.239 5 5v15.333c0 2.761-2.238 5-5 5z"/></g><g><path d="m161.5 440h-9.333c-2.761 0-5-2.239-5-5v-15.333c0-2.761 2.239-5 5-5h9.333c2.761 0 5 2.239 5 5v15.333c0 2.761-2.239 5-5 5z"/><path d="m189.833 440h-9.333c-2.761 0-5-2.239-5-5v-15.333c0-2.761 2.239-5 5-5h9.333c2.761 0 5 2.239 5 5v15.333c0 2.761-2.238 5-5 5z"/><path d="m303.167 440h-94.333c-2.761 0-5-2.239-5-5v-15.333c0-2.761 2.239-5 5-5h94.333c2.761 0 5 2.239 5 5v15.333c0 2.761-2.239 5-5 5z"/><path d="m331.5 440h-9.333c-2.761 0-5-2.239-5-5v-15.333c0-2.761 2.239-5 5-5h9.333c2.761 0 5 2.239 5 5v15.333c0 2.761-2.239 5-5 5z"/><path d="m359.833 440h-9.333c-2.761 0-5-2.239-5-5v-15.333c0-2.761 2.239-5 5-5h9.333c2.761 0 5 2.239 5 5v15.333c0 2.761-2.238 5-5 5z"/></g></g><g><g><path d="m192.045 282.785h150.364c17.183 0 31.113-13.93 31.113-31.113 0-17.183-13.93-31.113-31.113-31.113h-122.946c-17.183 0-31.113 13.93-31.113 31.113v27.418c0 2.041 1.654 3.695 3.695 3.695z" fill="#02ffb3"/></g><g><g><path d="m253.49 247.343h91.52c2.762 0 5-2.239 5-5s-2.238-5-5-5h-91.52c-2.762 0-5 2.239-5 5s2.239 5 5 5z" fill="#fff"/></g><g><path d="m223.49 266h121.52c2.762 0 5-2.239 5-5s-2.238-5-5-5h-121.52c-2.762 0-5 2.239-5 5s2.239 5 5 5z" fill="#fff"/></g></g></g><g><g><path d="m256.5 206.785h-83.059c-12.213 0-22.113-9.9-22.113-22.113 0-12.213 9.9-22.113 22.113-22.113h65.946c12.213 0 22.113 9.9 22.113 22.113v17.113c0 2.761-2.238 5-5 5z" fill="#ffa8cf"/></g><g><g><path d="m226.36 190h-46.52c-2.762 0-5-2.239-5-5s2.238-5 5-5h46.52c2.762 0 5 2.239 5 5s-2.239 5-5 5z" fill="#fff"/></g></g></g><g><g><path d="m192.045 140.113h150.364c17.183 0 31.113-13.93 31.113-31.113 0-17.183-13.93-31.113-31.113-31.113h-122.946c-17.183 0-31.113 13.93-31.113 31.113v27.418c0 2.041 1.654 3.695 3.695 3.695z" fill="#02ffb3"/></g><g><g><path d="m223.49 104.672h121.52c2.762 0 5-2.239 5-5s-2.238-5-5-5h-121.52c-2.762 0-5 2.239-5 5s2.239 5 5 5z" fill="#fff"/></g><g><path d="m223.49 123.328h121.52c2.762 0 5-2.239 5-5s-2.238-5-5-5h-121.52c-2.762 0-5 2.239-5 5s2.239 5 5 5z" fill="#fff"/></g></g></g><g><path d="m172.1 140.562c-2.761 0-5-2.239-5-5v-3.5c0-2.761 2.239-5 5-5s5 2.239 5 5v3.5c0 2.761-2.239 5-5 5z" fill="#b7c5ff"/></g><g><path d="m171.85 282.75c-2.761 0-5-2.239-5-5v-3.5c0-2.761 2.239-5 5-5s5 2.239 5 5v3.5c0 2.762-2.239 5-5 5z" fill="#b7c5ff"/></g><g><path d="m277 206.785c-2.761 0-5-2.239-5-5v-3.5c0-2.761 2.239-5 5-5s5 2.239 5 5v3.5c0 2.761-2.239 5-5 5z" fill="#b7c5ff"/></g></g></g><g fill="#2626bc"><path d="m155.469 468.335h201.063c19.299 0 35-15.701 35-35v-222.171c0-2.761-2.238-5-5-5s-5 2.239-5 5v222.172c0 13.785-11.215 25-25 25h-201.063c-13.785 0-25-11.215-25-25v-132.172c0-2.761-2.238-5-5-5s-5 2.239-5 5v132.172c0 19.298 15.701 34.999 35 34.999z"/><path d="m125.469 272.503c2.762 0 5-2.239 5-5v-212.089c0-13.785 11.215-25 25-25h201.063c13.785 0 25 11.215 25 25v122.089c0 2.761 2.238 5 5 5s5-2.239 5-5v-122.089c0-19.299-15.701-35-35-35h-201.063c-19.299 0-35 15.701-35 35v212.089c0 2.761 2.238 5 5 5z"/></g></g></svg>