<svg id="Capa_1" enable-background="new 0 0 512 512" height="512" viewBox="0 0 512 512" width="512" xmlns="http://www.w3.org/2000/svg" xmlns:xlink="http://www.w3.org/1999/xlink"><linearGradient id="SVGID_1_" gradientUnits="userSpaceOnUse" x1="5.399" x2="506.601" y1="256" y2="256"><stop offset=".0485" stop-color="#d2deff"/><stop offset=".9993" stop-color="#dcfdee"/></linearGradient><g><g><g><path d="m461.173 27.352c-63.757-37.987-146.258-35.878-208.873 3.041-35.18 21.866-62.374 53.403-93.212 80.552-27.022 23.789-58.445 40.758-86.353 63.204-101.21 81.403-91.553 300.961 50.962 330.125 61.777 12.642 146.21 16.696 182.519-43.642 34.62-57.531 46.232-116.383 113.876-146.942 23.573-10.65 62.975-10.113 78.944-33.45 20.152-29.45-4.853-60.043-18.192-85.707-17.19-33.074-20.795-65.682-8.699-101.16 10.298-30.211 17.549-43.782-10.972-66.021z" fill="url(#SVGID_1_)"/></g><g><path d="m457.541 172.682c0-44.052-35.711-79.764-79.764-79.764-14.046 0-27.236 3.643-38.698 10.017-25.217-11.852-53.371-18.489-83.079-18.489-108.002 0-195.554 87.552-195.554 195.554s87.552 195.554 195.554 195.554 195.554-87.553 195.554-195.554c0-20.997-3.323-41.215-9.448-60.173 9.697-13.208 15.435-29.504 15.435-47.145z" fill="#2626bc" opacity=".1"/><g><circle cx="256" cy="256" fill="#dcfdee" r="195.554"/><g><g><path d="m445.9 209.18c-14 22.95-39.27 38.27-68.12 38.27h-69.77c-5.52 0-10-4.48-10-10v-69.77c0-22.02 8.93-41.96 23.37-56.4 10.3-10.3 23.41-17.8 38.08-21.25 42.55 26.58 74.14 69.07 86.44 119.15z" fill="#97ffd2"/></g></g><g><g><path d="m328.638 347.264h-69.764c-44.052 0-79.764-35.711-79.764-79.764 0-44.052 35.711-79.764 79.764-79.764 44.052 0 79.764 35.711 79.764 79.764v69.764c0 5.523-4.477 10-10 10z" fill="#97ffd2"/></g></g><g><path d="m210.29 421.23c-1.14 5.49.67 16.92.69 25.11-20.96-4.94-40.61-13.24-58.36-24.32-6.55-17.28-3.25-34.57-3.89-54.6-.91-28.26-18-29.64-38.86-42.38-17.39-10.63-33.36-21.37-46.24-33.73-2.09-11.45-3.18-23.25-3.18-35.31 0-39.03 11.43-75.38 31.14-105.9 3.43 4.41 8.44 5.79 16.88 6.17 5.21-5.27 10.71-6.54 16.51-3.81.82 1.89 1.64 3.78 2.46 5.67-.46 4.2.71 7.86 3.5 10.99 6.04.92 11.89.18 17.56-2.22 8.54-1.73 17.96-7.45 26.69-7.73 35.56-1.13 12.9 23.47 2.14 39.25-12.29 18.04-17.82 43.59-40.59 51.96-16.65 6.12-36.94-2.23-37.71 24-.61 20.69 23.38 42.65 41.47 48.87 22.14 7.6 50.63-3.67 72.15 9.35 16.17 9.78 11.76 41.76 7.77 60.63-2.04 9.64-8.08 18.09-10.13 28z" fill="#02ffb3"/></g><g><path d="m236.35 107.29c-4.92 7.3-12.54 13.09-14.9 21.56-2.52 9.03 1.11 20.32-5.5 26.96-10.23-6.92-14.68-20.14-14.24-32.47.27-7.31 1.37-16.14-4.52-20.48-5.22-3.85-14.61-2.76-16.44-8.99-.78-2.66.41-5.64-.52-8.25-1.01-2.87-4.14-4.29-6.44-6.28-.2-.17-.39-.36-.57-.56 21.68-10.14 45.52-16.42 70.64-17.96.9 15.98 1.43 33.21-7.51 46.47z" fill="#02ffb3"/></g><g><path d="m451.55 256c0 79.09-46.95 147.21-114.49 178.01 2.51-7.47 7.38-14.59 11.05-21.73 6.45-12.55 9.48-26.59 11.13-40.6.88-7.48.59-16.65-5.9-20.47-3.38-1.99-7.53-1.88-11.45-1.94-6.93-.11-13.84-.95-20.59-2.51-7.24-1.68-14.69-4.44-19.34-10.25-6.94-8.68-5.57-21.12-3.85-32.1 1.77-11.28 3.54-22.55 5.31-33.83 1.45-9.27 4.11-20.13 12.86-23.55 5.99-2.34 12.67-.19 19.09.29 18.87 1.39 36.4-12.01 55.29-11.01 3.31.18 6.69.79 9.88-.08 2.29-.63 4.33-2 6.06-3.63 9.93-9.29 9.6-25.07 6.7-38.36-1.27-5.83-3.02-11.83-7.07-16.21-4.06-4.39-11.04-6.59-16.18-3.54-8.26 4.9-7.39 19.61-16.51 22.64-8.05 2.66-16.37-6.73-24.48-4.27-11.32 3.42-7.06 23.23-17.13 29.42-5.22 3.2-12.02 1.2-17.46-1.59-6.76-3.48-13.48-8.95-14.36-16.49-1.17-10.06 8.27-17.93 17.05-22.98s18.97-10.68 20.96-20.6c.67-3.3.3-6.74 1.01-10.03 2.04-9.57 12.12-14.99 21.44-17.97s19.68-5.27 25.9-12.83c1.5-1.82 2.68-3.87 3.84-5.93 37.71 35.66 61.24 86.15 61.24 142.14z" fill="#02ffb3"/></g><g><g><path d="m390.31 113.86c-1.16 2.06-2.34 4.11-3.84 5.93-6.22 7.56-16.58 9.85-25.9 12.83s-19.4 8.4-21.44 17.97c-.71 3.29-.34 6.73-1.01 10.03-1.99 9.92-12.18 15.55-20.96 20.6s-18.22 12.92-17.05 22.98c.88 7.54 7.6 13.01 14.36 16.49 5.44 2.79 12.24 4.79 17.46 1.59 10.07-6.19 5.81-26 17.13-29.42 8.11-2.46 16.43 6.93 24.48 4.27 9.12-3.03 8.25-17.74 16.51-22.64 5.14-3.05 12.12-.85 16.18 3.54 4.05 4.38 5.8 10.38 7.07 16.21 2.9 13.29 3.23 29.07-6.7 38.36-1.73 1.63-3.77 3-6.06 3.63-3.19.87-6.57.26-9.88.08-16.914-.895-32.738 9.744-49.41 10.983v.157h36.53c28.85 0 54.12-15.32 68.12-38.27 0 0 0-.01.01-.01-9.11-37.04-28.76-69.93-55.6-95.31z" fill="#01eca5"/></g></g><g><g><path d="m338.64 267.5v69.76c0 5.53-4.48 10-10 10h-5.03c-.77-.15-1.54-.32-2.31-.5-7.24-1.68-14.69-4.44-19.34-10.25-6.94-8.68-5.57-21.12-3.85-32.1 1.77-11.28 3.54-22.55 5.31-33.83 1.45-9.27 4.11-20.13 12.86-23.55 5.99-2.34 12.67-.19 19.09.29.23.02.47.03.7.04 1.68 6.43 2.57 13.18 2.57 20.14z" fill="#01eca5"/></g></g></g><path d="m420.319 462.34c-1.28 0-2.559-.488-3.536-1.465l-11-11c-1.953-1.952-1.953-5.118 0-7.07l11-11c1.953-1.953 5.118-1.953 7.071 0l11 11c1.953 1.952 1.953 5.118 0 7.07l-11 11c-.976.977-2.255 1.465-3.535 1.465zm-3.929-16 3.929 3.929 3.929-3.929-3.929-3.929z" fill="#6583fe"/><path d="m71.447 425.22c-1.28 0-2.559-.488-3.536-1.465l-11-11c-1.953-1.952-1.953-5.118 0-7.07l11-11c1.953-1.953 5.118-1.953 7.071 0l11 11c1.953 1.952 1.953 5.118 0 7.07l-11 11c-.976.976-2.255 1.465-3.535 1.465zm-3.929-16 3.929 3.929 3.929-3.929-3.929-3.929z" fill="#6583fe"/><path d="m76.447 105.678c-2.761 0-5-2.238-5-5 0-3.309-2.691-6-6-6-2.761 0-5-2.238-5-5s2.239-5 5-5c3.309 0 6-2.691 6-6 0-2.762 2.239-5 5-5s5 2.238 5 5c0 3.309 2.691 6 6 6 2.761 0 5 2.238 5 5s-2.239 5-5 5c-3.309 0-6 2.691-6 6 0 2.761-2.239 5-5 5z" fill="#01eca5"/><path d="m451.55 405.006c-2.761 0-5-2.238-5-5 0-3.309-2.692-6-6-6-2.761 0-5-2.238-5-5s2.239-5 5-5c3.309 0 6-2.691 6-6 0-2.762 2.239-5 5-5s5 2.238 5 5c0 3.309 2.691 6 6 6 2.761 0 5 2.238 5 5s-2.239 5-5 5c-3.308 0-6 2.691-6 6 0 2.762-2.238 5-5 5z" fill="#01eca5"/><path d="m119.17 78.918c-2.761 0-5-2.238-5-5 0-3.309-2.691-6-6-6-2.761 0-5-2.238-5-5s2.239-5 5-5c3.309 0 6-2.691 6-6 0-2.762 2.239-5 5-5s5 2.238 5 5c0 3.309 2.691 6 6 6 2.761 0 5 2.238 5 5s-2.239 5-5 5c-3.309 0-6 2.691-6 6 0 2.762-2.239 5-5 5z" fill="#ff7eb8"/><g><g><g><g><g><g><g><g><path d="m328.638 328.264h-69.764c-44.052 0-79.764-35.711-79.764-79.764 0-44.052 35.711-79.764 79.764-79.764 44.052 0 79.764 35.711 79.764 79.764v69.764c0 5.523-4.477 10-10 10z" fill="#ff7eb8"/></g></g><g><g><path d="m338.62 247.45h-30.61c-5.52 0-10-4.48-10-10v-58.46c6.35 3.58 12.15 8 17.27 13.11 14.2 14.21 23.07 33.75 23.34 55.35z" fill="#ff5ba8"/></g></g></g></g></g></g><g fill="#fff"><path d="m289.624 293.743c-2.013 0-3.911-1.224-4.672-3.217l-26.078-68.259-26.078 68.259c-.985 2.58-3.877 3.875-6.455 2.887-2.58-.985-3.872-3.876-2.887-6.455l30.749-80.484c.74-1.937 2.598-3.216 4.671-3.216s3.931 1.279 4.671 3.216l30.749 80.484c.985 2.579-.307 5.47-2.886 6.455-.588.225-1.191.33-1.784.33z"/><path d="m261.889 271.735h-23.815c-2.761 0-5-2.238-5-5s2.239-5 5-5h23.815c2.761 0 5 2.238 5 5s-2.239 5-5 5z"/></g></g><g><g><g><path d="m308.014 228.446h69.764c44.052 0 79.764-35.711 79.764-79.764 0-44.052-35.711-79.764-79.764-79.764-44.052 0-79.764 35.711-79.764 79.764v69.764c0 5.523 4.477 10 10 10z" fill="#9fb0fe"/></g></g><g fill="#fff"><path d="m377.777 132.991c-2.761 0-5-2.238-5-5v-21.81c0-2.762 2.239-5 5-5s5 2.238 5 5v21.81c0 2.762-2.238 5-5 5z"/><path d="m417.119 135.591h-78.683c-2.761 0-5-2.238-5-5s2.239-5 5-5h78.683c2.761 0 5 2.238 5 5s-2.239 5-5 5z"/><path d="m347.621 196.183c-2.316 0-4.395-1.618-4.889-3.975-.567-2.703 1.165-5.354 3.868-5.92 20.558-4.311 35.114-15.005 43.264-31.786 6.104-12.567 6.174-23.799 6.174-23.911 0-2.762 2.239-5 5-5s5 2.238 5 5c0 .551-.082 13.666-7.179 28.28-6.581 13.55-20.632 31.003-50.208 37.204-.345.072-.691.108-1.03.108z"/><path d="m407.074 196.183c-.301 0-.607-.027-.914-.084-34.116-6.301-47.501-36.69-48.054-37.98-1.088-2.538.088-5.478 2.626-6.565 2.535-1.087 5.469.084 6.561 2.615.116.267 11.943 26.789 40.684 32.097 2.715.502 4.51 3.109 4.009 5.825-.446 2.407-2.548 4.092-4.912 4.092z"/></g></g></g></g></g><path d="m462.541 148.682c0-16.469-4.749-32.456-13.732-46.232-1.507-2.312-4.605-2.967-6.919-1.457-2.313 1.509-2.966 4.606-1.457 6.92 7.921 12.146 12.108 26.245 12.108 40.77 0 41.225-33.539 74.764-74.764 74.764h-69.764c-2.757 0-5-2.243-5-5v-69.764c0-41.225 33.539-74.764 74.764-74.764 14.302 0 28.218 4.07 40.246 11.772 2.326 1.487 5.417.81 6.907-1.515 1.489-2.325.811-5.418-1.515-6.907-13.64-8.734-29.421-13.351-45.638-13.351-13.985 0-27.177 3.425-38.816 9.448-26.12-11.886-54.026-17.92-82.961-17.92-110.373 0-200.2 89.623-200.546 199.916-.027.211-.064.419-.064.637s.037.426.064.637c.346 110.295 90.173 199.918 200.546 199.918s200.2-89.623 200.546-199.916c.027-.211.064-.419.064-.637 0-.211-.037-.411-.062-.615-.06-20.029-3.065-39.782-8.932-58.742 9.404-13.65 14.925-30.17 14.925-47.962zm-120.239 84.763h29.644c.422 5.809.683 11.678.777 17.555h-29.085v-2.5c0-5.061-.449-10.105-1.336-15.055zm-34.288 0h24.103c1.007 4.93 1.522 9.981 1.522 15.055v69.764c0 2.757-2.243 5-5 5h-9.808c-2.761 0-5 2.238-5 5s2.239 5 5 5h9.808c8.271 0 15-6.729 15-15v-57.264h29.099c-.734 46.247-11.62 88.439-29.142 120.868-25.605-7.82-53.762-12.179-82.595-12.631v-35.974h24.17c2.761 0 5-2.238 5-5s-2.239-5-5-5h-26.296c-41.225 0-74.764-33.539-74.764-74.764s33.539-74.764 74.764-74.764c11.881 0 23.648 2.85 34.14 8.241v36.468c-.001 8.273 6.728 15.001 14.999 15.001zm-15-84.763v22.227c-10.055-4.418-20.969-6.861-32.014-7.139v-21.008c10.935-.172 21.771-.908 32.41-2.179-.254 2.667-.396 5.366-.396 8.099zm-42.014-15.922c-27.035-.437-53.418-4.403-77.484-11.52 20.04-32.661 47.299-53.522 77.484-55.608zm0 10.002v21.353c-43.059 3.987-76.89 40.302-76.89 84.385 0 .838.039 1.667.063 2.5h-34.911c.734-46.247 11.62-88.439 29.142-120.868 25.606 7.82 53.763 12.178 82.596 12.63zm-75.961 118.238c5.683 38.28 37.05 68.282 75.961 71.885v36.353c-28.833.452-56.99 4.811-82.595 12.631-17.522-32.43-28.408-74.621-29.142-120.868h35.776zm75.961 118.24v67.128c-30.185-2.086-57.444-22.946-77.484-55.608 24.066-7.117 50.449-11.084 77.484-11.52zm10 0c27.035.437 53.418 4.403 77.484 11.52-20.04 32.661-47.299 53.522-77.484 55.608zm34.043-248.936c-11.145 1.438-22.534 2.269-34.043 2.456v-67.116c19.02 1.339 37.592 10.286 54.034 26.105-9.733 10.716-16.745 23.935-19.991 38.555zm33.494-50.552c-2.192 1.57-4.305 3.241-6.334 5.008-4.817-4.658-9.814-8.782-14.956-12.357 7.214 2.014 14.314 4.47 21.29 7.349zm-162.891 35.327c-.629 1.01-1.247 2.034-1.861 3.061-9.318-3.174-18.239-6.832-26.646-10.963 19.648-15.724 42.458-27.649 67.317-34.643-14.339 10.046-27.486 24.361-38.81 42.545zm-36.789-.883c9.388 4.854 19.415 9.133 29.942 12.803-18.469 34.783-28.836 78.113-29.538 124.001h-63.75c1.405-54.253 25.604-102.929 63.346-136.804zm-63.345 146.804h63.75c.702 45.888 11.069 89.218 29.537 124.001-10.527 3.67-20.554 7.949-29.942 12.803-37.742-33.875-61.941-82.551-63.345-136.804zm71.627 143.823c8.407-4.131 17.327-7.79 26.646-10.963.614 1.028 1.232 2.051 1.861 3.061 11.324 18.185 24.471 32.499 38.811 42.544-24.859-6.993-47.67-18.918-67.318-34.642zm209.215-7.902c.629-1.01 1.247-2.034 1.861-3.061 9.318 3.174 18.239 6.832 26.646 10.963-19.648 15.724-42.458 27.649-67.317 34.643 14.339-10.046 27.486-24.361 38.81-42.545zm36.789.883c-9.388-4.854-19.415-9.133-29.942-12.803 18.468-34.783 28.835-78.112 29.537-124.001h63.75c-1.404 54.253-25.603 102.929-63.345 136.804zm63.339-146.804h-63.759c-.092-5.909-.344-11.814-.756-17.661 22.882-1.119 43.4-11.361 58.008-27.149 3.935 14.572 6.114 29.593 6.507 44.81z" fill="#2626bc"/></g></svg>